{
.appVersion = "3134";
.formatVersion = 3;
DisplayStrings = (
"Aa Bb Cc Dd Ee Ff Gg Hh Ii Jj Kk Ll Mm Nn Oo Pp Qq Rr Ss Tt Uu Vv Ww Xx Yy Zz
0123456789
!@#"
);
customParameters = (
{
name = vendorID;
value = ITFO;
},
{
name = panose;
value = (
0,
0,
3,
0,
0,
0,
0,
0,
0,
0
);
},
{
name = unicodeRanges;
value = (
0,
1,
2,
15
);
},
{
name = codePageRanges;
value = (
"1252",
"1250",
"1254",
"1257",
"bit 29"
);
},
{
name = fsType;
value = (
);
},
{
name = glyphOrder;
value = (
.notdef,
NULL,
CR,
space,
dvA,
dvAA,
dvI,
dvII,
dvU,
dvUU,
dvvR,
dvvRR,
dvvL,
dvvLL,
dvE,
dvAI,
dvO,
dvAU,
dvEcandra,
dvAcandra,
dvOcandra,
dvmAA,
dvmI,
dvmII,
dvmU,
dvmUU,
dvmvR,
dvmvRR,
dvmvL,
dvmvLL,
dvmE,
dvmAI,
dvmO,
dvmAU,
dvmEcandra,
dvmOcandra,
dvKA,
dvKHA,
dvGA,
dvGHA,
dvNGA,
dvCA,
dvCHA,
dvJA,
dvJHA,
dvNYA,
dvTTA,
dvTTHA,
dvDDA,
dvDDHA,
dvNNA,
dvTA,
dvTHA,
dvDA,
dvDHA,
dvNA,
dvPA,
dvPHA,
dvBA,
dvBHA,
dvMA,
dvYA,
dvRA,
dvLA,
dvVA,
dvSHA,
dvSSA,
dvSA,
dvHA,
dvLLA,
dvK_SSA,
dvJ_NYA,
dvKxA,
dvKHxA,
dvGxA,
dvJxA,
dvDDxA,
dvDDHxA,
dvPHxA,
dvRxA,
dvK,
dvKH,
dvG,
dvGH,
dvNG,
dvC,
dvCH,
dvJ,
dvJH,
dvNY,
dvTT,
dvTTH,
dvDD,
dvDDH,
dvNN,
dvT,
dvTH,
dvD,
dvDH,
dvN,
dvP,
dvPH,
dvB,
dvBH,
dvM,
dvY,
dvR,
dvL,
dvV,
dvSH,
dvSS,
dvS,
dvH,
dvLL,
dvK_SS,
dvJ_NY,
dvKx,
dvKHx,
dvGx,
dvJx,
dvPHx,
dvAnusvara,
dvCandrabindu,
dvVisarga,
dvAvagraha,
dvVirama,
dvNukta,
dvZero,
dvOne,
dvTwo,
dvThree,
dvFour,
dvFive,
dvSix,
dvSeven,
dvEight,
dvNine,
dvOm,
dvAbbreviationsign,
danda,
doubledanda,
rupee,
indianrupee,
zerowidthnonjoiner,
zerowidthjoiner,
dottedcircle,
dvReph,
dvEyelash,
dvRashtrasign,
dvK_RA,
dvKH_RA,
dvG_RA,
dvGH_RA,
dvNG_RA,
dvC_RA,
dvCH_RA,
dvJ_RA,
dvJH_RA,
dvNY_RA,
dvTT_RA,
dvTTH_RA,
dvDD_RA,
dvDDH_RA,
dvNN_RA,
dvT_RA,
dvTH_RA,
dvD_RA,
dvDH_RA,
dvN_RA,
dvP_RA,
dvPH_RA,
dvB_RA,
dvBH_RA,
dvM_RA,
dvY_RA,
dvL_RA,
dvV_RA,
dvSH_RA,
dvSS_RA,
dvS_RA,
dvH_RA,
dvLL_RA,
dvKx_RA,
dvKHx_RA,
dvGx_RA,
dvJx_RA,
dvPHx_RA,
dvK_R,
dvKH_R,
dvG_R,
dvGH_R,
dvNG_R,
dvC_R,
dvCH_R,
dvJ_R,
dvJH_R,
dvNY_R,
dvTT_R,
dvTTH_R,

glyphs = (
{
glyphname = .notdef;
layers = (
{
layerId = m01;
shapes = (
{
closed = 1;
nodes = (
(0,0,l),
(500,0,l),
(500,700,l),
(0,700,l)
);
},
{
closed = 1;
nodes = (
(250,395,l),
(80,650,l),
(420,650,l)
);
},
{
closed = 1;
nodes = (
(280,350,l),
(450,605,l),
(450,95,l)
);
},
{
closed = 1;
nodes = (
(80,50,l),
(250,305,l),
(420,50,l)
);
},
{
closed = 1;
nodes = (
(50,605,l),
(220,350,l),
(50,95,l)
);
}
);
width = 500;
}
);
note = ".notdef";
},
{
glyphname = dvA;
layers = (
{
layerId = m01;
shapes = (
{
closed = 1;
nodes = (
(260,424,l),
(260,408,l),
(294,408,ls),
(429,408,o),
(477,316,o),
(477,238,cs),
(477,135,o),
(406,64,o),
(295,64,cs),
(185,64,o),
(103,137,o),
(103,244,c),
(86,244,l),
(86,127,o),
(177,48,o),
(296,48,cs),
(416,48,o),
(494,124,o),
(494,238,cs),
(494,297,o),
(469,353,o),
(423,386,c),
(673,385,l),
(673,0,l),
(690,0,l),
(690,724,l),
(852,724,l),
(852,740,l),
(673,740,l),
(673,401,l),
(397,401,l),
(381,409,o),
(364,414,o),
(344,416,c),
(344,417,l),
(437,433,o),
(480,497,o),
(480,576,cs),
(480,682,o),
(398,749,o),
(292,749,cs),
(182,749,o),
(95,686,o),
(95,577,c),
(112,577,l),
(111,675,o),
(193,733,o),
(292,733,cs),
(385,733,o),
(463,675,o),
(463,572,cs),
(463,504,o),
(413,424,o),
(294,424,cs)
);
}
);
width = 817;
}
);
note = dvA;
unicode = 2309;
},
{
glyphname = dvAA;
layers = (
{
layerId = m01;
shapes = (
{
closed = 1;
nodes = (
(260,424,l),
(260,408,l),
(294,408,ls),
(429,408,o),
(477,316,o),
(477,238,cs),
(477,135,o),
(406,64,o),
(295,64,cs),
(185,64,o),
(103,137,o),
(103,244,c),
(86,244,l),
(86,127,o),
(177,48,o),
(296,48,cs),
(416,48,o),
(494,124,o),
(494,238,cs),
(494,297,o),
(469,353,o),
(423,386,c),
(673,385,l),
(673,0,l),
(690,0,l),
(690,724,l),
(944,724,l),
(944,0,l),
(961,0,l),
(961,724,l),
(1123,724,l),
(1123,740,l),
(673,740,l),
(673,401,l),
(397,401,l),
(381,409,o),
(364,414,o),
(344,416,c),
(344,417,l),
(437,433,o),
(480,497,o),
(480,576,cs),
(480,682,o),
(398,749,o),
(292,749,cs),
(182,749,o),
(95,686,o),
(95,577,c),
(112,577,l),
(111,675,o),
(193,733,o),
(292,733,cs),
(385,733,o),
(463,675,o),
(463,572,cs),
(463,504,o),
(413,424,o),
(294,424,cs)
);
}
);
width = 1078;
}
);
note = dvAA;
unicode = 2310;
},
{
glyphname = dvI;
layers = (
{
layerId = m01;
shapes = (
{
closed = 1;
nodes = (
(-50,724,l),
(444,724,l),
(444,562,l),
(284,562,ls),
(200,562,o),
(102,535,o),
(102,429,cs),
(102,338,o),
(178,298,o),
(270,298,cs),
(315,298,ls),
(404,298,o),
(503,268,o),
(503,150,cs),
(503,75,o),
(450,7,o),
(336,7,cs),
(206,7,o),
(134,85,o),
(123,184,c),
(108,184,l),
(108,-70,l),
(124,-70,l),
(124,120,l),
(134,81,o),
(192,-9,o),
(335,-9,cs),
(460,-9,o),
(520,65,o),
(520,150,cs),
(520,276,o),
(416,314,o),
(316,314,cs),
(271,314,ls),
(192,314,o),
(119,343,o),
(119,429,cs),
(119,528,o),
(215,546,o),
(292,546,cs),
(461,546,l),
(461,724,l),
(632,724,l),
(632,740,l),
(-50,740,l)
);
}
);
width = 582;
}
);
note = dvI;
unicode = 2311;
},
{
glyphname = dvII;
layers = (
{
layerId = m01;
shapes = (
{
closed = 1;
nodes = (
(124,120,l),
(134,81,o),
(192,-9,o),
(335,-9,cs),
(460,-9,o),
(520,65,o),
(520,150,cs),
(520,276,o),
(416,314,o),
(316,314,cs),
(271,314,ls),
(192,314,o),
(119,343,o),
(119,429,cs),
(119,528,o),
(215,546,o),
(292,546,cs),
(461,546,l),
(461,724,l),
(632,724,l),
(632,740,l),
(461,740,l),
(461,822,ls),
(461,924,o),
(502,978,o),
(582,978,cs),
(653,978,o),
(697,926,o),
(697,858,c),
(713,858,l),
(713,936,o),
(663,994,o),
(582,994,cs),
(495,994,o),
(444,937,o),
(444,823,cs),
(444,740,l),
(-50,740,l),
(-50,724,l),
(444,724,l),
(444,562,l),
(284,562,ls),
(200,562,o),
(102,535,o),
(102,429,cs),
(102,338,o),
(178,298,o),
(270,298,cs),
(315,298,ls),
(404,298,o),
(503,268,o),
(503,150,cs),
(503,75,o),
(450,7,o),
(336,7,cs),
(206,7,o),
(134,85,o),
(123,184,c),
(108,184,l),
(108,-70,l),
(124,-70,l)
);
}
);
width = 582;
}
);
note = dvII;
unicode = 2312;
},
{
glyphname = dvU;
layers = (
{
layerId = m01;
shapes = (
{
closed = 1;
nodes = (
(-35,724,l),
(450,724,l),
(450,585,ls),
(450,506,o),
(401,431,o),
(284,431,cs),
(250,431,l),
(250,415,l),
(284,415,ls),
(431,415,o),
(485,306,o),
(485,216,cs),
(485,101,o),
(409,18,o),
(290,18,cs),
(171,18,o),
(78,105,o),
(78,217,c),
(61,217,l),
(61,97,o),
(158,2,o),
(290,2,cs),
(423,2,o),
(502,93,o),
(502,216,cs),
(502,317,o),
(442,407,o),
(339,424,c),
(339,425,l),
(413,436,o),
(467,498,o),
(467,582,cs),
(467,724,l),
(619,724,l),
(619,740,l),
(-35,740,l)
);
}
);
width = 584;
}
);
note = dvU;
unicode = 2313;
},
{
glyphname = dvUU;
layers = (
{
layerId = m01;
shapes = (
{
closed = 1;
nodes = (
(-35,724,l),
(450,724,l),
(450,585,ls),
(450,506,o),
(401,431,o),
(284,431,cs),
(250,431,l),
(250,415,l),
(284,415,ls),
(431,415,o),
(485,306,o),
(485,216,cs),
(485,101,o),
(409,18,o),
(290,18,cs),
(171,18,o),
(78,105,o),
(78,217,c),
(61,217,l),
(61,97,o),
(158,2,o),
(290,2,cs),
(423,2,o),
(502,93,o),
(502,216,cs),
(502,299,o),
(462,374,o),
(390,408,c),
(572,408,ls),
(683,408,o),
(785,363,o),
(785,227,cs),
(785,95,o),
(701,50,o),
(606,50,cs),
(595,50,o),
(582,51,o),
(569,52,c),
(569,37,l),
(581,36,o),
(593,35,o),
(605,35,cs),
(706,35,o),
(802,82,o),
(802,227,cs),
(802,373,o),
(692,424,o),
(572,424,cs),
(339,424,l),
(339,425,l),
(413,436,o),
(467,498,o),
(467,582,cs),
(467,724,l),
(911,724,l),
(911,740,l),
(-35,740,l)
);
}
);
width = 876;
}
);
note = dvUU;
unicode = 2314;
},
{
glyphname = dvvR;
layers = (
{
layerId = m01;
shapes = (
{
closed = 1;
nodes = (
(518,0,l),
(535,0,l),
(535,410,l),
(743,410,ls),
(796,410,o),
(829,428,o),
(847,456,c),
(847,257,l),
(747,257,o),
(689,188,o),
(689,104,cs),
(689,-1,o),
(764,-46,o),
(847,-46,cs),
(868,-46,o),
(893,-41,o),
(905,-36,c),
(905,-20,l),
(892,-25,o),
(869,-30,o),
(847,-30,cs),
(772,-30,o),
(706,7,o),
(706,104,cs),
(706,179,o),
(758,241,o),
(852,241,cs),
(864,241,l),
(864,598,l),
(847,598,l),
(847,520,ls),
(847,466,o),
(822,426,o),
(744,426,cs),
(535,426,l),
(535,724,l),
(1029,724,l),
(1029,740,l),
(-35,740,l),
(-35,724,l),
(518,724,l),
(518,463,l),
(489,542,o),
(418,596,o),
(315,596,cs),
(182,596,o),
(80,503,o),
(80,352,c),
(97,352,l),
(97,494,o),
(191,580,o),
(317,580,cs),
(431,580,o),
(507,502,o),
(517,400,c),
(149,4,l),
(149,0,l),
(167,0,l),
(518,377,l),
(518,377,l)
);
}
);
width = 994;
}
);
note = dvvR;
unicode = 2315;
},
{
glyphname = dvvRR;
layers = (
{
layerId = m01;
shapes = (
{
closed = 1;
nodes = (
(518,0,l),
(535,0,l),
(535,410,l),
(743,410,ls),
(796,410,o),
(829,428,o),
(847,456,c),
(847,257,l),
(820,257,ls),
(753,257,o),
(689,226,o),
(689,144,cs),
(689,88,o),
(722,54,o),
(771,42,c),
(771,40,l),
(728,31,o),
(689,-3,o),
(689,-64,cs),
(689,-142,o),
(752,-175,o),
(827,-175,cs),
(865,-175,o),
(902,-167,o),
(921,-159,c),
(921,-143,l),
(901,-151,o),
(863,-159,o),
(827,-159,cs),
(760,-159,o),
(706,-132,o),
(706,-64,cs),
(706,9,o),
(763,33,o),
(820,33,cs),
(864,33,l),
(864,49,l),
(827,49,ls),
(760,49,o),
(706,76,o),
(706,144,cs),
(706,217,o),
(763,241,o),
(820,241,cs),
(864,241,l),
(864,598,l),
(847,598,l),
(847,520,ls),
(847,466,o),
(822,426,o),
(744,426,cs),
(535,426,l),
(535,724,l),
(1029,724,l),
(1029,740,l),
(-35,740,l),
(-35,724,l),
(518,724,l),
(518,463,l),
(489,542,o),
(418,596,o),
(315,596,cs),
(182,596,o),
(80,503,o),
(80,352,c),
(97,352,l),
(97,494,o),
(191,580,o),
(317,580,cs),
(431,580,o),
(507,502,o),
(517,400,c),
(149,4,l),
(149,0,l),
(167,0,l),
(518,377,l),
(518,377,l)
);
}
);
width = 929;
}
);
note = dvvRR;
unicode = 2400;
},
{
glyphname = dvvL;
layers = (
{
layerId = m01;
shapes = (
{
closed = 1;
nodes = (
(-35,724,l),
(619,724,l),
(619,560,l),
(504,555,o),
(460,463,o),
(449,387,c),
(447,387,l),
(437,464,o),
(390,560,o),
(276,560,cs),
(151,560,o),
(85,467,o),
(85,341,cs),
(85,208,o),
(158,104,o),
(305,104,cs),
(316,104,o),
(327,105,o),
(338,106,c),
(338,123,l),
(327,122,o),
(317,121,o),
(307,121,cs),
(169,121,o),
(102,217,o),
(102,341,cs),
(102,456,o),
(160,544,o),
(276,544,cs),
(383,544,o),
(439,448,o),
(439,303,cs),
(439,295,l),
(456,295,l),
(456,303,ls),
(456,451,o),
(515,544,o),
(628,544,cs),
(739,544,o),
(793,452,o),
(793,341,cs),
(793,311,o),
(789,283,o),
(781,257,c),
(681,257,o),
(623,188,o),
(623,104,cs),
(623,-1,o),
(698,-46,o),
(781,-46,cs),
(802,-46,o),
(827,-41,o),
(839,-36,c),
(839,-20,l),
(826,-25,o),
(803,-30,o),
(781,-30,cs),
(706,-30,o),
(640,7,o),
(640,104,cs),
(640,179,o),
(692,241,o),
(786,241,cs),
(794,241,l),
(805,271,o),
(810,305,o),
(810,341,cs),
(810,461,o),
(751,556,o),
(636,560,c),
(636,724,l),
(930,724,l),
(930,740,l),
(-35,740,l)
);
}
);
width = 895;
}
);
note = dvvL;
unicode = 2316;
},
{
glyphname = dvvLL;
layers = (
{
layerId = m01;
shapes = (
{
closed = 1;
nodes = (
(-35,724,l),
(619,724,l),
(619,560,l),
(504,555,o),
(460,463,o),
(449,387,c),
(447,387,l),
(437,464,o),
(390,560,o),
(276,560,cs),
(151,560,o),
(85,467,o),
(85,341,cs),
(85,208,o),
(158,104,o),
(305,104,cs),
(316,104,o),
(327,105,o),
(338,106,c),
(338,123,l),
(327,122,o),
(317,121,o),
(307,121,cs),
(169,121,o),
(102,217,o),
(102,341,cs),
(102,456,o),
(160,544,o),
(276,544,cs),
(383,544,o),
(439,448,o),
(439,303,cs),
(439,295,l),
(456,295,l),
(456,303,ls),
(456,451,o),
(515,544,o),
(628,544,cs),
(739,544,o),
(793,452,o),
(793,341,cs),
(793,311,o),
(789,283,o),
(781,257,c),
(750,257,ls),
(683,257,o),
(619,226,o),
(619,144,cs),
(619,88,o),
(652,54,o),
(701,42,c),
(701,40,l),
(659,31,o),
(619,-3,o),
(619,-63,cs),
(619,-142,o),
(682,-175,o),
(757,-175,cs),
(795,-175,o),
(832,-167,o),
(851,-159,c),
(851,-143,l),
(831,-151,o),
(793,-159,o),
(757,-159,cs),
(690,-159,o),
(636,-132,o),
(636,-64,cs),
(636,9,o),
(693,33,o),
(750,33,cs),
(794,33,l),
(794,49,l),
(757,49,ls),
(690,49,o),
(636,76,o),
(636,144,cs),
(636,217,o),
(693,241,o),
(750,241,cs),
(794,241,l),
(805,271,o),
(810,305,o),
(810,341,cs),
(810,461,o),
(751,556,o),
(636,560,c),
(636,724,l),
(930,724,l),
(930,740,l),
(-35,740,l)
);
}
);
width = 903;
}
);
note = dvvLL;
unicode = 2401;
},
{
glyphname = dvE;
layers = (
{
layerId = m01;
shapes = (
{
closed = 1;
nodes = (
(-35,724,l),
(120,724,l),
(120,278,ls),
(120,123,o),
(190,19,o),
(350,19,cs),
(491,19,o),
(569,106,o),
(569,250,c),
(552,250,l),
(552,114,o),
(479,35,o),
(350,35,cs),
(203,35,o),
(137,131,o),
(137,278,cs),
(137,724,l),
(535,724,l),
(535,576,ls),
(535,442,o),
(490,390,o),
(373,398,c),
(373,382,l),
(501,374,o),
(552,430,o),
(552,576,cs),
(552,724,l),
(686,724,l),
(686,740,l),
(-35,740,l)
);
}
);
width = 651;
}
);
note = dvE;
unicode = 2319;
},
{
glyphname = dvAI;
layers = (
{
layerId = m01;
shapes = (
{
closed = 1;
nodes = (
(491,19,o),
(569,106,o),
(569,250,c),
(552,250,l),
(552,114,o),
(479,35,o),
(350,35,cs),
(203,35,o),
(137,131,o),
(137,278,cs),
(137,724,l),
(535,724,l),
(535,576,ls),
(535,442,o),
(490,390,o),
(373,398,c),
(373,382,l),
(501,374,o),
(552,430,o),
(552,576,cs),
(552,724,l),
(686,724,l),
(686,740,l),
(551,740,l),
(418,955,o),
(371,964,o),
(260,964,cs),
(228,964,l),
(228,948,l),
(260,948,ls),
(365,948,o),
(408,938,o),
(533,740,c),
(-35,740,l),
(-35,724,l),
(120,724,l),
(120,278,ls),
(120,123,o),
(190,19,o),
(350,19,cs)
);
}
);
width = 651;
}
);
note = dvAI;
unicode = 2320;
},
{
glyphname = dvO;
layers = (
{
layerId = m01;
shapes = (
{
closed = 1;
nodes = (
(690,0,l),
(690,724,l),
(944,724,l),
(944,0,l),
(961,0,l),
(961,724,l),
(1123,724,l),
(1123,740,l),
(960,740,l),
(827,955,o),
(780,964,o),
(669,964,cs),
(637,964,l),
(637,948,l),
(669,948,ls),
(774,948,o),
(817,938,o),
(942,740,c),
(673,740,l),
(673,401,l),
(397,401,l),
(381,409,o),
(364,414,o),
(344,416,c),
(344,417,l),
(437,433,o),
(480,497,o),
(480,576,cs),
(480,682,o),
(398,749,o),
(292,749,cs),
(182,749,o),
(95,686,o),
(95,577,c),
(112,577,l),
(111,675,o),
(193,733,o),
(292,733,cs),
(385,733,o),
(463,675,o),
(463,572,cs),
(463,504,o),
(413,424,o),
(294,424,cs),
(260,424,l),
(260,408,l),
(294,408,ls),
(429,408,o),
(477,316,o),
(477,238,cs),
(477,135,o),
(406,64,o),
(295,64,cs),
(185,64,o),
(103,137,o),
(103,244,c),
(86,244,l),
(86,127,o),
(177,48,o),
(296,48,cs),
(416,48,o),
(494,124,o),
(494,238,cs),
(494,297,o),
(469,353,o),
(423,386,c),
(673,385,l),
(673,0,l)
);
}
);
width = 1088;
}
);
note = dvO;
unicode = 2323;
},
{
glyphname = dvAU;
layers = (
{
layerId = m01;
shapes = (
{
closed = 1;
nodes = (
(690,0,l),
(690,724,l),
(944,724,l),
(944,0,l),
(961,0,l),
(961,724,l),
(1123,724,l),
(1123,740,l),
(960,740,l),
(827,1003,o),
(780,1014,o),
(669,1014,cs),
(637,1014,l),
(637,998,l),
(669,998,ls),
(771,998,o),
(815,987,o),
(934,764,c),
(820,870,o),
(772,874,o),
(669,874,cs),
(637,874,l),
(637,858,l),
(669,858,ls),
(774,858,o),
(820,852,o),
(943,740,c),
(673,740,l),
(673,401,l),
(397,401,l),
(381,409,o),
(364,414,o),
(344,416,c),
(344,417,l),
(437,433,o),
(480,497,o),
(480,576,cs),
(480,682,o),
(398,749,o),
(292,749,cs),
(182,749,o),
(95,686,o),
(95,577,c),
(112,577,l),
(111,675,o),
(193,733,o),
(292,733,cs),
(385,733,o),
(463,675,o),
(463,572,cs),
(463,504,o),
(413,424,o),
(294,424,cs),
(260,424,l),
(260,408,l),
(294,408,ls),
(429,408,o),
(477,316,o),
(477,238,cs),
(477,135,o),
(406,64,o),
(295,64,cs),
(185,64,o),
(103,137,o),
(103,244,c),
(86,244,l),
(86,127,o),
(177,48,o),
(296,48,cs),
(416,48,o),
(494,124,o),
(494,238,cs),
(494,297,o),
(469,353,o),
(423,386,c),
(673,385,l),
(673,0,l)
);
}
);
width = 1088;
}
);
note = dvAU;
unicode = 2324;
},
{
glyphname = dvEcandra;
layers = (
{
layerId = m01;
shapes = (
{
closed = 1;
nodes = (
(-35,724,l),
(120,724,l),
(120,278,ls),
(120,123,o),
(190,19,o),
(350,19,cs),
(491,19,o),
(569,106,o),
(569,250,c),
(552,250,l),
(552,114,o),
(479,35,o),
(350,35,cs),
(203,35,o),
(137,131,o),
(137,278,cs),
(137,724,l),
(535,724,l),
(535,576,ls),
(535,442,o),
(490,390,o),
(373,398,c),
(373,382,l),
(501,374,o),
(552,430,o),
(552,576,cs),
(552,724,l),
(686,724,l),
(686,740,l),
(-35,740,l)
);
},
{
closed = 1;
nodes = (
(449,854,o),
(501,935,o),
(501,999,c),
(485,999,l),
(485,941,o),
(438,870,o),
(330,870,cs),
(221,870,o),
(175,941,o),
(175,999,c),
(159,999,l),
(159,935,o),
(210,854,o),
(330,854,cs)
);
}
);
width = 651;
}
);
note = dvEcandra;
unicode = 2317;
},
{
glyphname = dvAcandra;
layers = (
{
layerId = m01;
shapes = (
{
closed = 1;
nodes = (
(260,424,l),
(260,408,l),
(294,408,ls),
(429,408,o),
(477,316,o),
(477,238,cs),
(477,135,o),
(406,64,o),
(295,64,cs),
(185,64,o),
(103,137,o),
(103,244,c),
(86,244,l),
(86,127,o),
(177,48,o),
(296,48,cs),
(416,48,o),
(494,124,o),
(494,238,cs),
(494,297,o),
(469,353,o),
(423,386,c),
(673,385,l),
(673,0,l),
(690,0,l),
(690,724,l),
(852,724,l),
(852,740,l),
(673,740,l),
(673,401,l),
(397,401,l),
(381,409,o),
(364,414,o),
(344,416,c),
(344,417,l),
(437,433,o),
(480,497,o),
(480,576,cs),
(480,682,o),
(398,749,o),
(292,749,cs),
(182,749,o),
(95,686,o),
(95,577,c),
(112,577,l),
(111,675,o),
(193,733,o),
(292,733,cs),
(385,733,o),
(463,675,o),
(463,572,cs),
(463,504,o),
(413,424,o),
(294,424,cs)
);
},
{
closed = 1;
nodes = (
(809,854,o),
(861,935,o),
(861,999,c),
(845,999,l),
(845,941,o),
(798,870,o),
(690,870,cs),
(581,870,o),
(535,941,o),
(535,999,c),
(519,999,l),
(519,935,o),
(570,854,o),
(690,854,cs)
);
}
);
width = 817;
}
);
note = dvAcandra;
unicode = 2418;
},
{
glyphname = dvOcandra;
layers = (
{
layerId = m01;
shapes = (
{
closed = 1;
nodes = (
(260,424,l),
(260,408,l),
(294,408,ls),
(429,408,o),
(477,316,o),
(477,238,cs),
(477,135,o),
(406,64,o),
(295,64,cs),
(185,64,o),
(103,137,o),
(103,244,c),
(86,244,l),
(86,127,o),
(177,48,o),
(296,48,cs),
(416,48,o),
(494,124,o),
(494,238,cs),
(494,297,o),
(469,353,o),
(423,386,c),
(673,385,l),
(673,0,l),
(690,0,l),
(690,724,l),
(944,724,l),
(944,0,l),
(961,0,l),
(961,724,l),
(1123,724,l),
(1123,740,l),
(673,740,l),
(673,401,l),
(397,401,l),
(381,409,o),
(364,414,o),
(344,416,c),
(344,417,l),
(437,433,o),
(480,497,o),
(480,576,cs),
(480,682,o),
(398,749,o),
(292,749,cs),
(182,749,o),
(95,686,o),
(95,577,c),
(112,577,l),
(111,675,o),
(193,733,o),
(292,733,cs),
(385,733,o),
(463,675,o),
(463,572,cs),
(463,504,o),
(413,424,o),
(294,424,cs)
);
},
{
closed = 1;
nodes = (
(937,854,o),
(989,935,o),
(989,999,c),
(973,999,l),
(973,941,o),
(926,870,o),
(818,870,cs),
(709,870,o),
(663,941,o),
(663,999,c),
(647,999,l),
(647,935,o),
(698,854,o),
(818,854,cs)
);
}
);
width = 1088;
}
);
note = dvOcandra;
unicode = 2321;
},
{
glyphname = dvmAA;
layers = (
{
layerId = m01;
shapes = (
{
closed = 1;
nodes = (
(127,0,l),
(144,0,l),
(144,724,l),
(306,724,l),
(306,740,l),
(-35,740,l),
(-35,724,l),
(127,724,l)
);
}
);
width = 271;
}
);
note = dvmAA;
unicode = 2366;
},
{
glyphname = dvmI;
layers = (
{
layerId = m01;
shapes = (
{
closed = 1;
nodes = (
(144,724,l),
(306,724,l),
(306,740,l),
(144,740,l),
(144,745,ls),
(144,927,o),
(344,949,o),
(482,949,cs),
(618,949,o),
(819,913,o),
(819,750,cs),
(819,733,l),
(836,733,l),
(836,750,ls),
(836,923,o),
(634,965,o),
(482,965,cs),
(329,965,o),
(127,937,o),
(127,745,cs),
(127,740,l),
(-35,740,l),
(-35,724,l),
(127,724,l),
(127,0,l),
(144,0,l)
);
}
);
width = 271;
}
);
note = dvmI;
unicode = 2367;
},
{
glyphname = dvmII;
layers = (
{
layerId = m01;
shapes = (
{
closed = 1;
nodes = (
(-144,734,l),
(-127,734,l),
(-127,786,ls),
(-127,872,o),
(-95,949,o),
(1,949,cs),
(97,949,o),
(127,872,o),
(127,786,cs),
(127,740,l),
(-35,740,l),
(-35,724,l),
(127,724,l),
(127,0,l),
(144,0,l),
(144,724,l),
(306,724,l),
(306,740,l),
(144,740,l),
(144,786,ls),
(144,884,o),
(107,965,o),
(1,965,cs),
(-105,965,o),
(-144,882,o),
(-144,786,cs)
);
}
);
width = 271;
}
);
note = dvmII;
unicode = 2368;
},
{
glyphname = dvmU;
layers = (
{
layerId = m01;
shapes = (
{
closed = 1;
nodes = (
(-73,-264,o),
(-6,-208,o),
(-6,-114,cs),
(-6,-48,o),
(-51,16,o),
(-130,16,cs),
(-144,16,l),
(-144,0,l),
(-130,0,ls),
(-62,0,o),
(-23,-57,o),
(-23,-114,cs),
(-23,-201,o),
(-89,-248,o),
(-185,-248,cs),
(-292,-248,o),
(-378,-195,o),
(-372,-75,c),
(-388,-75,l),
(-394,-203,o),
(-303,-264,o),
(-185,-264,cs)
);
}
);
width = 0;
}
);
note = dvmU;
unicode = 2369;
},
{
glyphname = dvmUU;
layers = (
{
layerId = m01;
shapes = (
{
closed = 1;
nodes = (
(-149,-262,o),
(-137,-261,o),
(-124,-259,c),
(-124,-242,l),
(-138,-244,o),
(-151,-245,o),
(-163,-245,cs),
(-236,-245,o),
(-287,-198,o),
(-287,-128,cs),
(-287,-53,o),
(-231,0,o),
(-133,0,cs),
(-20,0,o),
(70,-86,o),
(70,-233,cs),
(70,-254,l),
(87,-254,l),
(87,-241,ls),
(87,-71,o),
(-13,16,o),
(-136,16,cs),
(-237,16,o),
(-304,-41,o),
(-304,-128,cs),
(-304,-211,o),
(-245,-262,o),
(-163,-262,cs)
);
}
);
width = 0;
}
);
note = dvmUU;
unicode = 2370;
},
{
glyphname = dvmvR;
layers = (
{
layerId = m01;
shapes = (
{
closed = 1;
nodes = (
(-114,-287,o),
(-86,-282,o),
(-73,-277,c),
(-73,-261,l),
(-88,-266,o),
(-113,-271,o),
(-138,-271,cs),
(-216,-271,o),
(-285,-234,o),
(-285,-137,cs),
(-285,-62,o),
(-233,0,o),
(-139,0,cs),
(-127,0,l),
(-127,16,l),
(-139,16,ls),
(-244,16,o),
(-302,-53,o),
(-302,-137,cs),
(-302,-242,o),
(-224,-287,o),
(-138,-287,cs)
);
}
);
width = 0;
}
);
note = dvmvR;
unicode = 2371;
},
{
glyphname = dvmvRR;
layers = (
{
layerId = m01;
shapes = (
{
closed = 1;
nodes = (
(-126,-416,o),
(-89,-408,o),
(-70,-400,c),
(-70,-384,l),
(-90,-392,o),
(-128,-400,o),
(-164,-400,cs),
(-231,-400,o),
(-285,-373,o),
(-285,-305,cs),
(-285,-232,o),
(-228,-208,o),
(-171,-208,cs),
(-127,-208,l),
(-127,-192,l),
(-164,-192,ls),
(-231,-192,o),
(-285,-165,o),
(-285,-97,cs),
(-285,-24,o),
(-228,0,o),
(-171,0,cs),
(-127,0,l),
(-127,16,l),
(-171,16,ls),
(-238,16,o),
(-302,-15,o),
(-302,-97,cs),
(-302,-153,o),
(-269,-187,o),
(-220,-199,c),
(-220,-201,l),
(-263,-210,o),
(-302,-244,o),
(-302,-305,cs),
(-302,-383,o),
(-239,-416,o),
(-164,-416,cs)
);
}
);
width = 0;
}
);
note = dvmvRR;
unicode = 2372;
},
{
glyphname = dvmvL;
layers = (
{
layerId = m01;
shapes = (
{
closed = 1;
nodes = (
(120,-451,o),
(136,-448,o),
(145,-445,c),
(145,-429,l),
(136,-433,o),
(120,-436,o),
(104,-436,cs),
(53,-436,o),
(3,-409,o),
(3,-342,cs),
(3,-290,o),
(41,-247,o),
(107,-247,cs),
(113,-247,l),
(121,-225,o),
(124,-201,o),
(124,-177,cs),
(124,-89,o),
(81,-20,o),
(-4,-20,cs),
(-92,-20,o),
(-124,-88,o),
(-132,-143,c),
(-134,-143,l),
(-141,-88,o),
(-174,-20,o),
(-255,-20,cs),
(-343,-20,o),
(-391,-86,o),
(-391,-177,cs),
(-391,-270,o),
(-339,-344,o),
(-235,-344,cs),
(-227,-344,o),
(-216,-343,o),
(-211,-342,c),
(-211,-327,l),
(-216,-328,o),
(-226,-329,o),
(-233,-329,cs),
(-328,-329,o),
(-375,-262,o),
(-375,-177,cs),
(-375,-96,o),
(-335,-35,o),
(-255,-35,cs),
(-180,-35,o),
(-141,-101,o),
(-141,-203,cs),
(-141,-208,l),
(-125,-208,l),
(-125,-203,ls),
(-125,-102,o),
(-85,-35,o),
(-6,-35,cs),
(73,-35,o),
(108,-98,o),
(108,-177,cs),
(108,-196,o),
(106,-215,o),
(101,-232,c),
(29,-232,o),
(-13,-281,o),
(-13,-344,cs),
(-13,-418,o),
(43,-451,o),
(104,-451,cs)
);
}
);
width = 0;
}
);
note = dvmvL;
unicode = 2402;
},
{
glyphname = dvmvLL;
layers = (
{
layerId = m01;
shapes = (
{
closed = 1;
nodes = (
(153,-517,l),
(139,-523,o),
(113,-529,o),
(87,-529,cs),
(41,-529,o),
(3,-509,o),
(3,-464,cs),
(3,-412,o),
(45,-397,o),
(85,-397,cs),
(112,-397,l),
(112,-382,l),
(87,-382,ls),
(41,-382,o),
(4,-363,o),
(4,-314,cs),
(4,-264,o),
(43,-247,o),
(81,-247,cs),
(113,-247,l),
(121,-225,o),
(124,-201,o),
(124,-177,cs),
(124,-89,o),
(81,-20,o),
(-4,-20,cs),
(-92,-20,o),
(-124,-88,o),
(-132,-143,c),
(-134,-143,l),
(-141,-88,o),
(-174,-20,o),
(-255,-20,cs),
(-343,-20,o),
(-391,-86,o),
(-391,-177,cs),
(-391,-270,o),
(-339,-344,o),
(-235,-344,cs),
(-227,-344,o),
(-216,-343,o),
(-211,-342,c),
(-211,-327,l),
(-216,-328,o),
(-226,-329,o),
(-233,-329,cs),
(-328,-329,o),
(-375,-262,o),
(-375,-177,cs),
(-375,-96,o),
(-335,-35,o),
(-255,-35,cs),
(-180,-35,o),
(-141,-101,o),
(-141,-203,cs),
(-141,-208,l),
(-125,-208,l),
(-125,-203,ls),
(-125,-102,o),
(-85,-35,o),
(-6,-35,cs),
(73,-35,o),
(108,-98,o),
(108,-177,cs),
(108,-196,o),
(106,-215,o),
(101,-232,c),
(81,-232,ls),
(33,-232,o),
(-11,-256,o),
(-11,-314,cs),
(-11,-354,o),
(11,-380,o),
(47,-389,c),
(47,-390,l),
(17,-396,o),
(-11,-420,o),
(-11,-463,cs),
(-11,-518,o),
(33,-543,o),
(87,-543,cs),
(114,-543,o),
(140,-537,o),
(153,-532,c)
);
}
);
width = 0;
}
);
note = dvmvLL;
unicode = 2403;
},
{
glyphname = dvmE;
layers = (
{
layerId = m01;
shapes = (
{
closed = 1;
nodes = (
(-126,737,l),
(-261,955,o),
(-308,964,o),
(-419,964,cs),
(-451,964,l),
(-451,948,l),
(-419,948,ls),
(-313,948,o),
(-271,938,o),
(-144,737,c)
);
}
);
width = 0;
}
);
note = dvmE;
unicode = 2375;
},
{
glyphname = dvmAI;
layers = (
{
layerId = m01;
shapes = (
{
closed = 1;
nodes = (
(-126,737,l),
(-261,1003,o),
(-308,1014,o),
(-419,1014,cs),
(-451,1014,l),
(-451,998,l),
(-419,998,ls),
(-317,998,o),
(-273,987,o),
(-154,764,c),
(-268,870,o),
(-316,874,o),
(-419,874,cs),
(-451,874,l),
(-451,858,l),
(-419,858,ls),
(-313,858,o),
(-267,852,o),
(-142,737,c)
);
}
);
width = 0;
}
);
note = dvmAI;
unicode = 2376;
},
{
glyphname = dvmO;
layers = (
{
layerId = m01;
shapes = (
{
closed = 1;
nodes = (
(144,0,l),
(144,724,l),
(306,724,l),
(306,740,l),
(143,740,l),
(10,955,o),
(-37,964,o),
(-148,964,cs),
(-180,964,l),
(-180,948,l),
(-148,948,ls),
(-43,948,o),
(0,938,o),
(125,740,c),
(-35,740,l),
(-35,724,l),
(127,724,l),
(127,0,l)
);
}
);
width = 271;
}
);
note = dvmO;
unicode = 2379;
},
{
glyphname = dvmAU;
layers = (
{
layerId = m01;
shapes = (
{
closed = 1;
nodes = (
(144,0,l),
(144,724,l),
(306,724,l),
(306,740,l),
(143,740,l),
(10,1003,o),
(-37,1014,o),
(-148,1014,cs),
(-180,1014,l),
(-180,998,l),
(-148,998,ls),
(-46,998,o),
(-2,987,o),
(117,764,c),
(3,870,o),
(-45,874,o),
(-148,874,cs),
(-180,874,l),
(-180,858,l),
(-148,858,ls),
(-43,858,o),
(3,852,o),
(126,740,c),
(-35,740,l),
(-35,724,l),
(127,724,l),
(127,0,l)
);
}
);
width = 271;
}
);
note = dvmAU;
unicode = 2380;
},
{
glyphname = dvmEcandra;
layers = (
{
layerId = m01;
shapes = (
{
closed = 1;
nodes = (
(-17,824,o),
(35,905,o),
(35,969,c),
(19,969,l),
(19,911,o),
(-28,840,o),
(-136,840,cs),
(-245,840,o),
(-291,911,o),
(-291,969,c),
(-307,969,l),
(-307,905,o),
(-256,824,o),
(-136,824,cs)
);
}
);
width = 0;
}
);
note = dvmEcandra;
unicode = 2373;
},
{
glyphname = dvmOcandra;
layers = (
{
layerId = m01;
shapes = (
{
closed = 1;
nodes = (
(127,0,l),
(144,0,l),
(144,724,l),
(306,724,l),
(306,740,l),
(-35,740,l),
(-35,724,l),
(127,724,l)
);
},
{
closed = 1;
nodes = (
(255,824,o),
(307,905,o),
(307,969,c),
(291,969,l),
(291,911,o),
(244,840,o),
(136,840,cs),
(27,840,o),
(-19,911,o),
(-19,969,c),
(-35,969,l),
(-35,905,o),
(16,824,o),
(136,824,cs)
);
}
);
width = 271;
}
);
note = dvmOcandra;
unicode = 2377;
},
{
glyphname = dvKA;
layers = (
{
layerId = m01;
shapes = (
{
closed = 1;
nodes = (
(507,0,l),
(523,0,l),
(523,351,ls),
(523,449,o),
(578,568,o),
(722,568,cs),
(828,568,o),
(919,490,o),
(919,359,cs),
(919,221,o),
(834,143,o),
(725,143,cs),
(706,143,o),
(685,145,o),
(668,149,c),
(668,133,l),
(681,130,o),
(704,127,o),
(725,127,cs),
(844,127,o),
(936,212,o),
(936,359,cs),
(936,499,o),
(838,584,o),
(722,584,cs),
(609,584,o),
(547,517,o),
(523,440,c),
(523,724,l),
(1056,724,l),
(1056,740,l),
(-35,740,l),
(-35,724,l),
(507,724,l),
(507,443,l),
(482,518,o),
(418,584,o),
(304,584,cs),
(184,584,o),
(85,499,o),
(85,359,cs),
(85,212,o),
(181,127,o),
(304,127,cs),
(416,127,o),
(482,193,o),
(507,268,c)
);
},
{
closed = 1;
nodes = (
(191,143,o),
(102,221,o),
(102,359,cs),
(102,490,o),
(194,568,o),
(304,568,cs),
(450,568,o),
(507,453,o),
(507,355,cs),
(507,354,ls),
(507,263,o),
(450,143,o),
(304,143,cs)
);
}
);
width = 1021;
}
);
note = dvKA;
unicode = 2325;
},
{
glyphname = dvKHA;
layers = (
{
layerId = m01;
shapes = (
{
closed = 1;
nodes = (
(483,175,o),
(400,244,o),
(400,366,cs),
(400,481,o),
(486,549,o),
(585,549,cs),
(714,549,o),
(765,448,o),
(765,362,cs),
(765,361,ls),
(765,280,o),
(714,175,o),
(585,175,cs)
);
},
{
closed = 1;
nodes = (
(782,0,l),
(782,724,l),
(944,724,l),
(944,740,l),
(-35,740,l),
(-35,724,l),
(293,724,l),
(293,563,ls),
(293,419,o),
(213,394,o),
(144,394,cs),
(100,394,l),
(100,214,ls),
(100,82,o),
(188,0,o),
(320,0,cs),
(436,0,o),
(508,77,o),
(538,164,c),
(553,161,o),
(569,159,o),
(585,159,cs),
(684,159,o),
(743,218,o),
(765,285,c),
(765,0,l)
);
},
{
closed = 1;
nodes = (
(196,16,o),
(117,94,o),
(117,214,cs),
(117,378,l),
(124,378,o),
(131,378,o),
(138,378,cs),
(226,378,o),
(310,410,o),
(310,563,cs),
(310,724,l),
(765,724,l),
(765,441,l),
(743,507,o),
(686,565,o),
(585,565,cs),
(474,565,o),
(383,490,o),
(383,366,cs),
(383,260,o),
(440,191,o),
(521,168,c),
(494,87,o),
(426,16,o),
(321,16,cs)
);
}
);
width = 909;
}
);
note = dvKHA;
unicode = 2326;
},
{
glyphname = dvGA;
layers = (
{
layerId = m01;
shapes = (
{
closed = 1;
nodes = (
(539,0,l),
(556,0,l),
(556,724,l),
(718,724,l),
(718,740,l),
(-35,740,l),
(-35,724,l),
(297,724,l),
(297,414,ls),
(297,353,o),
(273,289,o),
(186,289,cs),
(103,289,o),
(76,354,o),
(76,411,cs),
(76,442,l),
(59,442,l),
(59,412,ls),
(59,343,o),
(95,273,o),
(186,273,cs),
(280,273,o),
(314,340,o),
(314,414,cs),
(314,724,l),
(539,724,l)
);
}
);
width = 683;
}
);
note = dvGA;
unicode = 2327;
},
{
glyphname = dvGHA;
layers = (
{
layerId = m01;
shapes = (
{
closed = 1;
nodes = (
(208,132,o),
(115,185,o),
(115,299,cs),
(115,382,o),
(172,451,o),
(314,451,cs),
(368,451,l),
(368,467,l),
(314,467,ls),
(188,467,o),
(136,521,o),
(136,622,cs),
(136,724,l),
(577,724,l),
(577,364,ls),
(577,227,o),
(466,132,o),
(329,132,cs)
);
},
{
closed = 1;
nodes = (
(-35,724,l),
(119,724,l),
(119,622,ls),
(119,513,o),
(181,468,o),
(254,460,c),
(254,458,l),
(171,451,o),
(98,395,o),
(98,299,cs),
(98,178,o),
(192,116,o),
(329,116,cs),
(449,116,o),
(542,180,o),
(577,276,c),
(577,0,l),
(594,0,l),
(594,724,l),
(756,724,l),
(756,740,l),
(-35,740,l)
);
}
);
width = 721;
}
);
note = dvGHA;
unicode = 2328;
},
{
glyphname = dvNGA;
layers = (
{
layerId = m01;
shapes = (
{
closed = 1;
nodes = (
(583,391,o),
(593,401,o),
(593,415,cs),
(593,429,o),
(583,439,o),
(569,439,cs),
(554,439,o),
(544,429,o),
(544,415,cs),
(544,401,o),
(554,391,o),
(569,391,cs)
);
},
{
closed = 1;
nodes = (
(-35,724,l),
(444,724,l),
(444,562,l),
(284,562,ls),
(201,562,o),
(105,535,o),
(105,429,cs),
(105,338,o),
(178,298,o),
(270,298,cs),
(315,298,ls),
(404,298,o),
(503,268,o),
(503,150,cs),
(503,72,o),
(446,7,o),
(322,7,cs),
(172,7,o),
(105,88,o),
(105,184,c),
(88,184,l),
(88,75,o),
(167,-9,o),
(322,-9,cs),
(455,-9,o),
(520,62,o),
(520,150,cs),
(520,276,o),
(416,314,o),
(316,314,cs),
(271,314,ls),
(194,314,o),
(122,343,o),
(122,429,cs),
(122,528,o),
(216,546,o),
(292,546,cs),
(461,546,l),
(461,724,l),
(657,724,l),
(657,740,l),
(-35,740,l)
);
}
);
width = 622;
}
);
note = dvNGA;
unicode = 2329;
},
{
glyphname = dvCA;
layers = (
{
layerId = m01;
shapes = (
{
closed = 1;
nodes = (
(-35,724,l),
(574,724,l),
(574,333,ls),
(574,227,o),
(485,131,o),
(365,131,cs),
(258,131,o),
(164,200,o),
(164,324,cs),
(164,436,o),
(244,525,o),
(377,525,cs),
(406,525,l),
(406,541,l),
(49,541,l),
(49,525,l),
(290,525,l),
(200,496,o),
(147,421,o),
(147,324,cs),
(147,190,o),
(248,115,o),
(366,115,cs),
(464,115,o),
(543,174,o),
(574,253,c),
(574,0,l),
(591,0,l),
(591,724,l),
(753,724,l),
(753,740,l),
(-35,740,l)
);
}
);
width = 718;
}
);
note = dvCA;
unicode = 2330;
},
{
glyphname = dvCHA;
layers = (
{
layerId = m01;
shapes = (
{
closed = 1;
nodes = (
(-35,724,l),
(114,724,l),
(114,589,ls),
(114,480,o),
(176,435,o),
(249,427,c),
(249,425,l),
(161,417,o),
(84,359,o),
(84,251,cs),
(84,110,o),
(210,33,o),
(394,33,cs),
(602,33,o),
(761,152,o),
(761,356,cs),
(761,494,o),
(682,557,o),
(600,561,c),
(600,724,l),
(846,724,l),
(846,740,l),
(-35,740,l)
);
},
{
closed = 1;
nodes = (
(227,49,o),
(101,116,o),
(101,251,cs),
(101,342,o),
(161,418,o),
(309,418,cs),
(333,418,l),
(333,434,l),
(309,434,ls),
(183,434,o),
(131,488,o),
(131,589,cs),
(131,724,l),
(583,724,l),
(583,561,l),
(511,558,o),
(431,516,o),
(431,397,cs),
(431,365,o),
(437,329,o),
(451,290,c),
(468,290,l),
(455,329,o),
(448,365,o),
(448,397,cs),
(448,510,o),
(529,545,o),
(591,545,cs),
(664,545,o),
(744,488,o),
(744,355,cs),
(744,167,o),
(589,49,o),
(394,49,cs)
);
}
);
width = 811;
}
);
note = dvCHA;
unicode = 2331;
},
{
glyphname = dvJA;
layers = (
{
layerId = m01;
shapes = (
{
closed = 1;
nodes = (
(-35,724,l),
(679,724,l),
(679,509,l),
(405,509,l),
(405,339,ls),
(405,243,o),
(348,175,o),
(256,175,cs),
(168,175,o),
(113,243,o),
(113,339,cs),
(113,509,l),
(96,509,l),
(96,340,ls),
(96,234,o),
(156,159,o),
(255,159,cs),
(359,159,o),
(422,234,o),
(422,340,cs),
(422,493,l),
(679,493,l),
(679,0,l),
(696,0,l),
(696,724,l),
(858,724,l),
(858,740,l),
(-35,740,l)
);
}
);
width = 823;
}
);
note = dvJA;
unicode = 2332;
},
{
glyphname = dvJHA;
layers = (
{
layerId = m01;
shapes = (
{
closed = 1;
nodes = (
(687,724,l),
(687,314,l),
(271,314,ls),
(192,314,o),
(119,343,o),
(119,429,cs),
(119,528,o),
(215,546,o),
(292,546,cs),
(461,546,l),
(461,724,l)
);
},
{
closed = 1;
nodes = (
(687,0,l),
(704,0,l),
(704,724,l),
(866,724,l),
(866,740,l),
(-35,740,l),
(-35,724,l),
(444,724,l),
(444,562,l),
(284,562,ls),
(200,562,o),
(102,535,o),
(102,429,cs),
(102,338,o),
(178,298,o),
(270,298,cs),
(315,298,ls),
(436,298,o),
(503,242,o),
(503,150,cs),
(503,80,o),
(456,16,o),
(342,16,cs),
(210,16,o),
(145,92,o),
(131,173,c),
(116,173,l),
(116,-71,l),
(133,-71,l),
(133,117,l),
(143,88,o),
(196,0,o),
(341,0,cs),
(466,0,o),
(520,70,o),
(520,150,cs),
(520,239,o),
(467,284,o),
(403,300,c),
(687,299,l)
);
}
);
width = 831;
}
);
note = dvJHA;
unicode = 2333;
},
{
glyphname = dvNYA;
layers = (
{
layerId = m01;
shapes = (
{
closed = 1;
nodes = (
(-35,724,l),
(643,724,l),
(643,363,l),
(513,363,l),
(509,473,o),
(442,583,o),
(294,583,cs),
(157,583,o),
(101,497,o),
(85,428,c),
(102,428,l),
(116,489,o),
(170,567,o),
(294,567,cs),
(430,567,o),
(496,465,o),
(496,354,cs),
(496,239,o),
(430,138,o),
(294,138,cs),
(174,138,o),
(119,213,o),
(102,276,c),
(85,276,l),
(103,208,o),
(160,121,o),
(294,121,cs),
(443,121,o),
(510,233,o),
(513,347,c),
(643,347,l),
(643,0,l),
(660,0,l),
(660,724,l),
(822,724,l),
(822,740,l),
(-35,740,l)
);
}
);
width = 787;
}
);
note = dvNYA;
unicode = 2334;
},
{
glyphname = dvTTA;
layers = (
{
layerId = m01;
shapes = (
{
closed = 1;
nodes = (
(-35,724,l),
(424,724,l),
(424,573,l),
(373,573,ls),
(212,573,o),
(85,492,o),
(85,311,cs),
(85,166,o),
(194,63,o),
(340,63,cs),
(491,63,o),
(594,169,o),
(594,320,c),
(577,320,l),
(577,179,o),
(479,79,o),
(340,79,cs),
(204,79,o),
(102,176,o),
(102,312,cs),
(102,479,o),
(220,557,o),
(373,557,cs),
(441,557,l),
(441,724,l),
(689,724,l),
(689,740,l),
(-35,740,l)
);
}
);
width = 654;
}
);
note = dvTTA;
unicode = 2335;
},
{
glyphname = dvTTHA;
layers = (
{
layerId = m01;
shapes = (
{
closed = 1;
nodes = (
(204,79,o),
(102,176,o),
(102,311,cs),
(102,447,o),
(204,543,o),
(340,543,cs),
(476,543,o),
(578,447,o),
(578,311,cs),
(578,176,o),
(476,79,o),
(340,79,cs)
);
},
{
closed = 1;
nodes = (
(486,63,o),
(595,166,o),
(595,311,cs),
(595,453,o),
(490,555,o),
(348,559,c),
(348,724,l),
(715,724,l),
(715,740,l),
(-35,740,l),
(-35,724,l),
(331,724,l),
(331,559,l),
(190,555,o),
(85,453,o),
(85,311,cs),
(85,166,o),
(194,63,o),
(340,63,cs)
);
}
);
width = 680;
}
);
note = dvTTHA;
unicode = 2336;
},
{
glyphname = dvDDA;
layers = (
{
layerId = m01;
shapes = (
{
closed = 1;
nodes = (
(-35,724,l),
(436,724,l),
(436,562,l),
(284,562,ls),
(201,562,o),
(105,535,o),
(105,429,cs),
(105,338,o),
(178,298,o),
(270,298,cs),
(315,298,ls),
(404,298,o),
(503,268,o),
(503,150,cs),
(503,72,o),
(446,7,o),
(322,7,cs),
(172,7,o),
(105,88,o),
(105,184,c),
(88,184,l),
(88,75,o),
(167,-9,o),
(322,-9,cs),
(455,-9,o),
(520,62,o),
(520,150,cs),
(520,276,o),
(416,314,o),
(316,314,cs),
(271,314,ls),
(194,314,o),
(122,343,o),
(122,429,cs),
(122,528,o),
(216,546,o),
(292,546,cs),
(453,546,l),
(453,724,l),
(617,724,l),
(617,740,l),
(-35,740,l)
);
}
);
width = 582;
}
);
note = dvDDA;
unicode = 2337;
},
{
glyphname = dvDDHA;
layers = (
{
layerId = m01;
shapes = (
{
closed = 1;
nodes = (
(-35,724,l),
(442,724,l),
(442,573,l),
(383,573,ls),
(216,573,o),
(85,487,o),
(85,294,cs),
(85,133,o),
(206,23,o),
(367,23,cs),
(497,23,o),
(586,102,o),
(586,211,cs),
(586,304,o),
(523,371,o),
(429,371,cs),
(351,371,o),
(285,319,o),
(285,233,cs),
(285,226,o),
(286,216,o),
(287,210,c),
(304,210,l),
(303,216,o),
(302,225,o),
(302,232,cs),
(302,308,o),
(362,355,o),
(429,355,cs),
(511,355,o),
(569,294,o),
(569,211,cs),
(569,112,o),
(485,39,o),
(367,39,cs),
(216,39,o),
(102,143,o),
(102,295,cs),
(102,474,o),
(224,557,o),
(383,557,cs),
(459,557,l),
(459,724,l),
(663,724,l),
(663,740,l),
(-35,740,l)
);
}
);
width = 628;
}
);
note = dvDDHA;
unicode = 2338;
},
{
glyphname = dvNNA;
layers = (
{
layerId = m01;
shapes = (
{
closed = 1;
nodes = (
(173,234,o),
(117,302,o),
(117,398,cs),
(117,724,l),
(409,724,l),
(409,398,ls),
(409,302,o),
(355,234,o),
(263,234,cs)
);
},
{
closed = 1;
nodes = (
(-35,724,l),
(100,724,l),
(100,399,ls),
(100,293,o),
(161,218,o),
(262,218,cs),
(366,218,o),
(426,293,o),
(426,399,cs),
(426,724,l),
(676,724,l),
(676,0,l),
(693,0,l),
(693,724,l),
(855,724,l),
(855,740,l),
(-35,740,l)
);
}
);
width = 820;
}
);
note = dvNNA;
unicode = 2339;
},
{
glyphname = dvTA;
layers = (
{
layerId = m01;
shapes = (
{
closed = 1;
nodes = (
(-35,724,l),
(537,724,l),
(537,503,l),
(371,503,ls),
(198,503,o),
(85,426,o),
(85,253,cs),
(85,94,o),
(181,2,o),
(345,2,cs),
(369,2,l),
(369,18,l),
(345,18,ls),
(190,18,o),
(102,103,o),
(102,253,cs),
(102,414,o),
(208,487,o),
(371,487,cs),
(537,487,l),
(537,0,l),
(554,0,l),
(554,724,l),
(716,724,l),
(716,740,l),
(-35,740,l)
);
}
);
width = 681;
}
);
note = dvTA;
unicode = 2340;
},
{
glyphname = dvTHA;
layers = (
{
layerId = m01;
shapes = (
{
closed = 1;
nodes = (
(597,0,l),
(614,0,l),
(614,724,l),
(776,724,l),
(776,740,l),
(597,740,l),
(597,343,ls),
(597,215,o),
(488,130,o),
(362,130,cs),
(198,130,o),
(110,231,o),
(117,395,c),
(210,395,ls),
(330,395,o),
(452,434,o),
(452,581,cs),
(452,674,o),
(389,749,o),
(285,749,cs),
(178,749,o),
(112,678,o),
(112,577,cs),
(112,560,o),
(114,540,o),
(117,525,c),
(134,525,l),
(131,542,o),
(129,559,o),
(129,575,cs),
(129,668,o),
(186,733,o),
(285,733,cs),
(380,733,o),
(435,665,o),
(435,581,cs),
(435,439,o),
(310,411,o),
(210,411,cs),
(102,411,l),
(101,399,o),
(100,387,o),
(100,376,cs),
(100,217,o),
(194,114,o),
(361,114,cs),
(496,114,o),
(574,193,o),
(597,264,c)
);
}
);
width = 741;
}
);
note = dvTHA;
unicode = 2341;
},
{
glyphname = dvDA;
layers = (
{
layerId = m01;
shapes = (
{
closed = 1;
nodes = (
(-35,724,l),
(454,724,l),
(454,588,l),
(350,588,ls),
(209,588,o),
(85,515,o),
(85,355,cs),
(85,221,o),
(170,129,o),
(311,129,cs),
(401,129,o),
(476,177,o),
(499,240,c),
(499,0,l),
(516,0,l),
(516,321,l),
(501,321,l),
(501,193,o),
(393,145,o),
(313,145,cs),
(184,145,o),
(102,228,o),
(102,355,cs),
(102,502,o),
(217,572,o),
(350,572,cs),
(471,572,l),
(471,724,l),
(642,724,l),
(642,740,l),
(-35,740,l)
);
}
);
width = 607;
}
);
note = dvDA;
unicode = 2342;
},
{
glyphname = dvDHA;
layers = (
{
layerId = m01;
shapes = (
{
closed = 1;
nodes = (
(426,116,o),
(516,179,o),
(550,275,c),
(550,0,l),
(567,0,l),
(567,724,l),
(729,724,l),
(729,740,l),
(550,740,l),
(550,364,ls),
(550,227,o),
(443,132,o),
(312,132,cs),
(209,132,o),
(120,180,o),
(120,284,cs),
(120,361,o),
(172,424,o),
(291,424,cs),
(345,424,l),
(345,440,l),
(291,440,ls),
(173,440,o),
(115,504,o),
(115,593,cs),
(115,671,o),
(166,733,o),
(254,733,cs),
(343,733,o),
(390,671,o),
(390,601,cs),
(390,596,o),
(390,587,o),
(389,573,c),
(406,573,l),
(407,585,o),
(407,595,o),
(407,600,cs),
(407,687,o),
(349,749,o),
(254,749,cs),
(158,749,o),
(98,681,o),
(98,594,cs),
(98,495,o),
(163,444,o),
(231,432,c),
(231,430,l),
(166,424,o),
(103,372,o),
(103,284,cs),
(103,173,o),
(194,116,o),
(312,116,cs)
);
}
);
width = 694;
}
);
note = dvDHA;
unicode = 2343;
},
{
glyphname = dvNA;
layers = (
{
layerId = m01;
shapes = (
{
closed = 1;
nodes = (
(159,176,o),
(92,241,o),
(92,334,cs),
(92,430,o),
(161,495,o),
(259,495,cs),
(354,495,o),
(422,429,o),
(422,336,cs),
(422,242,o),
(354,176,o),
(259,176,cs)
);
},
{
closed = 1;
nodes = (
(-35,724,l),
(616,724,l),
(616,511,l),
(261,511,ls),
(150,511,o),
(75,440,o),
(75,334,cs),
(75,233,o),
(147,160,o),
(259,160,cs),
(365,160,o),
(439,233,o),
(439,336,cs),
(439,418,o),
(389,477,o),
(329,496,c),
(616,496,l),
(616,0,l),
(633,0,l),
(633,724,l),
(795,724,l),
(795,740,l),
(-35,740,l)
);
}
);
width = 760;
}
);
note = dvNA;
unicode = 2344;
},
{
glyphname = dvPA;
layers = (
{
layerId = m01;
shapes = (
{
closed = 1;
nodes = (
(176,247,o),
(117,330,o),
(117,469,cs),
(117,724,l),
(491,724,l),
(491,435,ls),
(491,333,o),
(425,247,o),
(307,247,cs)
);
},
{
closed = 1;
nodes = (
(-35,724,l),
(100,724,l),
(100,469,ls),
(100,320,o),
(168,231,o),
(306,231,cs),
(399,231,o),
(464,279,o),
(491,352,c),
(491,0,l),
(508,0,l),
(508,724,l),
(670,724,l),
(670,740,l),
(-35,740,l)
);
}
);
width = 635;
}
);
note = dvPA;
unicode = 2346;
},
{
glyphname = dvPHA;
layers = (
{
layerId = m01;
shapes = (
{
closed = 1;
nodes = (
(173,247,o),
(117,330,o),
(117,469,cs),
(117,724,l),
(471,724,l),
(471,435,ls),
(471,333,o),
(409,247,o),
(297,247,cs)
);
},
{
closed = 1;
nodes = (
(-35,724,l),
(100,724,l),
(100,469,ls),
(100,320,o),
(165,231,o),
(296,231,cs),
(385,231,o),
(446,279,o),
(471,352,c),
(471,0,l),
(488,0,l),
(488,351,ls),
(488,449,o),
(543,568,o),
(687,568,cs),
(793,568,o),
(884,490,o),
(884,359,cs),
(884,221,o),
(799,143,o),
(690,143,cs),
(671,143,o),
(650,145,o),
(633,149,c),
(633,133,l),
(646,130,o),
(669,127,o),
(690,127,cs),
(809,127,o),
(901,212,o),
(901,359,cs),
(901,499,o),
(803,584,o),
(687,584,cs),
(573,584,o),
(511,515,o),
(488,438,c),
(488,724,l),
(1021,724,l),
(1021,740,l),
(-35,740,l)
);
}
);
width = 986;
}
);
note = dvPHA;
unicode = 2347;
},
{
glyphname = dvBA;
layers = (
{
layerId = m01;
shapes = (
{
closed = 1;
nodes = (
(546,0,l),
(563,0,l),
(563,724,l),
(725,724,l),
(725,740,l),
(-35,740,l),
(-35,724,l),
(546,724,l),
(546,444,l),
(518,523,o),
(444,593,o),
(324,593,cs),
(192,593,o),
(85,502,o),
(85,353,cs),
(85,207,o),
(196,120,o),
(327,120,cs),
(445,120,o),
(518,188,o),
(546,265,c)
);
},
{
closed = 1;
nodes = (
(477,577,o),
(546,458,o),
(546,355,cs),
(546,307,o),
(529,251,o),
(492,207,c),
(169,519,l),
(209,557,o),
(264,577,o),
(324,577,cs)
);
},
{
closed = 1;
nodes = (
(205,136,o),
(102,215,o),
(102,353,cs),
(102,418,o),
(123,470,o),
(158,508,c),
(482,196,l),
(446,160,o),
(396,136,o),
(327,136,cs)
);
}
);
width = 690;
}
);
note = dvBA;
unicode = 2348;
},
{
glyphname = dvBHA;
layers = (
{
layerId = m01;
shapes = (
{
closed = 1;
nodes = (
(170,152,o),
(112,207,o),
(112,290,cs),
(112,375,o),
(173,429,o),
(260,429,cs),
(382,429,l),
(382,324,ls),
(382,214,o),
(331,152,o),
(249,152,cs)
);
},
{
closed = 1;
nodes = (
(341,136,o),
(399,198,o),
(399,325,cs),
(399,429,l),
(599,429,l),
(599,0,l),
(616,0,l),
(616,724,l),
(778,724,l),
(778,740,l),
(599,740,l),
(599,445,l),
(399,445,l),
(399,557,ls),
(399,676,o),
(353,749,o),
(256,749,cs),
(174,749,o),
(115,690,o),
(115,592,cs),
(115,578,o),
(117,563,o),
(119,548,c),
(136,548,l),
(133,564,o),
(132,578,o),
(132,592,cs),
(132,681,o),
(184,732,o),
(256,732,cs),
(344,732,o),
(382,664,o),
(382,556,cs),
(382,445,l),
(260,445,ls),
(162,445,o),
(95,384,o),
(95,290,cs),
(95,199,o),
(156,136,o),
(249,136,cs)
);
}
);
width = 743;
}
);
note = dvBHA;
unicode = 2349;
},
{
glyphname = dvMA;
layers = (
{
layerId = m01;
shapes = (
{
closed = 1;
nodes = (
(130,152,o),
(72,207,o),
(72,290,cs),
(72,375,o),
(133,429,o),
(220,429,cs),
(342,429,l),
(342,324,ls),
(342,214,o),
(291,152,o),
(209,152,cs)
);
},
{
closed = 1;
nodes = (
(591,445,l),
(359,445,l),
(359,724,l),
(591,724,l)
);
},
{
closed = 1;
nodes = (
(-35,724,l),
(342,724,l),
(342,445,l),
(220,445,ls),
(122,445,o),
(55,384,o),
(55,290,cs),
(55,199,o),
(116,136,o),
(209,136,cs),
(301,136,o),
(359,198,o),
(359,325,cs),
(359,429,l),
(591,429,l),
(591,0,l),
(608,0,l),
(608,724,l),
(770,724,l),
(770,740,l),
(-35,740,l)
);
}
);
width = 735;
}
);
note = dvMA;
unicode = 2350;
},
{
glyphname = dvYA;
layers = (
{
layerId = m01;
shapes = (
{
closed = 1;
nodes = (
(188,154,o),
(97,253,o),
(97,420,cs),
(97,424,o),
(97,431,o),
(98,439,c),
(101,439,ls),
(229,439,o),
(325,480,o),
(325,635,cs),
(325,724,l),
(576,724,l),
(576,368,ls),
(576,238,o),
(466,154,o),
(341,154,cs)
);
},
{
closed = 1;
nodes = (
(-35,724,l),
(308,724,l),
(308,635,ls),
(308,486,o),
(213,455,o),
(101,455,cs),
(83,455,l),
(82,445,o),
(81,431,o),
(81,420,cs),
(81,249,o),
(174,138,o),
(340,138,cs),
(473,138,o),
(552,216,o),
(576,285,c),
(576,0,l),
(593,0,l),
(593,724,l),
(755,724,l),
(755,740,l),
(-35,740,l)
);
}
);
width = 720;
}
);
note = dvYA;
unicode = 2351;
},
{
glyphname = dvRA;
layers = (
{
layerId = m01;
shapes = (
{
closed = 1;
nodes = (
(-35,724,l),
(407,724,l),
(407,591,ls),
(407,452,o),
(330,390,o),
(210,390,cs),
(100,390,l),
(100,205,ls),
(100,78,o),
(159,-9,o),
(279,-9,cs),
(389,-9,o),
(458,68,o),
(458,188,cs),
(458,199,l),
(441,199,l),
(441,188,ls),
(441,79,o),
(379,7,o),
(279,7,cs),
(169,7,o),
(117,89,o),
(117,204,cs),
(117,374,l),
(210,374,ls),
(340,374,o),
(424,440,o),
(424,591,cs),
(424,724,l),
(574,724,l),
(574,740,l),
(-35,740,l)
);
}
);
width = 539;
}
);
note = dvRA;
unicode = 2352;
},
{
glyphname = dvLA;
layers = (
{
layerId = m01;
shapes = (
{
closed = 1;
nodes = (
(737,104,o),
(810,208,o),
(810,341,cs),
(810,461,o),
(751,556,o),
(636,560,c),
(636,724,l),
(930,724,l),
(930,740,l),
(-35,740,l),
(-35,724,l),
(619,724,l),
(619,560,l),
(504,555,o),
(460,463,o),
(449,387,c),
(447,387,l),
(437,464,o),
(390,560,o),
(276,560,cs),
(151,560,o),
(85,467,o),
(85,341,cs),
(85,208,o),
(158,104,o),
(305,104,cs),
(316,104,o),
(327,105,o),
(338,106,c),
(338,123,l),
(327,122,o),
(317,121,o),
(307,121,cs),
(169,121,o),
(102,217,o),
(102,341,cs),
(102,456,o),
(160,544,o),
(276,544,cs),
(383,544,o),
(439,448,o),
(439,303,cs),
(439,295,l),
(456,295,l),
(456,303,ls),
(456,451,o),
(515,544,o),
(628,544,cs),
(739,544,o),
(793,452,o),
(793,341,cs),
(793,217,o),
(726,121,o),
(588,121,cs),
(578,121,o),
(568,122,o),
(557,123,c),
(557,106,l),
(568,105,o),
(579,104,o),
(590,104,cs)
);
}
);
width = 895;
}
);
note = dvLA;
unicode = 2354;
},
{
glyphname = dvVA;
layers = (
{
layerId = m01;
shapes = (
{
closed = 1;
nodes = (
(197,141,o),
(102,220,o),
(102,359,cs),
(102,493,o),
(201,572,o),
(318,572,cs),
(475,572,o),
(537,455,o),
(537,355,cs),
(537,354,ls),
(537,262,o),
(475,141,o),
(318,141,cs)
);
},
{
closed = 1;
nodes = (
(716,724,l),
(716,740,l),
(-35,740,l),
(-35,724,l),
(537,724,l),
(537,441,l),
(511,519,o),
(442,588,o),
(318,588,cs),
(191,588,o),
(85,501,o),
(85,359,cs),
(85,211,o),
(187,125,o),
(318,125,cs),
(440,125,o),
(511,194,o),
(537,271,c),
(537,0,l),
(554,0,l),
(554,724,l)
);
}
);
width = 681;
}
);
note = dvVA;
unicode = 2357;
},
{
glyphname = dvSHA;
layers = (
{
layerId = m01;
shapes = (
{
closed = 1;
nodes = (
(409,-9,o),
(478,68,o),
(478,188,cs),
(478,199,l),
(461,199,l),
(461,188,ls),
(461,79,o),
(399,7,o),
(299,7,cs),
(182,7,o),
(127,89,o),
(127,204,cs),
(127,349,l),
(263,349,ls),
(394,349,o),
(490,420,o),
(490,550,cs),
(490,676,o),
(414,749,o),
(300,749,cs),
(186,749,o),
(112,672,o),
(112,553,cs),
(112,535,o),
(114,518,o),
(117,500,c),
(134,500,l),
(131,518,o),
(129,535,o),
(129,553,cs),
(129,664,o),
(198,733,o),
(300,733,cs),
(404,733,o),
(473,665,o),
(473,550,cs),
(473,431,o),
(385,365,o),
(263,365,cs),
(110,365,l),
(110,205,ls),
(110,78,o),
(172,-9,o),
(299,-9,cs)
);
},
{
closed = 1;
nodes = (
(633,0,l),
(650,0,l),
(650,724,l),
(812,724,l),
(812,740,l),
(633,740,l)
);
}
);
width = 777;
}
);
note = dvSHA;
unicode = 2358;
},
{
glyphname = dvSSA;
layers = (
{
layerId = m01;
shapes = (
{
closed = 1;
nodes = (
(176,247,o),
(117,330,o),
(117,469,cs),
(117,703,l),
(482,371,l),
(460,299,o),
(399,247,o),
(307,247,cs)
);
},
{
closed = 1;
nodes = (
(491,435,ls),
(491,419,o),
(489,403,o),
(486,388,c),
(117,724,l),
(491,724,l)
);
},
{
closed = 1;
nodes = (
(-35,724,l),
(100,724,l),
(100,469,ls),
(100,320,o),
(168,231,o),
(306,231,cs),
(399,231,o),
(464,279,o),
(491,352,c),
(491,0,l),
(508,0,l),
(508,724,l),
(670,724,l),
(670,740,l),
(-35,740,l)
);
}
);
width = 635;
}
);
note = dvSSA;
unicode = 2359;
},
{
glyphname = dvSA;
layers = (
{
layerId = m01;
shapes = (
{
closed = 1;
nodes = (
(423,724,l),
(667,724,l),
(667,409,l),
(290,409,l),
(365,430,o),
(423,497,o),
(423,611,cs)
);
},
{
closed = 1;
nodes = (
(-35,724,l),
(407,724,l),
(407,611,ls),
(407,487,o),
(330,410,o),
(210,410,cs),
(100,410,l),
(100,205,ls),
(100,78,o),
(159,-9,o),
(279,-9,cs),
(389,-9,o),
(458,68,o),
(458,188,cs),
(458,199,l),
(441,199,l),
(441,188,ls),
(441,79,o),
(379,7,o),
(279,7,cs),
(169,7,o),
(117,89,o),
(117,204,cs),
(117,394,l),
(667,394,l),
(667,0,l),
(684,0,l),
(684,724,l),
(846,724,l),
(846,740,l),
(-35,740,l)
);
}
);
width = 811;
}
);
note = dvSA;
unicode = 2360;
},
{
glyphname = dvHA;
layers = (
{
layerId = m01;
shapes = (
{
closed = 1;
nodes = (
(499,48,l),
(482,-10,o),
(421,-80,o),
(308,-80,cs),
(172,-80,o),
(106,11,o),
(106,115,cs),
(106,218,o),
(172,312,o),
(308,312,cs),
(425,312,o),
(485,240,o),
(499,183,c),
(516,183,l),
(500,248,o),
(438,328,o),
(308,328,cs),
(285,328,o),
(264,325,o),
(244,321,c),
(182,335,o),
(130,373,o),
(130,440,cs),
(130,522,o),
(200,549,o),
(277,549,cs),
(469,549,l),
(469,724,l),
(622,724,l),
(622,740,l),
(-35,740,l),
(-35,724,l),
(452,724,l),
(452,565,l),
(277,565,ls),
(188,565,o),
(113,531,o),
(113,440,cs),
(113,363,o),
(174,325,o),
(218,313,c),
(134,281,o),
(89,204,o),
(89,115,cs),
(89,5,o),
(159,-97,o),
(308,-97,cs),
(435,-97,o),
(498,-16,o),
(516,48,c)
);
}
);
width = 587;
}
);
note = dvHA;
unicode = 2361;
},
{
glyphname = dvLLA;
layers = (
{
layerId = m01;
shapes = (
{
closed = 1;
nodes = (
(189,149,o),
(102,231,o),
(102,351,cs),
(102,478,o),
(188,560,o),
(304,560,cs),
(426,560,o),
(505,474,o),
(505,351,cs),
(505,234,o),
(425,149,o),
(305,149,cs)
);
},
{
closed = 1;
nodes = (
(605,149,o),
(525,234,o),
(525,351,cs),
(525,474,o),
(604,560,o),
(726,560,cs),
(842,560,o),
(928,478,o),
(928,351,cs),
(928,231,o),
(841,149,o),
(725,149,cs)
);
},
{
closed = 1;
nodes = (
(853,133,o),
(945,225,o),
(945,351,cs),
(945,482,o),
(857,570,o),
(739,576,c),
(739,724,l),
(1065,724,l),
(1065,740,l),
(-35,740,l),
(-35,724,l),
(722,724,l),
(722,576,l),
(599,576,o),
(535,494,o),
(516,417,c),
(514,417,l),
(495,494,o),
(431,576,o),
(304,576,cs),
(179,576,o),
(85,487,o),
(85,351,cs),
(85,225,o),
(177,133,o),
(305,133,cs),
(422,133,o),
(498,210,o),
(514,294,c),
(516,294,l),
(532,210,o),
(608,133,o),
(725,133,cs)
);
}
);
width = 1030;
}
);
note = dvLLA;
unicode = 2355;
},
{
glyphname = dvK_SSA;
layers = (
{
layerId = m01;
shapes = (
{
closed = 1;
nodes = (
(125,687,o),
(200,732,o),
(279,732,cs),
(360,732,o),
(433,680,o),
(433,589,cs),
(433,508,o),
(383,462,o),
(321,424,c),
(213,427,o),
(125,484,o),
(125,588,cs)
);
},
{
closed = 1;
nodes = (
(398,-47,l),
(415,-47,l),
(415,197,l),
(398,197,l),
(398,112,o),
(342,45,o),
(248,45,cs),
(155,45,o),
(102,108,o),
(102,187,cs),
(102,311,o),
(224,350,o),
(324,408,c),
(603,408,l),
(603,0,l),
(620,0,l),
(620,724,l),
(782,724,l),
(782,740,l),
(603,740,l),
(603,424,l),
(350,424,l),
(406,462,o),
(450,509,o),
(450,589,cs),
(450,690,o),
(370,750,o),
(279,750,cs),
(189,750,o),
(108,697,o),
(108,588,cs),
(108,481,o),
(195,418,o),
(295,409,c),
(198,355,o),
(85,312,o),
(85,187,cs),
(85,98,o),
(147,29,o),
(248,29,cs),
(348,29,o),
(392,95,o),
(398,124,c)
);
}
);
width = 747;
}
);
note = dvK_SSA;
},
{
glyphname = dvJ_NYA;
layers = (
{
layerId = m01;
shapes = (
{
closed = 1;
nodes = (
(628,0,l),
(645,0,l),
(645,724,l),
(807,724,l),
(807,740,l),
(-35,740,l),
(-35,724,l),
(628,724,l),
(628,545,l),
(243,545,l),
(243,529,l),
(245,529,ls),
(376,529,o),
(471,458,o),
(471,334,cs),
(471,232,o),
(404,156,o),
(296,156,cs),
(204,156,o),
(111,211,o),
(99,326,c),
(83,326,l),
(83,64,l),
(100,64,l),
(100,265,l),
(118,207,o),
(187,140,o),
(296,140,cs),
(412,140,o),
(488,220,o),
(488,334,cs),
(488,438,o),
(425,504,o),
(338,529,c),
(628,529,l)
);
}
);
width = 772;
}
);
note = dvJ_NYA;
},
{
glyphname = dvKxA;
layers = (
{
layerId = m01;
shapes = (
{
closed = 1;
nodes = (
(507,0,l),
(523,0,l),
(523,351,ls),
(523,449,o),
(578,568,o),
(722,568,cs),
(828,568,o),
(919,490,o),
(919,359,cs),
(919,221,o),
(834,143,o),
(725,143,cs),
(706,143,o),
(685,145,o),
(668,149,c),
(668,133,l),
(681,130,o),
(704,127,o),
(725,127,cs),
(844,127,o),
(936,212,o),
(936,359,cs),
(936,499,o),
(838,584,o),
(722,584,cs),
(609,584,o),
(547,517,o),
(523,440,c),
(523,724,l),
(1056,724,l),
(1056,740,l),
(-35,740,l),
(-35,724,l),
(507,724,l),
(507,443,l),
(482,518,o),
(418,584,o),
(304,584,cs),
(184,584,o),
(85,499,o),
(85,359,cs),
(85,212,o),
(181,127,o),
(304,127,cs),
(416,127,o),
(482,193,o),
(507,268,c)
);
},
{
closed = 1;
nodes = (
(191,143,o),
(102,221,o),
(102,359,cs),
(102,490,o),
(194,568,o),
(304,568,cs),
(450,568,o),
(507,453,o),
(507,355,cs),
(507,354,ls),
(507,263,o),
(450,143,o),
(304,143,cs)
);
},
{
closed = 1;
nodes = (
(312,-21,o),
(322,-11,o),
(322,3,cs),
(322,17,o),
(312,27,o),
(298,27,cs),
(283,27,o),
(273,17,o),
(273,3,cs),
(273,-11,o),
(283,-21,o),
(298,-21,cs)
);
}
);
width = 1021;
}
);
note = dvKxA;
unicode = 2392;
},
{
glyphname = dvKHxA;
layers = (
{
layerId = m01;
shapes = (
{
closed = 1;
nodes = (
(483,175,o),
(400,244,o),
(400,366,cs),
(400,481,o),
(486,549,o),
(585,549,cs),
(714,549,o),
(765,448,o),
(765,362,cs),
(765,361,ls),
(765,280,o),
(714,175,o),
(585,175,cs)
);
},
{
closed = 1;
nodes = (
(782,0,l),
(782,724,l),
(944,724,l),
(944,740,l),
(-35,740,l),
(-35,724,l),
(293,724,l),
(293,563,ls),
(293,419,o),
(213,394,o),
(144,394,cs),
(100,394,l),
(100,214,ls),
(100,82,o),
(188,0,o),
(320,0,cs),
(436,0,o),
(508,77,o),
(538,164,c),
(553,161,o),
(569,159,o),
(585,159,cs),
(684,159,o),
(743,218,o),
(765,285,c),
(765,0,l)
);
},
{
closed = 1;
nodes = (
(322,-148,o),
(332,-138,o),
(332,-124,cs),
(332,-110,o),
(322,-100,o),
(308,-100,cs),
(293,-100,o),
(283,-110,o),
(283,-124,cs),
(283,-138,o),
(293,-148,o),
(308,-148,cs)
);
},
{
closed = 1;
nodes = (
(196,16,o),
(117,94,o),
(117,214,cs),
(117,378,l),
(124,378,o),
(131,378,o),
(138,378,cs),
(226,378,o),
(310,410,o),
(310,563,cs),
(310,724,l),
(765,724,l),
(765,441,l),
(743,507,o),
(686,565,o),
(585,565,cs),
(474,565,o),
(383,490,o),
(383,366,cs),
(383,260,o),
(440,191,o),
(521,168,c),
(494,87,o),
(426,16,o),
(321,16,cs)
);
}
);
width = 909;
}
);
note = dvKHxA;
unicode = 2393;
},
{
glyphname = dvGxA;
layers = (
{
layerId = m01;
shapes = (
{
closed = 1;
nodes = (
(539,0,l),
(556,0,l),
(556,724,l),
(718,724,l),
(718,740,l),
(-35,740,l),
(-35,724,l),
(297,724,l),
(297,414,ls),
(297,353,o),
(273,289,o),
(186,289,cs),
(103,289,o),
(76,354,o),
(76,411,cs),
(76,442,l),
(59,442,l),
(59,412,ls),
(59,343,o),
(95,273,o),
(186,273,cs),
(280,273,o),
(314,340,o),
(314,414,cs),
(314,724,l),
(539,724,l)
);
},
{
closed = 1;
nodes = (
(208,118,o),
(218,128,o),
(218,142,cs),
(218,156,o),
(208,166,o),
(194,166,cs),
(179,166,o),
(169,156,o),
(169,142,cs),
(169,128,o),
(179,118,o),
(194,118,cs)
);
}
);
width = 683;
}
);
note = dvGxA;
unicode = 2394;
},
{
glyphname = dvJxA;
layers = (
{
layerId = m01;
shapes = (
{
closed = 1;
nodes = (
(-35,724,l),
(679,724,l),
(679,509,l),
(405,509,l),
(405,339,ls),
(405,243,o),
(348,175,o),
(256,175,cs),
(168,175,o),
(113,243,o),
(113,339,cs),
(113,509,l),
(96,509,l),
(96,340,ls),
(96,234,o),
(156,159,o),
(255,159,cs),
(359,159,o),
(422,234,o),
(422,340,cs),
(422,493,l),
(679,493,l),
(679,0,l),
(696,0,l),
(696,724,l),
(858,724,l),
(858,740,l),
(-35,740,l)
);
},
{
closed = 1;
nodes = (
(276,11,o),
(286,21,o),
(286,35,cs),
(286,49,o),
(276,59,o),
(262,59,cs),
(247,59,o),
(237,49,o),
(237,35,cs),
(237,21,o),
(247,11,o),
(262,11,cs)
);
}
);
width = 823;
}
);
note = dvJxA;
unicode = 2395;
},
{
glyphname = dvDDxA;
layers = (
{
layerId = m01;
shapes = (
{
closed = 1;
nodes = (
(-35,724,l),
(436,724,l),
(436,562,l),
(284,562,ls),
(201,562,o),
(105,535,o),
(105,429,cs),
(105,338,o),
(178,298,o),
(270,298,cs),
(315,298,ls),
(404,298,o),
(503,268,o),
(503,150,cs),
(503,72,o),
(446,7,o),
(322,7,cs),
(172,7,o),
(105,88,o),
(105,184,c),
(88,184,l),
(88,75,o),
(167,-9,o),
(322,-9,cs),
(455,-9,o),
(520,62,o),
(520,150,cs),
(520,276,o),
(416,314,o),
(316,314,cs),
(271,314,ls),
(194,314,o),
(122,343,o),
(122,429,cs),
(122,528,o),
(216,546,o),
(292,546,cs),
(453,546,l),
(453,724,l),
(617,724,l),
(617,740,l),
(-35,740,l)
);
},
{
closed = 1;
nodes = (
(329,-157,o),
(339,-147,o),
(339,-133,cs),
(339,-119,o),
(329,-109,o),
(315,-109,cs),
(300,-109,o),
(290,-119,o),
(290,-133,cs),
(290,-147,o),
(300,-157,o),
(315,-157,cs)
);
}
);
width = 582;
}
);
note = dvDDxA;
unicode = 2396;
},
{
glyphname = dvDDHxA;
layers = (
{
layerId = m01;
shapes = (
{
closed = 1;
nodes = (
(-35,724,l),
(442,724,l),
(442,573,l),
(383,573,ls),
(216,573,o),
(85,487,o),
(85,294,cs),
(85,133,o),
(206,23,o),
(367,23,cs),
(497,23,o),
(586,102,o),
(586,211,cs),
(586,304,o),
(523,371,o),
(429,371,cs),
(351,371,o),
(285,319,o),
(285,233,cs),
(285,226,o),
(286,216,o),
(287,210,c),
(304,210,l),
(303,216,o),
(302,225,o),
(302,232,cs),
(302,308,o),
(362,355,o),
(429,355,cs),
(511,355,o),
(569,294,o),
(569,211,cs),
(569,112,o),
(485,39,o),
(367,39,cs),
(216,39,o),
(102,143,o),
(102,295,cs),
(102,474,o),
(224,557,o),
(383,557,cs),
(459,557,l),
(459,724,l),
(663,724,l),
(663,740,l),
(-35,740,l)
);
},
{
closed = 1;
nodes = (
(353,-125,o),
(363,-115,o),
(363,-101,cs),
(363,-87,o),
(353,-77,o),
(339,-77,cs),
(324,-77,o),
(314,-87,o),
(314,-101,cs),
(314,-115,o),
(324,-125,o),
(339,-125,cs)
);
}
);
width = 628;
}
);
note = dvDDHxA;
unicode = 2397;
},
{
glyphname = dvPHxA;
layers = (
{
layerId = m01;
shapes = (
{
closed = 1;
nodes = (
(173,247,o),
(117,330,o),
(117,469,cs),
(117,724,l),
(471,724,l),
(471,435,ls),
(471,333,o),
(409,247,o),
(297,247,cs)
);
},
{
closed = 1;
nodes = (
(-35,724,l),
(100,724,l),
(100,469,ls),
(100,320,o),
(165,231,o),
(296,231,cs),
(385,231,o),
(446,279,o),
(471,352,c),
(471,0,l),
(488,0,l),
(488,351,ls),
(488,449,o),
(543,568,o),
(687,568,cs),
(793,568,o),
(884,490,o),
(884,359,cs),
(884,221,o),
(799,143,o),
(690,143,cs),
(671,143,o),
(650,145,o),
(633,149,c),
(633,133,l),
(646,130,o),
(669,127,o),
(690,127,cs),
(809,127,o),
(901,212,o),
(901,359,cs),
(901,499,o),
(803,584,o),
(687,584,cs),
(573,584,o),
(511,515,o),
(488,438,c),
(488,724,l),
(1021,724,l),
(1021,740,l),
(-35,740,l)
);
},
{
closed = 1;
nodes = (
(303,83,o),
(313,93,o),
(313,107,cs),
(313,121,o),
(303,131,o),
(289,131,cs),
(274,131,o),
(264,121,o),
(264,107,cs),
(264,93,o),
(274,83,o),
(289,83,cs)
);
}
);
width = 986;
}
);
note = dvPHxA;
unicode = 2398;
},
{
glyphname = dvRxA;
layers = (
{
layerId = m01;
shapes = (
{
closed = 1;
nodes = (
(-35,724,l),
(407,724,l),
(407,591,ls),
(407,452,o),
(330,390,o),
(210,390,cs),
(100,390,l),
(100,205,ls),
(100,78,o),
(159,-9,o),
(279,-9,cs),
(389,-9,o),
(458,68,o),
(458,188,cs),
(458,199,l),
(441,199,l),
(441,188,ls),
(441,79,o),
(379,7,o),
(279,7,cs),
(169,7,o),
(117,89,o),
(117,204,cs),
(117,374,l),
(210,374,ls),
(340,374,o),
(424,440,o),
(424,591,cs),
(424,724,l),
(574,724,l),
(574,740,l),
(-35,740,l)
);
},
{
closed = 1;
nodes = (
(136,-112,o),
(146,-102,o),
(146,-88,cs),
(146,-74,o),
(136,-64,o),
(122,-64,cs),
(107,-64,o),
(97,-74,o),
(97,-88,cs),
(97,-102,o),
(107,-112,o),
(122,-112,cs)
);
}
);
width = 539;
}
);
note = dvRxA;
unicode = 2353;
},
{
glyphname = dvK;
layers = (
{
layerId = m01;
shapes = (
{
closed = 1;
nodes = (
(507,0,l),
(523,0,l),
(523,351,ls),
(523,449,o),
(578,568,o),
(722,568,cs),
(828,568,o),
(919,490,o),
(919,359,c),
(936,359,l),
(936,499,o),
(838,584,o),
(722,584,cs),
(609,584,o),
(547,517,o),
(523,440,c),
(523,724,l),
(936,724,l),
(936,740,l),
(-35,740,l),
(-35,724,l),
(507,724,l),
(507,443,l),
(482,518,o),
(418,584,o),
(304,584,cs),
(184,584,o),
(85,499,o),
(85,359,cs),
(85,212,o),
(181,127,o),
(304,127,cs),
(416,127,o),
(482,193,o),
(507,268,c)
);
},
{
closed = 1;
nodes = (
(191,143,o),
(102,221,o),
(102,359,cs),
(102,490,o),
(194,568,o),
(304,568,cs),
(450,568,o),
(507,453,o),
(507,355,cs),
(507,354,ls),
(507,263,o),
(450,143,o),
(304,143,cs)
);
}
);
width = 771;
}
);
note = dvK;
},
{
glyphname = dvKH;
layers = (
{
layerId = m01;
shapes = (
{
closed = 1;
nodes = (
(-35,724,l),
(293,724,l),
(293,563,ls),
(293,419,o),
(213,394,o),
(144,394,cs),
(100,394,l),
(100,214,ls),
(100,82,o),
(188,0,o),
(320,0,cs),
(436,0,o),
(509,78,o),
(538,165,c),
(554,162,o),
(571,160,o),
(588,160,cs),
(710,160,o),
(794,237,o),
(794,362,cs),
(794,487,o),
(712,565,o),
(588,565,cs),
(465,565,o),
(383,487,o),
(383,362,cs),
(383,264,o),
(436,192,o),
(522,169,c),
(497,90,o),
(428,16,o),
(321,16,cs),
(196,16,o),
(117,94,o),
(117,214,cs),
(117,378,l),
(124,378,o),
(131,378,o),
(138,378,cs),
(226,378,o),
(310,410,o),
(310,563,cs),
(310,724,l),
(794,724,l),
(794,740,l),
(-35,740,l)
);
},
{
closed = 1;
nodes = (
(400,476,o),
(475,549,o),
(588,549,cs),
(702,549,o),
(777,476,o),
(777,362,cs),
(777,250,o),
(702,176,o),
(588,176,cs),
(475,176,o),
(400,250,o),
(400,362,cs)
);
}
);
width = 679;
}
);
note = dvKH;
},
{
glyphname = dvG;
layers = (
{
layerId = m01;
shapes = (
{
closed = 1;
nodes = (
(-35,724,l),
(297,724,l),
(297,414,ls),
(297,353,o),
(273,289,o),
(186,289,cs),
(103,289,o),
(76,354,o),
(76,411,cs),
(76,442,l),
(59,442,l),
(59,412,ls),
(59,343,o),
(95,273,o),
(186,273,cs),
(280,273,o),
(314,340,o),
(314,414,cs),
(314,724,l),
(455,724,l),
(455,740,l),
(-35,740,l)
);
}
);
width = 420;
}
);
note = dvG;
},
{
glyphname = dvGH;
layers = (
{
layerId = m01;
shapes = (
{
closed = 1;
nodes = (
(-35,724,l),
(119,724,l),
(119,622,ls),
(119,513,o),
(181,468,o),
(254,460,c),
(254,458,l),
(171,451,o),
(98,395,o),
(98,299,cs),
(98,178,o),
(192,116,o),
(329,116,cs),
(482,116,o),
(592,220,o),
(592,364,c),
(577,364,l),
(577,227,o),
(466,132,o),
(329,132,cs),
(208,132,o),
(115,185,o),
(115,299,cs),
(115,382,o),
(172,451,o),
(314,451,cs),
(368,451,l),
(368,467,l),
(314,467,ls),
(188,467,o),
(136,521,o),
(136,622,cs),
(136,724,l),
(592,724,l),
(592,740,l),
(-35,740,l)
);
}
);
width = 456;
}
);
note = dvGH;
},
{
glyphname = dvNG;
layers = (
{
layerId = m01;
shapes = (
{
closed = 1;
nodes = (
(583,391,o),
(593,401,o),
(593,415,cs),
(593,429,o),
(583,439,o),
(569,439,cs),
(554,439,o),
(544,429,o),
(544,415,cs),
(544,401,o),
(554,391,o),
(569,391,cs)
);
},
{
closed = 1;
nodes = (
(424,-287,l),
(443,-287,l),
(327,-109,l),
(309,-109,l)
);
},
{
closed = 1;
nodes = (
(-35,724,l),
(444,724,l),
(444,562,l),
(284,562,ls),
(201,562,o),
(105,535,o),
(105,429,cs),
(105,338,o),
(178,298,o),
(270,298,cs),
(315,298,ls),
(404,298,o),
(503,268,o),
(503,150,cs),
(503,72,o),
(446,7,o),
(322,7,cs),
(172,7,o),
(105,88,o),
(105,184,c),
(88,184,l),
(88,75,o),
(167,-9,o),
(322,-9,cs),
(455,-9,o),
(520,62,o),
(520,150,cs),
(520,276,o),
(416,314,o),
(316,314,cs),
(271,314,ls),
(194,314,o),
(122,343,o),
(122,429,cs),
(122,528,o),
(216,546,o),
(292,546,cs),
(461,546,l),
(461,724,l),
(657,724,l),
(657,740,l),
(-35,740,l)
);
}
);
width = 622;
}
);
note = dvNG;
},
{
glyphname = dvC;
layers = (
{
layerId = m01;
shapes = (
{
closed = 1;
nodes = (
(49,525,l),
(290,525,l),
(200,496,o),
(147,421,o),
(147,324,cs),
(147,190,o),
(248,115,o),
(366,115,cs),
(496,115,o),
(592,219,o),
(588,333,c),
(574,333,l),
(574,227,o),
(485,131,o),
(365,131,cs),
(258,131,o),
(164,200,o),
(164,324,cs),
(164,436,o),
(244,525,o),
(377,525,cs),
(406,525,l),
(406,541,l),
(49,541,l)
);
},
{
closed = 1;
nodes = (
(-35,724,l),
(588,724,l),
(588,740,l),
(-35,740,l)
);
}
);
width = 467;
}
);
note = dvC;
},
{
glyphname = dvCH;
layers = (
{
layerId = m01;
shapes = (
{
closed = 1;
nodes = (
(-35,724,l),
(114,724,l),
(114,589,ls),
(114,480,o),
(176,435,o),
(249,427,c),
(249,425,l),
(161,417,o),
(84,359,o),
(84,251,cs),
(84,110,o),
(210,33,o),
(394,33,cs),
(602,33,o),
(761,152,o),
(761,356,cs),
(761,499,o),
(676,561,o),
(591,561,cs),
(517,561,o),
(431,520,o),
(431,397,cs),
(431,365,o),
(437,329,o),
(451,290,c),
(468,290,l),
(455,329,o),
(448,365,o),
(448,397,cs),
(448,510,o),
(529,545,o),
(591,545,cs),
(664,545,o),
(744,488,o),
(744,355,cs),
(744,167,o),
(589,49,o),
(394,49,cs),
(227,49,o),
(101,116,o),
(101,251,cs),
(101,342,o),
(161,418,o),
(309,418,cs),
(333,418,l),
(333,434,l),
(309,434,ls),
(183,434,o),
(131,488,o),
(131,589,cs),
(131,724,l),
(846,724,l),
(846,740,l),
(-35,740,l)
);
}
);
width = 811;
}
);
note = dvCH;
},
{
glyphname = dvJ;
layers = (
{
layerId = m01;
shapes = (
{
closed = 1;
nodes = (
(359,159,o),
(422,234,o),
(422,340,cs),
(422,493,l),
(684,493,l),
(684,509,l),
(405,509,l),
(405,339,ls),
(405,243,o),
(348,175,o),
(256,175,cs),
(168,175,o),
(113,243,o),
(113,339,cs),
(113,509,l),
(96,509,l),
(96,340,ls),
(96,234,o),
(156,159,o),
(255,159,cs)
);
},
{
closed = 1;
nodes = (
(-35,724,l),
(684,724,l),
(684,740,l),
(-35,740,l)
);
}
);
width = 541;
}
);
note = dvJ;
},
{
glyphname = dvJH;
layers = (
{
layerId = m01;
shapes = (
{
closed = 1;
nodes = (
(133,117,l),
(143,88,o),
(196,0,o),
(341,0,cs),
(466,0,o),
(520,70,o),
(520,150,cs),
(520,239,o),
(467,284,o),
(403,300,c),
(676,299,l),
(676,314,l),
(271,314,ls),
(192,314,o),
(119,343,o),
(119,429,cs),
(119,528,o),
(215,546,o),
(292,546,cs),
(461,546,l),
(461,724,l),
(676,724,l),
(676,740,l),
(-35,740,l),
(-35,724,l),
(444,724,l),
(444,562,l),
(284,562,ls),
(200,562,o),
(102,535,o),
(102,429,cs),
(102,338,o),
(178,298,o),
(270,298,cs),
(315,298,ls),
(436,298,o),
(503,242,o),
(503,150,cs),
(503,80,o),
(456,16,o),
(342,16,cs),
(210,16,o),
(145,92,o),
(131,173,c),
(116,173,l),
(116,-71,l),
(133,-71,l)
);
}
);
width = 577;
}
);
note = dvJH;
},
{
glyphname = dvNY;
layers = (
{
layerId = m01;
shapes = (
{
closed = 1;
nodes = (
(443,121,o),
(510,233,o),
(513,347,c),
(650,347,l),
(650,363,l),
(513,363,l),
(509,473,o),
(442,583,o),
(294,583,cs),
(157,583,o),
(101,497,o),
(85,428,c),
(102,428,l),
(116,489,o),
(170,567,o),
(294,567,cs),
(430,567,o),
(496,465,o),
(496,354,cs),
(496,239,o),
(430,138,o),
(294,138,cs),
(174,138,o),
(119,213,o),
(102,276,c),
(85,276,l),
(103,208,o),
(160,121,o),
(294,121,cs)
);
},
{
closed = 1;
nodes = (
(-35,724,l),
(650,724,l),
(650,740,l),
(-35,740,l)
);
}
);
width = 552;
}
);
note = dvNY;
},
{
glyphname = dvTT;
layers = (
{
layerId = m01;
shapes = (
{
closed = 1;
nodes = (
(448,-215,l),
(467,-215,l),
(351,-37,l),
(333,-37,l)
);
},
{
closed = 1;
nodes = (
(-35,724,l),
(424,724,l),
(424,573,l),
(373,573,ls),
(212,573,o),
(85,492,o),
(85,311,cs),
(85,166,o),
(194,63,o),
(340,63,cs),
(491,63,o),
(594,169,o),
(594,320,c),
(577,320,l),
(577,179,o),
(479,79,o),
(340,79,cs),
(204,79,o),
(102,176,o),
(102,312,cs),
(102,479,o),
(220,557,o),
(373,557,cs),
(441,557,l),
(441,724,l),
(689,724,l),
(689,740,l),
(-35,740,l)
);
}
);
width = 654;
}
);
note = dvTT;
},
{
glyphname = dvTTH;
layers = (
{
layerId = m01;
shapes = (
{
closed = 1;
nodes = (
(204,79,o),
(102,176,o),
(102,311,cs),
(102,447,o),
(204,543,o),
(340,543,cs),
(476,543,o),
(578,447,o),
(578,311,cs),
(578,176,o),
(476,79,o),
(340,79,cs)
);
},
{
closed = 1;
nodes = (
(486,63,o),
(595,166,o),
(595,311,cs),
(595,453,o),
(490,555,o),
(348,559,c),
(348,724,l),
(715,724,l),
(715,740,l),
(-35,740,l),
(-35,724,l),
(331,724,l),
(331,559,l),
(190,555,o),
(85,453,o),
(85,311,cs),
(85,166,o),
(194,63,o),
(340,63,cs)
);
},
{
closed = 1;
nodes = (
(446,-215,l),
(465,-215,l),
(349,-37,l),
(331,-37,l)
);
}
);
width = 680;
}
);
note = dvTTH;
},
{
glyphname = dvDD;
layers = (
{
layerId = m01;
shapes = (
{
closed = 1;
nodes = (
(430,-287,l),
(449,-287,l),
(333,-109,l),
(315,-109,l)
);
},
{
closed = 1;
nodes = (
(-35,724,l),
(436,724,l),
(436,562,l),
(284,562,ls),
(201,562,o),
(105,535,o),
(105,429,cs),
(105,338,o),
(178,298,o),
(270,298,cs),
(315,298,ls),
(404,298,o),
(503,268,o),
(503,150,cs),
(503,72,o),
(446,7,o),
(322,7,cs),
(172,7,o),
(105,88,o),
(105,184,c),
(88,184,l),
(88,75,o),
(167,-9,o),
(322,-9,cs),
(455,-9,o),
(520,62,o),
(520,150,cs),
(520,276,o),
(416,314,o),
(316,314,cs),
(271,314,ls),
(194,314,o),
(122,343,o),
(122,429,cs),
(122,528,o),
(216,546,o),
(292,546,cs),
(453,546,l),
(453,724,l),
(617,724,l),
(617,740,l),
(-35,740,l)
);
}
);
width = 582;
}
);
note = dvDD;
},
{
glyphname = dvDDH;
layers = (
{
layerId = m01;
shapes = (
{
closed = 1;
nodes = (
(460,-255,l),
(479,-255,l),
(363,-77,l),
(345,-77,l)
);
},
{
closed = 1;
nodes = (
(-35,724,l),
(442,724,l),
(442,573,l),
(383,573,ls),
(216,573,o),
(85,487,o),
(85,294,cs),
(85,133,o),
(206,23,o),
(367,23,cs),
(497,23,o),
(586,102,o),
(586,211,cs),
(586,304,o),
(523,371,o),
(429,371,cs),
(351,371,o),
(285,319,o),
(285,233,cs),
(285,226,o),
(286,216,o),
(287,210,c),
(304,210,l),
(303,216,o),
(302,225,o),
(302,232,cs),
(302,308,o),
(362,355,o),
(429,355,cs),
(511,355,o),
(569,294,o),
(569,211,cs),
(569,112,o),
(485,39,o),
(367,39,cs),
(216,39,o),
(102,143,o),
(102,295,cs),
(102,474,o),
(224,557,o),
(383,557,cs),
(459,557,l),
(459,724,l),
(663,724,l),
(663,740,l),
(-35,740,l)
);
}
);
width = 628;
}
);
note = dvDDH;
},
{
glyphname = dvNN;
layers = (
{
layerId = m01;
shapes = (
{
closed = 1;
nodes = (
(-35,724,l),
(100,724,l),
(100,399,ls),
(100,293,o),
(161,218,o),
(262,218,cs),
(366,218,o),
(426,293,o),
(426,399,cs),
(426,724,l),
(581,724,l),
(581,740,l),
(-35,740,l)
);
},
{
closed = 1;
nodes = (
(173,234,o),
(117,302,o),
(117,398,cs),
(117,724,l),
(409,724,l),
(409,398,ls),
(409,302,o),
(355,234,o),
(263,234,cs)
);
}
);
width = 546;
}
);
note = dvNN;
},
{
glyphname = dvT;
layers = (
{
layerId = m01;
shapes = (
{
closed = 1;
nodes = (
(537,487,l),
(537,503,l),
(371,503,ls),
(198,503,o),
(85,426,o),
(85,253,cs),
(85,94,o),
(181,2,o),
(345,2,cs),
(369,2,l),
(369,18,l),
(345,18,ls),
(190,18,o),
(102,103,o),
(102,253,cs),
(102,414,o),
(208,487,o),
(371,487,cs)
);
},
{
closed = 1;
nodes = (
(-35,724,l),
(537,724,l),
(537,740,l),
(-35,740,l)
);
}
);
width = 400;
}
);
note = dvT;
},
{
glyphname = dvTH;
layers = (
{
layerId = m01;
shapes = (
{
closed = 1;
nodes = (
(597,343,l),
(597,215,o),
(499,130,o),
(362,130,cs),
(198,130,o),
(110,231,o),
(117,395,c),
(210,395,ls),
(330,395,o),
(452,434,o),
(452,581,cs),
(452,674,o),
(389,749,o),
(285,749,cs),
(178,749,o),
(112,678,o),
(112,577,cs),
(112,560,o),
(114,540,o),
(117,525,c),
(134,525,l),
(131,542,o),
(129,559,o),
(129,575,cs),
(129,668,o),
(186,733,o),
(285,733,cs),
(380,733,o),
(435,665,o),
(435,581,cs),
(435,439,o),
(310,411,o),
(210,411,cs),
(102,411,l),
(101,399,o),
(100,387,o),
(100,376,cs),
(100,217,o),
(194,114,o),
(361,114,cs),
(515,114,o),
(614,211,o),
(614,343,c)
);
}
);
width = 469;
}
);
note = dvTH;
},
{
glyphname = dvD;
layers = (
{
layerId = m01;
shapes = (
{
closed = 1;
nodes = (
(614,-278,l),
(633,-278,l),
(517,-100,l),
(499,-100,l)
);
},
{
closed = 1;
nodes = (
(-35,724,l),
(454,724,l),
(454,588,l),
(350,588,ls),
(209,588,o),
(85,515,o),
(85,355,cs),
(85,221,o),
(170,129,o),
(311,129,cs),
(401,129,o),
(476,177,o),
(499,240,c),
(499,0,l),
(516,0,l),
(516,321,l),
(501,321,l),
(501,193,o),
(393,145,o),
(313,145,cs),
(184,145,o),
(102,228,o),
(102,355,cs),
(102,502,o),
(217,572,o),
(350,572,cs),
(471,572,l),
(471,724,l),
(642,724,l),
(642,740,l),
(-35,740,l)
);
}
);
width = 607;
}
);
note = dvD;
},
{
glyphname = dvDH;
layers = (
{
layerId = m01;
shapes = (
{
closed = 1;
nodes = (
(469,116,o),
(565,207,o),
(565,334,c),
(550,334,l),
(550,215,o),
(453,132,o),
(312,132,cs),
(209,132,o),
(120,180,o),
(120,284,cs),
(120,361,o),
(172,424,o),
(291,424,cs),
(345,424,l),
(345,440,l),
(291,440,ls),
(173,440,o),
(115,504,o),
(115,593,cs),
(115,671,o),
(166,733,o),
(254,733,cs),
(343,733,o),
(390,671,o),
(390,601,cs),
(390,596,o),
(390,587,o),
(389,573,c),
(406,573,l),
(407,585,o),
(407,595,o),
(407,600,cs),
(407,687,o),
(349,749,o),
(254,749,cs),
(158,749,o),
(98,681,o),
(98,594,cs),
(98,495,o),
(163,444,o),
(231,432,c),
(231,430,l),
(166,424,o),
(103,372,o),
(103,284,cs),
(103,173,o),
(194,116,o),
(312,116,cs)
);
}
);
width = 429;
}
);
note = dvDH;
},
{
glyphname = dvN;
layers = (
{
layerId = m01;
shapes = (
{
closed = 1;
nodes = (
(365,160,o),
(439,233,o),
(439,336,cs),
(439,418,o),
(389,477,o),
(329,496,c),
(643,496,l),
(643,511,l),
(261,511,ls),
(150,511,o),
(75,440,o),
(75,334,cs),
(75,233,o),
(147,160,o),
(259,160,cs)
);
},
{
closed = 1;
nodes = (
(159,176,o),
(92,241,o),
(92,334,cs),
(92,430,o),
(161,495,o),
(259,495,cs),
(354,495,o),
(422,429,o),
(422,336,cs),
(422,242,o),
(354,176,o),
(259,176,cs)
);
},
{
closed = 1;
nodes = (
(-35,724,l),
(643,724,l),
(643,740,l),
(-35,740,l)
);
}
);
width = 505;
}
);
note = dvN;
},
{
glyphname = dvP;
layers = (
{
layerId = m01;
shapes = (
{
closed = 1;
nodes = (
(-35,724,l),
(100,724,l),
(100,469,ls),
(100,320,o),
(168,231,o),
(306,231,cs),
(432,231,o),
(507,317,o),
(507,435,c),
(491,435,l),
(491,333,o),
(425,247,o),
(307,247,cs),
(176,247,o),
(117,330,o),
(117,469,cs),
(117,724,l),
(507,724,l),
(507,740,l),
(-35,740,l)
);
}
);
width = 378;
}
);
note = dvP;
},
{
glyphname = dvPH;
layers = (
{
layerId = m01;
shapes = (
{
closed = 1;
nodes = (
(173,247,o),
(117,330,o),
(117,469,cs),
(117,724,l),
(471,724,l),
(471,435,ls),
(471,333,o),
(409,247,o),
(297,247,cs)
);
},
{
closed = 1;
nodes = (
(-35,724,l),
(100,724,l),
(100,469,ls),
(100,320,o),
(165,231,o),
(296,231,cs),
(385,231,o),
(446,279,o),
(471,352,c),
(471,0,l),
(488,0,l),
(488,351,ls),
(488,449,o),
(543,568,o),
(687,568,cs),
(813,568,o),
(884,490,o),
(884,359,c),
(901,359,l),
(901,499,o),
(823,584,o),
(687,584,cs),
(573,584,o),
(511,515,o),
(488,438,c),
(488,724,l),
(901,724,l),
(901,740,l),
(-35,740,l)
);
}
);
width = 771;
}
);
note = dvPH;
},
{
glyphname = dvB;
layers = (
{
layerId = m01;
shapes = (
{
closed = 1;
nodes = (
(473,120,o),
(562,231,o),
(562,355,cs),
(562,461,o),
(490,593,o),
(324,593,cs),
(192,593,o),
(85,502,o),
(85,353,cs),
(85,207,o),
(196,120,o),
(327,120,cs)
);
},
{
closed = 1;
nodes = (
(477,577,o),
(546,458,o),
(546,355,cs),
(546,307,o),
(529,251,o),
(492,207,c),
(169,519,l),
(209,557,o),
(264,577,o),
(324,577,cs)
);
},
{
closed = 1;
nodes = (
(-35,724,l),
(562,724,l),
(562,740,l),
(-35,740,l)
);
},
{
closed = 1;
nodes = (
(207,136,o),
(102,215,o),
(102,353,cs),
(102,418,o),
(123,470,o),
(158,508,c),
(482,196,l),
(446,160,o),
(396,136,o),
(327,136,cs)
);
}
);
width = 439;
}
);
note = dvB;
},
{
glyphname = dvBH;
layers = (
{
layerId = m01;
shapes = (
{
closed = 1;
nodes = (
(170,152,o),
(112,207,o),
(112,290,cs),
(112,375,o),
(173,429,o),
(260,429,cs),
(382,429,l),
(382,324,ls),
(382,214,o),
(331,152,o),
(249,152,cs)
);
},
{
closed = 1;
nodes = (
(341,136,o),
(399,198,o),
(399,325,cs),
(399,429,l),
(592,429,l),
(592,445,l),
(399,445,l),
(399,557,ls),
(399,676,o),
(353,749,o),
(256,749,cs),
(174,749,o),
(115,690,o),
(115,592,cs),
(115,578,o),
(117,563,o),
(119,548,c),
(136,548,l),
(133,564,o),
(132,578,o),
(132,592,cs),
(132,681,o),
(184,732,o),
(256,732,cs),
(344,732,o),
(382,664,o),
(382,556,cs),
(382,445,l),
(260,445,ls),
(162,445,o),
(95,384,o),
(95,290,cs),
(95,199,o),
(156,136,o),
(249,136,cs)
);
}
);
width = 483;
}
);
note = dvBH;
},
{
glyphname = dvM;
layers = (
{
layerId = m01;
shapes = (
{
closed = 1;
nodes = (
(130,152,o),
(72,207,o),
(72,290,cs),
(72,375,o),
(133,429,o),
(220,429,cs),
(342,429,l),
(342,324,ls),
(342,214,o),
(291,152,o),
(209,152,cs)
);
},
{
closed = 1;
nodes = (
(-35,724,l),
(342,724,l),
(342,445,l),
(220,445,ls),
(122,445,o),
(55,384,o),
(55,290,cs),
(55,199,o),
(116,136,o),
(209,136,cs),
(301,136,o),
(359,198,o),
(359,325,cs),
(359,429,l),
(589,429,l),
(589,445,l),
(359,445,l),
(359,724,l),
(589,724,l),
(589,740,l),
(-35,740,l)
);
}
);
width = 480;
}
);
note = dvM;
},
{
glyphname = dvY;
layers = (
{
layerId = m01;
shapes = (
{
closed = 1;
nodes = (
(-35,724,l),
(308,724,l),
(308,635,ls),
(308,486,o),
(213,455,o),
(101,455,cs),
(83,455,l),
(82,445,o),
(81,431,o),
(81,420,cs),
(81,249,o),
(174,138,o),
(340,138,cs),
(484,138,o),
(592,234,o),
(592,368,c),
(576,368,l),
(576,238,o),
(466,154,o),
(341,154,cs),
(188,154,o),
(97,253,o),
(97,420,cs),
(97,424,o),
(97,431,o),
(98,439,c),
(101,439,ls),
(229,439,o),
(325,480,o),
(325,635,cs),
(325,724,l),
(592,724,l),
(592,740,l),
(-35,740,l)
);
}
);
width = 458;
}
);
note = dvY;
},
{
glyphname = dvR;
layers = (
{
layerId = m01;
shapes = (
{
closed = 1;
nodes = (
(384,-289,l),
(403,-289,l),
(287,-111,l),
(269,-111,l)
);
},
{
closed = 1;
nodes = (
(-35,724,l),
(407,724,l),
(407,591,ls),
(407,452,o),
(330,390,o),
(210,390,cs),
(100,390,l),
(100,205,ls),
(100,78,o),
(159,-9,o),
(279,-9,cs),
(389,-9,o),
(458,68,o),
(458,188,cs),
(458,199,l),
(441,199,l),
(441,188,ls),
(441,79,o),
(379,7,o),
(279,7,cs),
(169,7,o),
(117,89,o),
(117,204,cs),
(117,374,l),
(210,374,ls),
(340,374,o),
(424,440,o),
(424,591,cs),
(424,724,l),
(574,724,l),
(574,740,l),
(-35,740,l)
);
}
);
width = 539;
}
);
note = dvR;
},
{
glyphname = dvL;
layers = (
{
layerId = m01;
shapes = (
{
closed = 1;
nodes = (
(447,387,l),
(437,464,o),
(390,560,o),
(276,560,cs),
(151,560,o),
(85,467,o),
(85,341,cs),
(85,208,o),
(158,104,o),
(305,104,cs),
(316,104,o),
(327,105,o),
(338,106,c),
(338,123,l),
(327,122,o),
(317,121,o),
(307,121,cs),
(169,121,o),
(102,217,o),
(102,341,cs),
(102,456,o),
(160,544,o),
(276,544,cs),
(383,544,o),
(439,448,o),
(439,303,cs),
(439,295,l),
(456,295,l),
(456,303,ls),
(456,451,o),
(515,544,o),
(628,544,cs),
(739,544,o),
(793,452,o),
(793,341,c),
(810,341,l),
(810,463,o),
(749,560,o),
(629,560,cs),
(507,560,o),
(460,465,o),
(449,387,c)
);
},
{
closed = 1;
nodes = (
(-35,724,l),
(810,724,l),
(810,740,l),
(-35,740,l)
);
}
);
width = 688;
}
);
note = dvL;
},
{
glyphname = dvV;
layers = (
{
layerId = m01;
shapes = (
{
closed = 1;
nodes = (
(485,125,o),
(554,253,o),
(554,355,cs),
(554,458,o),
(488,588,o),
(321,588,cs),
(192,588,o),
(85,501,o),
(85,359,cs),
(85,211,o),
(188,125,o),
(321,125,cs)
);
},
{
closed = 1;
nodes = (
(198,141,o),
(102,220,o),
(102,359,cs),
(102,493,o),
(202,572,o),
(321,572,cs),
(476,572,o),
(537,455,o),
(537,355,cs),
(537,262,o),
(476,141,o),
(321,141,cs)
);
},
{
closed = 1;
nodes = (
(-35,724,l),
(554,724,l),
(554,740,l),
(-35,740,l)
);
}
);
width = 426;
}
);
note = dvV;
},
{
glyphname = dvSH;
layers = (
{
layerId = m01;
shapes = (
{
closed = 1;
nodes = (
(409,-9,o),
(478,68,o),
(478,188,cs),
(478,199,l),
(461,199,l),
(461,188,ls),
(461,79,o),
(399,7,o),
(299,7,cs),
(182,7,o),
(127,89,o),
(127,204,cs),
(127,349,l),
(263,349,ls),
(394,349,o),
(490,420,o),
(490,550,cs),
(490,676,o),
(414,749,o),
(300,749,cs),
(186,749,o),
(112,672,o),
(112,553,cs),
(112,535,o),
(114,518,o),
(117,500,c),
(134,500,l),
(131,518,o),
(129,535,o),
(129,553,cs),
(129,664,o),
(198,733,o),
(300,733,cs),
(404,733,o),
(473,665,o),
(473,550,cs),
(473,431,o),
(385,365,o),
(263,365,cs),
(110,365,l),
(110,205,ls),
(110,78,o),
(172,-9,o),
(299,-9,cs)
);
}
);
width = 525;
}
);
note = dvSH;
},
{
glyphname = dvSS;
layers = (
{
layerId = m01;
shapes = (
{
closed = 1;
nodes = (
(176,247,o),
(117,330,o),
(117,469,cs),
(117,703,l),
(484,369,l),
(478,318,o),
(416,247,o),
(307,247,cs)
);
},
{
closed = 1;
nodes = (
(-35,724,l),
(100,724,l),
(100,469,ls),
(100,320,o),
(168,231,o),
(306,231,cs),
(429,231,o),
(500,312,o),
(500,376,c),
(117,724,l),
(500,724,l),
(500,740,l),
(-35,740,l)
);
}
);
width = 390;
}
);
note = dvSS;
},
{
glyphname = dvS;
layers = (
{
layerId = m01;
shapes = (
{
closed = 1;
nodes = (
(458,199,l),
(441,199,l),
(441,188,ls),
(441,79,o),
(379,7,o),
(279,7,cs),
(169,7,o),
(117,89,o),
(117,204,cs),
(117,394,l),
(635,394,l),
(635,409,l),
(290,409,l),
(365,430,o),
(423,497,o),
(423,611,cs),
(423,724,l),
(635,724,l),
(635,740,l),
(-35,740,l),
(-35,724,l),
(407,724,l),
(407,611,ls),
(407,487,o),
(330,410,o),
(210,410,cs),
(100,410,l),
(100,205,ls),
(100,78,o),
(159,-9,o),
(279,-9,cs),
(389,-9,o),
(458,68,o),
(458,188,cs)
);
}
);
width = 536;
}
);
note = dvS;
},
{
glyphname = dvH;
layers = (
{
layerId = m01;
shapes = (
{
closed = 1;
nodes = (
(499,48,l),
(482,-10,o),
(421,-80,o),
(308,-80,cs),
(172,-80,o),
(106,11,o),
(106,115,cs),
(106,218,o),
(172,312,o),
(308,312,cs),
(425,312,o),
(485,240,o),
(499,183,c),
(516,183,l),
(500,248,o),
(438,328,o),
(308,328,cs),
(285,328,o),
(264,325,o),
(244,321,c),
(182,335,o),
(130,373,o),
(130,440,cs),
(130,522,o),
(200,549,o),
(277,549,cs),
(469,549,l),
(469,724,l),
(622,724,l),
(622,740,l),
(-35,740,l),
(-35,724,l),
(452,724,l),
(452,565,l),
(277,565,ls),
(188,565,o),
(113,531,o),
(113,440,cs),
(113,363,o),
(174,325,o),
(218,313,c),
(134,281,o),
(89,204,o),
(89,115,cs),
(89,5,o),
(159,-97,o),
(308,-97,cs),
(435,-97,o),
(498,-16,o),
(516,48,c)
);
},
{
closed = 1;
nodes = (
(409,-374,l),
(428,-374,l),
(312,-196,l),
(294,-196,l)
);
}
);
width = 587;
}
);
note = dvH;
},
{
glyphname = dvLL;
layers = (
{
layerId = m01;
shapes = (
{
closed = 1;
nodes = (
(422,133,o),
(498,210,o),
(514,294,c),
(516,294,l),
(532,210,o),
(608,133,o),
(725,133,cs),
(853,133,o),
(945,225,o),
(945,351,cs),
(945,487,o),
(851,576,o),
(726,576,cs),
(599,576,o),
(535,494,o),
(516,417,c),
(514,417,l),
(495,494,o),
(431,576,o),
(304,576,cs),
(179,576,o),
(85,487,o),
(85,351,cs),
(85,225,o),
(177,133,o),
(305,133,cs)
);
},
{
closed = 1;
nodes = (
(189,149,o),
(102,231,o),
(102,351,cs),
(102,478,o),
(188,560,o),
(304,560,cs),
(426,560,o),
(505,474,o),
(505,351,cs),
(505,234,o),
(425,149,o),
(305,149,cs)
);
},
{
closed = 1;
nodes = (
(605,149,o),
(525,234,o),
(525,351,cs),
(525,474,o),
(604,560,o),
(726,560,cs),
(842,560,o),
(928,478,o),
(928,351,cs),
(928,231,o),
(841,149,o),
(725,149,cs)
);
},
{
closed = 1;
nodes = (
(-35,724,l),
(1065,724,l),
(1065,740,l),
(-35,740,l)
);
}
);
width = 1030;
}
);
note = dvLL;
},
{
glyphname = dvK_SS;
layers = (
{
layerId = m01;
shapes = (
{
closed = 1;
nodes = (
(125,687,o),
(200,732,o),
(279,732,cs),
(360,732,o),
(433,680,o),
(433,589,cs),
(433,508,o),
(383,462,o),
(321,424,c),
(213,427,o),
(125,484,o),
(125,588,cs)
);
},
{
closed = 1;
nodes = (
(398,-47,l),
(415,-47,l),
(415,197,l),
(398,197,l),
(398,112,o),
(342,45,o),
(248,45,cs),
(155,45,o),
(102,108,o),
(102,187,cs),
(102,311,o),
(224,350,o),
(324,408,c),
(602,408,l),
(602,424,l),
(350,424,l),
(406,462,o),
(450,509,o),
(450,589,cs),
(450,690,o),
(370,750,o),
(279,750,cs),
(189,750,o),
(108,697,o),
(108,588,cs),
(108,481,o),
(195,418,o),
(295,409,c),
(198,355,o),
(85,312,o),
(85,187,cs),
(85,98,o),
(147,29,o),
(248,29,cs),
(348,29,o),
(392,95,o),
(398,124,c)
);
}
);
width = 503;
}
);
note = dvK_SS;
},
{
glyphname = dvJ_NY;
layers = (
{
layerId = m01;
shapes = (
{
closed = 1;
nodes = (
(-35,724,l),
(696,724,l),
(696,740,l),
(-35,740,l)
);
},
{
closed = 1;
nodes = (
(243,529,l),
(245,529,ls),
(376,529,o),
(471,458,o),
(471,334,cs),
(471,232,o),
(404,156,o),
(296,156,cs),
(204,156,o),
(111,211,o),
(99,326,c),
(83,326,l),
(83,64,l),
(100,64,l),
(100,265,l),
(118,207,o),
(187,140,o),
(296,140,cs),
(412,140,o),
(488,220,o),
(488,334,cs),
(488,438,o),
(425,504,o),
(338,529,c),
(696,529,l),
(696,545,l),
(243,545,l)
);
}
);
width = 525;
}
);
note = dvJ_NY;
},
{
glyphname = dvKx;
layers = (
{
layerId = m01;
shapes = (
{
closed = 1;
nodes = (
(507,0,l),
(523,0,l),
(523,351,ls),
(523,449,o),
(578,568,o),
(722,568,cs),
(828,568,o),
(919,490,o),
(919,359,c),
(936,359,l),
(936,499,o),
(838,584,o),
(722,584,cs),
(609,584,o),
(547,517,o),
(523,440,c),
(523,724,l),
(936,724,l),
(936,740,l),
(-35,740,l),
(-35,724,l),
(507,724,l),
(507,443,l),
(482,518,o),
(418,584,o),
(304,584,cs),
(184,584,o),
(85,499,o),
(85,359,cs),
(85,212,o),
(181,127,o),
(304,127,cs),
(416,127,o),
(482,193,o),
(507,268,c)
);
},
{
closed = 1;
nodes = (
(191,143,o),
(102,221,o),
(102,359,cs),
(102,490,o),
(194,568,o),
(304,568,cs),
(450,568,o),
(507,453,o),
(507,355,cs),
(507,354,ls),
(507,263,o),
(450,143,o),
(304,143,cs)
);
},
{
closed = 1;
nodes = (
(312,-21,o),
(322,-11,o),
(322,3,cs),
(322,17,o),
(312,27,o),
(298,27,cs),
(283,27,o),
(273,17,o),
(273,3,cs),
(273,-11,o),
(283,-21,o),
(298,-21,cs)
);
}
);
width = 771;
}
);
note = dvKx;
},
{
glyphname = dvKHx;
layers = (
{
layerId = m01;
shapes = (
{
closed = 1;
nodes = (
(-35,724,l),
(293,724,l),
(293,563,ls),
(293,419,o),
(213,394,o),
(144,394,cs),
(100,394,l),
(100,214,ls),
(100,82,o),
(188,0,o),
(320,0,cs),
(436,0,o),
(509,78,o),
(538,165,c),
(554,162,o),
(571,160,o),
(588,160,cs),
(710,160,o),
(794,237,o),
(794,362,cs),
(794,487,o),
(712,565,o),
(588,565,cs),
(465,565,o),
(383,487,o),
(383,362,cs),
(383,264,o),
(436,192,o),
(522,169,c),
(497,90,o),
(428,16,o),
(321,16,cs),
(196,16,o),
(117,94,o),
(117,214,cs),
(117,378,l),
(124,378,o),
(131,378,o),
(138,378,cs),
(226,378,o),
(310,410,o),
(310,563,cs),
(310,724,l),
(794,724,l),
(794,740,l),
(-35,740,l)
);
},
{
closed = 1;
nodes = (
(322,-148,o),
(332,-138,o),
(332,-124,cs),
(332,-110,o),
(322,-100,o),
(308,-100,cs),
(293,-100,o),
(283,-110,o),
(283,-124,cs),
(283,-138,o),
(293,-148,o),
(308,-148,cs)
);
},
{
closed = 1;
nodes = (
(400,476,o),
(475,549,o),
(588,549,cs),
(702,549,o),
(777,476,o),
(777,362,cs),
(777,250,o),
(702,176,o),
(588,176,cs),
(475,176,o),
(400,250,o),
(400,362,cs)
);
}
);
width = 679;
}
);
note = dvKHx;
},
{
glyphname = dvGx;
layers = (
{
layerId = m01;
shapes = (
{
closed = 1;
nodes = (
(-35,724,l),
(297,724,l),
(297,414,ls),
(297,353,o),
(273,289,o),
(186,289,cs),
(103,289,o),
(76,354,o),
(76,411,cs),
(76,442,l),
(59,442,l),
(59,412,ls),
(59,343,o),
(95,273,o),
(186,273,cs),
(280,273,o),
(314,340,o),
(314,414,cs),
(314,724,l),
(455,724,l),
(455,740,l),
(-35,740,l)
);
},
{
closed = 1;
nodes = (
(208,118,o),
(218,128,o),
(218,142,cs),
(218,156,o),
(208,166,o),
(194,166,cs),
(179,166,o),
(169,156,o),
(169,142,cs),
(169,128,o),
(179,118,o),
(194,118,cs)
);
}
);
width = 420;
}
);
note = dvGx;
},
{
glyphname = dvJx;
layers = (
{
layerId = m01;
shapes = (
{
closed = 1;
nodes = (
(359,159,o),
(422,234,o),
(422,340,cs),
(422,493,l),
(684,493,l),
(684,509,l),
(405,509,l),
(405,339,ls),
(405,243,o),
(348,175,o),
(256,175,cs),
(168,175,o),
(113,243,o),
(113,339,cs),
(113,509,l),
(96,509,l),
(96,340,ls),
(96,234,o),
(156,159,o),
(255,159,cs)
);
},
{
closed = 1;
nodes = (
(-35,724,l),
(684,724,l),
(684,740,l),
(-35,740,l)
);
},
{
closed = 1;
nodes = (
(276,11,o),
(286,21,o),
(286,35,cs),
(286,49,o),
(276,59,o),
(262,59,cs),
(247,59,o),
(237,49,o),
(237,35,cs),
(237,21,o),
(247,11,o),
(262,11,cs)
);
}
);
width = 541;
}
);
note = dvJx;
},
{
glyphname = dvPHx;
layers = (
{
layerId = m01;
shapes = (
{
closed = 1;
nodes = (
(173,247,o),
(117,330,o),
(117,469,cs),
(117,724,l),
(471,724,l),
(471,435,ls),
(471,333,o),
(409,247,o),
(297,247,cs)
);
},
{
closed = 1;
nodes = (
(-35,724,l),
(100,724,l),
(100,469,ls),
(100,320,o),
(165,231,o),
(296,231,cs),
(385,231,o),
(446,279,o),
(471,352,c),
(471,0,l),
(488,0,l),
(488,351,ls),
(488,449,o),
(543,568,o),
(687,568,cs),
(813,568,o),
(884,490,o),
(884,359,c),
(901,359,l),
(901,499,o),
(823,584,o),
(687,584,cs),
(573,584,o),
(511,515,o),
(488,438,c),
(488,724,l),
(901,724,l),
(901,740,l),
(-35,740,l)
);
},
{
closed = 1;
nodes = (
(303,83,o),
(313,93,o),
(313,107,cs),
(313,121,o),
(303,131,o),
(289,131,cs),
(274,131,o),
(264,121,o),
(264,107,cs),
(264,93,o),
(274,83,o),
(289,83,cs)
);
}
);
width = 771;
}
);
note = dvPHx;
},
{
glyphname = dvAnusvara;
layers = (
{
layerId = m01;
shapes = (
{
closed = 1;
nodes = (
(-121,855,o),
(-111,865,o),
(-111,879,cs),
(-111,893,o),
(-121,903,o),
(-135,903,cs),
(-150,903,o),
(-160,893,o),
(-160,879,cs),
(-160,865,o),
(-150,855,o),
(-135,855,cs)
);
}
);
width = 0;
}
);
note = dvAnusvara;
unicode = 2306;
},
{
glyphname = dvCandrabindu;
layers = (
{
layerId = m01;
shapes = (
{
closed = 1;
nodes = (
(-17,824,o),
(35,905,o),
(35,969,c),
(19,969,l),
(19,911,o),
(-28,840,o),
(-136,840,cs),
(-245,840,o),
(-291,911,o),
(-291,969,c),
(-307,969,l),
(-307,905,o),
(-256,824,o),
(-136,824,cs)
);
},
{
closed = 1;
nodes = (
(-121,978,o),
(-111,988,o),
(-111,1002,cs),
(-111,1016,o),
(-121,1026,o),
(-135,1026,cs),
(-150,1026,o),
(-160,1016,o),
(-160,1002,cs),
(-160,988,o),
(-150,978,o),
(-135,978,cs)
);
}
);
width = 0;
}
);
note = dvCandrabindu;
unicode = 2305;
},
{
glyphname = dvVisarga;
layers = (
{
layerId = m01;
shapes = (
{
closed = 1;
nodes = (
(109,489,o),
(119,499,o),
(119,513,cs),
(119,527,o),
(109,537,o),
(95,537,cs),
(80,537,o),
(70,527,o),
(70,513,cs),
(70,499,o),
(80,489,o),
(95,489,cs)
);
},
{
closed = 1;
nodes = (
(109,173,o),
(119,183,o),
(119,197,cs),
(119,211,o),
(109,221,o),
(95,221,cs),
(80,221,o),
(70,211,o),
(70,197,cs),
(70,183,o),
(80,173,o),
(95,173,cs)
);
}
);
width = 189;
}
);
note = dvVisarga;
unicode = 2307;
},
{
glyphname = dvAvagraha;
layers = (
{
layerId = m01;
shapes = (
{
closed = 1;
nodes = (
(93,75,l),
(324,75,ls),
(419,75,o),
(451,129,o),
(451,177,cs),
(451,326,o),
(164,428,o),
(164,571,cs),
(164,640,o),
(219,656,o),
(283,656,cs),
(463,656,l),
(463,672,l),
(281,672,ls),
(212,672,o),
(147,651,o),
(147,571,cs),
(147,416,o),
(434,315,o),
(434,177,cs),
(434,131,o),
(398,91,o),
(324,91,cs),
(93,91,l)
);
}
);
width = 558;
}
);
note = dvAvagraha;
unicode = 2365;
},
{
glyphname = dvVirama;
layers = (
{
layerId = m01;
shapes = (
{
closed = 1;
nodes = (
(-26,-244,l),
(-7,-244,l),
(-123,-66,l),
(-141,-66,l)
);
}
);
width = 0;
}
);
note = dvVirama;
unicode = 2381;
},
{
glyphname = dvNukta;
layers = (
{
layerId = m01;
shapes = (
{
closed = 1;
nodes = (
(-413,-45,o),
(-403,-35,o),
(-403,-21,cs),
(-403,-7,o),
(-413,3,o),
(-427,3,cs),
(-442,3,o),
(-452,-7,o),
(-452,-21,cs),
(-452,-35,o),
(-442,-45,o),
(-427,-45,cs)
);
}
);
width = 0;
}
);
note = dvNukta;
unicode = 2364;
},
{
glyphname = dvZero;
layers = (
{
layerId = m01;
shapes = (
{
closed = 1;
nodes = (
(70,149,o),
(106,-7,o),
(294,-7,cs),
(481,-7,o),
(518,149,o),
(518,354,cs),
(518,557,o),
(481,711,o),
(294,711,cs),
(106,711,o),
(70,557,o),
(70,354,cs)
);
},
{
closed = 1;
nodes = (
(498,159,o),
(467,11,o),
(294,11,cs),
(121,11,o),
(90,159,o),
(90,354,cs),
(90,547,o),
(121,693,o),
(294,693,cs),
(467,693,o),
(498,547,o),
(498,354,cs)
);
}
);
width = 588;
}
);
note = dvZero;
unicode = 2406;
},
{
glyphname = dvOne;
layers = (
{
layerId = m01;
shapes = (
{
closed = 1;
nodes = (
(121,0,l),
(141,0,l),
(141,704,l),
(15,704,l),
(15,686,l),
(121,686,l)
);
}
);
width = 226;
}
);
note = dvOne;
unicode = 2407;
},
{
glyphname = dvTwo;
layers = (
{
layerId = m01;
shapes = (
{
closed = 1;
nodes = (
(50,0,l),
(517,0,l),
(517,18,l),
(88,18,l),
(255,117,o),
(493,325,o),
(493,515,cs),
(493,661,o),
(393,711,o),
(293,711,cs),
(159,711,o),
(77,623,o),
(66,480,c),
(86,480,l),
(95,599,o),
(157,693,o),
(293,693,cs),
(432,693,o),
(473,606,o),
(473,515,cs),
(473,351,o),
(296,170,o),
(50,11,c)
);
}
);
width = 567;
}
);
note = dvTwo;
unicode = 2408;
},
{
glyphname = dvThree;
layers = (
{
layerId = m01;
shapes = (
{
closed = 1;
nodes = (
(86,516,l),
(102,645,o),
(198,693,o),
(297,693,cs),
(412,693,o),
(475,628,o),
(475,537,cs),
(475,438,o),
(403,376,o),
(227,376,cs),
(209,376,l),
(209,357,l),
(226,357,ls),
(388,357,o),
(488,297,o),
(488,179,cs),
(488,87,o),
(427,13,o),
(296,13,cs),
(168,13,o),
(92,92,o),
(73,197,c),
(53,197,l),
(75,68,o),
(164,-7,o),
(296,-7,cs),
(445,-7,o),
(508,78,o),
(508,179,cs),
(508,291,o),
(427,352,o),
(320,364,c),
(320,370,l),
(455,381,o),
(495,463,o),
(495,537,cs),
(495,635,o),
(426,711,o),
(297,711,cs),
(161,711,o),
(79,635,o),
(66,516,c)
);
}
);
width = 575;
}
);
note = dvThree;
unicode = 2409;
},
{
glyphname = dvFour;
layers = (
{
layerId = m01;
shapes = (
{
closed = 1;
nodes = (
(417,0,l),
(437,0,l),
(437,190,l),
(559,190,l),
(559,208,l),
(437,208,l),
(437,704,l),
(417,704,l),
(20,206,l),
(20,190,l),
(417,190,l)
);
},
{
closed = 1;
nodes = (
(45,208,l),
(417,672,l),
(417,208,l)
);
}
);
width = 574;
}
);
note = dvFour;
unicode = 2410;
},
{
glyphname = dvFive;
layers = (
{
layerId = m01;
shapes = (
{
closed = 1;
nodes = (
(81,704,l),
(81,333,l),
(99,333,l),
(139,401,o),
(215,443,o),
(308,443,cs),
(444,443,o),
(517,362,o),
(517,236,cs),
(517,109,o),
(450,13,o),
(303,13,cs),
(196,13,o),
(113,73,o),
(90,192,c),
(70,192,l),
(89,68,o),
(179,-7,o),
(304,-7,cs),
(473,-7,o),
(537,112,o),
(537,236,cs),
(537,352,o),
(474,461,o),
(308,461,cs),
(219,461,o),
(139,422,o),
(101,366,c),
(101,686,l),
(503,686,l),
(503,704,l)
);
}
);
width = 592;
}
);
note = dvFive;
unicode = 2411;
},
{
glyphname = dvSix;
layers = (
{
layerId = m01;
shapes = (
{
closed = 1;
nodes = (
(525,522,l),
(511,635,o),
(444,712,o),
(320,712,cs),
(134,712,o),
(70,564,o),
(70,339,cs),
(70,161,o),
(109,-7,o),
(327,-7,cs),
(494,-7,o),
(554,109,o),
(554,224,cs),
(554,374,o),
(471,468,o),
(322,468,cs),
(205,468,o),
(107,403,o),
(90,297,c),
(77,588,o),
(168,694,o),
(320,694,cs),
(430,694,o),
(491,628,o),
(505,522,c)
);
},
{
closed = 1;
nodes = (
(451,450,o),
(534,373,o),
(534,224,cs),
(534,90,o),
(450,11,o),
(327,11,cs),
(160,11,o),
(96,132,o),
(96,245,cs),
(96,386,o),
(217,450,o),
(322,450,cs)
);
}
);
width = 614;
}
);
note = dvSix;
unicode = 2412;
},
{
glyphname = dvSeven;
layers = (
{
layerId = m01;
shapes = (
{
closed = 1;
nodes = (
(10,704,l),
(10,686,l),
(445,686,l),
(161,0,l),
(182,0,l),
(462,686,l),
(462,704,l)
);
}
);
width = 502;
}
);
note = dvSeven;
unicode = 2413;
},
{
glyphname = dvEight;
layers = (
{
layerId = m01;
shapes = (
{
closed = 1;
nodes = (
(121,344,o),
(55,277,o),
(55,177,cs),
(55,53,o),
(146,-25,o),
(304,-25,cs),
(462,-25,o),
(553,53,o),
(553,177,cs),
(553,277,o),
(487,344,o),
(380,362,c),
(490,385,o),
(533,453,o),
(533,532,cs),
(533,639,o),
(448,711,o),
(304,711,cs),
(160,711,o),
(75,639,o),
(75,532,cs),
(75,453,o),
(118,385,o),
(228,362,c)
);
},
{
closed = 1;
nodes = (
(176,371,o),
(95,429,o),
(95,532,cs),
(95,638,o),
(180,693,o),
(304,693,cs),
(428,693,o),
(513,638,o),
(513,532,cs),
(513,429,o),
(432,371,o),
(304,371,cs)
);
},
{
closed = 1;
nodes = (
(426,353,o),
(533,305,o),
(533,177,cs),
(533,57,o),
(441,-7,o),
(304,-7,cs),
(167,-7,o),
(75,57,o),
(75,177,cs),
(75,305,o),
(182,353,o),
(304,353,cs)
);
}
);
width = 608;
}
);
note = dvEight;
unicode = 2414;
},
{
glyphname = dvNine;
layers = (
{
layerId = m01;
shapes = (
{
closed = 1;
nodes = (
(89,182,l),
(103,69,o),
(170,-8,o),
(294,-8,cs),
(480,-8,o),
(544,140,o),
(544,365,cs),
(544,543,o),
(505,711,o),
(287,711,cs),
(120,711,o),
(60,595,o),
(60,480,cs),
(60,330,o),
(143,236,o),
(292,236,cs),
(409,236,o),
(507,301,o),
(524,407,c),
(537,116,o),
(446,10,o),
(294,10,cs),
(184,10,o),
(123,76,o),
(109,182,c)
);
},
{
closed = 1;
nodes = (
(163,254,o),
(80,331,o),
(80,480,cs),
(80,614,o),
(164,693,o),
(287,693,cs),
(454,693,o),
(518,572,o),
(518,459,cs),
(518,318,o),
(397,254,o),
(292,254,cs)
);
}
);
width = 614;
}
);
note = dvNine;
unicode = 2415;
},
{
glyphname = dvOm;
layers = (
{
layerId = m01;
shapes = (
{
closed = 1;
nodes = (
(420,14,o),
(498,94,o),
(498,214,cs),
(498,273,o),
(476,326,o),
(433,360,c),
(472,360,ls),
(557,360,o),
(618,398,o),
(618,510,cs),
(618,600,o),
(656,674,o),
(768,674,cs),
(887,674,o),
(925,586,o),
(925,442,cs),
(925,292,ls),
(925,134,o),
(873,49,o),
(702,49,cs),
(676,49,o),
(643,53,o),
(607,59,c),
(607,43,l),
(642,37,o),
(674,33,o),
(702,33,cs),
(884,33,o),
(942,124,o),
(942,292,cs),
(942,442,ls),
(942,598,o),
(900,690,o),
(768,690,cs),
(643,690,o),
(601,611,o),
(601,510,cs),
(601,407,o),
(547,376,o),
(472,376,cs),
(409,376,l),
(391,386,o),
(371,393,o),
(348,396,c),
(348,397,l),
(441,413,o),
(484,482,o),
(484,566,cs),
(484,678,o),
(400,749,o),
(292,749,cs),
(184,749,o),
(99,686,o),
(99,577,c),
(116,577,l),
(116,676,o),
(195,733,o),
(292,733,cs),
(387,733,o),
(467,671,o),
(467,562,cs),
(467,489,o),
(417,404,o),
(298,404,cs),
(264,404,l),
(264,388,l),
(298,388,ls),
(433,388,o),
(481,294,o),
(481,214,cs),
(481,105,o),
(410,30,o),
(299,30,cs),
(189,30,o),
(107,103,o),
(107,210,c),
(90,210,l),
(90,93,o),
(181,14,o),
(300,14,cs)
);
},
{
closed = 1;
nodes = (
(707,761,o),
(759,842,o),
(759,906,c),
(743,906,l),
(743,848,o),
(696,777,o),
(588,777,cs),
(479,777,o),
(433,848,o),
(433,906,c),
(417,906,l),
(417,842,o),
(468,761,o),
(588,761,cs)
);
},
{
closed = 1;
nodes = (
(603,915,o),
(613,925,o),
(613,939,cs),
(613,953,o),
(603,963,o),
(589,963,cs),
(574,963,o),
(564,953,o),
(564,939,cs),
(564,925,o),
(574,915,o),
(589,915,cs)
);
}
);
width = 1042;
}
);
note = dvOm;
unicode = 2384;
},
{
glyphname = dvAbbreviationsign;
layers = (
{
layerId = m01;
shapes = (
{
closed = 1;
nodes = (
(162,516,o),
(94,451,o),
(94,360,cs),
(94,269,o),
(162,204,o),
(257,204,cs),
(350,204,o),
(415,268,o),
(415,358,cs),
(415,451,o),
(350,516,o),
(257,516,cs)
);
},
{
closed = 1;
nodes = (
(340,500,o),
(398,441,o),
(398,358,cs),
(398,277,o),
(340,220,o),
(257,220,cs),
(171,220,o),
(111,278,o),
(111,360,cs),
(111,442,o),
(171,500,o),
(257,500,cs)
);
}
);
width = 509;
}
);
note = dvAbbreviationsign;
unicode = 2416;
},
{
glyphname = danda;
layers = (
{
layerId = m01;
shapes = (
{
closed = 1;
nodes = (
(182,742,l),
(165,742,l),
(165,0,l),
(182,0,l)
);
}
);
width = 227;
}
);
note = danda;
unicode = 2404;
},
{
glyphname = doubledanda;
layers = (
{
layerId = m01;
shapes = (
{
closed = 1;
nodes = (
(182,742,l),
(165,742,l),
(165,0,l),
(182,0,l)
);
},
{
closed = 1;
nodes = (
(337,742,l),
(320,742,l),
(320,0,l),
(337,0,l)
);
}
);
width = 382;
}
);
note = doubledanda;
unicode = 2405;
},
{
glyphname = rupee;
layers = (
{
layerId = m01;
shapes = (
{
closed = 1;
nodes = (
(468,401,o),
(414,328,o),
(263,328,cs),
(105,328,l),
(105,684,l),
(263,684,ls),
(414,684,o),
(468,614,o),
(468,505,cs)
);
},
{
closed = 1;
nodes = (
(85,704,l),
(85,0,l),
(105,0,l),
(105,307,l),
(255,307,l),
(470,0,l),
(495,0,l),
(278,307,l),
(415,312,o),
(488,380,o),
(488,505,cs),
(488,622,o),
(423,704,o),
(263,704,cs)
);
},
{
closed = 1;
nodes = (
(573,206,o),
(910,321,o),
(910,133,cs),
(910,64,o),
(862,11,o),
(774,11,cs),
(656,11,o),
(595,80,o),
(587,158,c),
(567,158,l),
(579,57,o),
(659,-7,o),
(773,-7,cs),
(867,-7,o),
(930,51,o),
(930,133,cs),
(930,342,o),
(593,226,o),
(593,407,cs),
(593,479,o),
(646,529,o),
(737,529,cs),
(845,529,o),
(898,458,o),
(906,382,c),
(926,382,l),
(914,483,o),
(845,547,o),
(737,547,cs),
(639,547,o),
(573,493,o),
(573,407,cs)
);
}
);
width = 990;
}
);
note = rupee;
unicode = 8360;
},
{
glyphname = indianrupee;
layers = (
{
layerId = m01;
shapes = (
{
closed = 1;
nodes = (
(65,686,l),
(422,686,l),
(422,550,ls),
(422,540,o),
(422,530,o),
(422,521,c),
(65,521,l),
(65,503,l),
(421,503,l),
(413,369,o),
(359,341,o),
(120,341,c),
(120,188,ls),
(120,70,o),
(178,-10,o),
(304,-10,cs),
(413,-10,o),
(481,55,o),
(481,184,c),
(461,184,l),
(461,71,o),
(408,8,o),
(304,8,cs),
(193,8,o),
(139,76,o),
(139,194,cs),
(139,323,l),
(361,323,o),
(430,353,o),
(440,503,c),
(609,503,l),
(609,521,l),
(441,521,l),
(441,529,o),
(441,539,o),
(441,548,cs),
(441,686,l),
(609,686,l),
(609,704,l),
(65,704,l)
);
}
);
width = 674;
}
);
note = indianrupee;
unicode = 8377;
},
{
glyphname = zerowidthnonjoiner;
layers = (
{
layerId = m01;
shapes = (
{
closed = 1;
nodes = (
(24,-230,l),
(24,811,l),
(-23,811,l),
(-23,-230,l)
);
}
);
width = 0;
}
);
note = zerowidthnonjoiner;
unicode = 8204;
},
{
glyphname = zerowidthjoiner;
layers = (
{
layerId = m01;
shapes = (
{
closed = 1;
nodes = (
(128,593,l),
(32,688,l),
(128,784,l),
(96,816,l),
(0,721,l),
(-95,816,l),
(-128,783,l),
(-33,688,l),
(-126,595,l),
(-93,562,l),
(-24,635,l),
(-24,-230,l),
(23,-230,l),
(23,635,l),
(95,560,l)
);
}
);
width = 0;
}
);
note = zerowidthjoiner;
unicode = 8205;
},
{
glyphname = dottedcircle;
layers = (
{
layerId = m01;
shapes = (
{
closed = 1;
nodes = (
(557,434,o),
(539,451,o),
(514,451,cs),
(489,451,o),
(471,434,o),
(471,409,cs),
(471,384,o),
(489,367,o),
(514,367,cs),
(539,367,o),
(557,384,o),
(557,409,cs)
);
},
{
closed = 1;
nodes = (
(181,148,o),
(163,165,o),
(138,165,cs),
(113,165,o),
(95,148,o),
(95,123,cs),
(95,98,o),
(113,81,o),
(138,81,cs),
(163,81,o),
(181,98,o),
(181,123,cs)
);
},
{
closed = 1;
nodes = (
(279,72,o),
(261,89,o),
(236,89,cs),
(211,89,o),
(193,72,o),
(193,47,cs),
(193,22,o),
(211,5,o),
(236,5,cs),
(261,5,o),
(279,22,o),
(279,47,cs)
);
},
{
closed = 1;
nodes = (
(136,261,o),
(118,278,o),
(93,278,cs),
(68,278,o),
(50,261,o),
(50,236,cs),
(50,211,o),
(68,194,o),
(93,194,cs),
(118,194,o),
(136,211,o),
(136,236,cs)
);
},
{
closed = 1;
nodes = (
(403,58,o),
(385,75,o),
(360,75,cs),
(335,75,o),
(317,58,o),
(317,33,cs),
(317,8,o),
(335,-9,o),
(360,-9,cs),
(385,-9,o),
(403,8,o),
(403,33,cs)
);
},
{
closed = 1;
nodes = (
(151,382,o),
(133,399,o),
(108,399,cs),
(83,399,o),
(65,382,o),
(65,357,cs),
(65,332,o),
(83,315,o),
(108,315,cs),
(133,315,o),
(151,332,o),
(151,357,cs)
);
},
{
closed = 1;
nodes = (
(518,104,o),
(500,121,o),
(475,121,cs),
(450,121,o),
(432,104,o),
(432,79,cs),
(432,54,o),
(450,37,o),
(475,37,cs),
(500,37,o),
(518,54,o),
(518,79,cs)
);
},
{
closed = 1;
nodes = (
(227,481,o),
(209,498,o),
(184,498,cs),
(159,498,o),
(141,481,o),
(141,456,cs),
(141,431,o),
(159,414,o),
(184,414,cs),
(209,414,o),
(227,431,o),
(227,456,cs)
);
},
{
closed = 1;
nodes = (
(591,200,o),
(573,217,o),
(548,217,cs),
(523,217,o),
(505,200,o),
(505,175,cs),
(505,150,o),
(523,133,o),
(548,133,cs),
(573,133,o),
(591,150,o),
(591,175,cs)
);
},
{
closed = 1;
nodes = (
(344,523,o),
(326,540,o),
(301,540,cs),
(276,540,o),
(258,523,o),
(258,498,cs),
(258,473,o),
(276,456,o),
(301,456,cs),
(326,456,o),
(344,473,o),
(344,498,cs)
);
},
{
closed = 1;
nodes = (
(601,320,o),
(583,337,o),
(558,337,cs),
(533,337,o),
(515,320,o),
(515,295,cs),
(515,270,o),
(533,253,o),
(558,253,cs),
(583,253,o),
(601,270,o),
(601,295,cs)
);
},
{
closed = 1;
nodes = (
(465,508,o),
(447,525,o),
(422,525,cs),
(397,525,o),
(379,508,o),
(379,483,cs),
(379,458,o),
(397,441,o),
(422,441,cs),
(447,441,o),
(465,458,o),
(465,483,cs)
);
}
);
width = 651;
}
);
note = dottedcircle;
unicode = 9676;
},
{
glyphname = dvReph;
layers = (
{
layerId = m01;
shapes = (
{
closed = 1;
nodes = (
(-144,733,l),
(-127,733,l),
(-127,822,ls),
(-127,924,o),
(-86,978,o),
(-6,978,cs),
(65,978,o),
(109,926,o),
(109,858,c),
(125,858,l),
(125,936,o),
(75,994,o),
(-6,994,cs),
(-93,994,o),
(-144,937,o),
(-144,823,cs)
);
}
);
width = 0;
}
);
note = dvReph;
},
{
glyphname = dvEyelash;
layers = (
{
layerId = m01;
shapes = (
{
closed = 1;
nodes = (
(323,441,l),
(307,439,o),
(288,436,o),
(255,436,cs),
(159,436,o),
(47,474,o),
(47,597,c),
(31,597,l),
(31,463,o),
(151,419,o),
(253,419,cs),
(284,419,o),
(313,422,o),
(325,425,c)
);
},
{
closed = 1;
nodes = (
(-35,724,l),
(297,724,l),
(297,740,l),
(-35,740,l)
);
}
);
width = 240;
}
);
note = dvEyelash;
},
{
glyphname = dvRashtrasign;
layers = (
{
layerId = m01;
shapes = (
{
closed = 1;
nodes = (
(-372,-97,l),
(-349,-97,l),
(-176,72,l),
(-2,-97,l),
(21,-97,l),
(-164,82,l),
(-187,82,l)
);
}
);
width = 0;
}
);
note = dvRashtrasign;
},
{
glyphname = dvK_RA;
layers = (
{
layerId = m01;
shapes = (
{
closed = 1;
nodes = (
(507,0,l),
(523,0,l),
(523,351,ls),
(523,449,o),
(578,568,o),
(722,568,cs),
(828,568,o),
(919,490,o),
(919,359,cs),
(919,221,o),
(834,143,o),
(725,143,cs),
(706,143,o),
(685,145,o),
(668,149,c),
(668,133,l),
(681,130,o),
(704,127,o),
(725,127,cs),
(844,127,o),
(936,212,o),
(936,359,cs),
(936,499,o),
(838,584,o),
(722,584,cs),
(609,584,o),
(547,517,o),
(523,440,c),
(523,724,l),
(1056,724,l),
(1056,740,l),
(-35,740,l),
(-35,724,l),
(507,724,l),
(507,443,l),
(482,518,o),
(418,584,o),
(304,584,cs),
(184,584,o),
(85,499,o),
(85,359,cs),
(85,212,o),
(181,127,o),
(304,127,cs),
(333,127,o),
(359,131,o),
(382,139,c),
(171,-46,l),
(194,-46,l),
(441,172,ls),
(473,198,o),
(495,232,o),
(507,268,c)
);
},
{
closed = 1;
nodes = (
(191,143,o),
(102,221,o),
(102,359,cs),
(102,490,o),
(194,568,o),
(304,568,cs),
(450,568,o),
(507,453,o),
(507,355,cs),
(507,354,ls),
(507,263,o),
(450,143,o),
(304,143,cs)
);
}
);
width = 1021;
}
);
note = dvK_RA;
},
{
glyphname = dvKH_RA;
layers = (
{
layerId = m01;
shapes = (
{
closed = 1;
nodes = (
(765,0,l),
(782,0,l),
(782,724,l),
(944,724,l),
(944,740,l),
(-35,740,l),
(-35,724,l),
(293,724,l),
(293,563,ls),
(293,419,o),
(213,394,o),
(144,394,cs),
(100,394,l),
(100,214,ls),
(100,82,o),
(188,0,o),
(320,0,cs),
(349,0,o),
(375,5,o),
(399,13,c),
(214,-149,l),
(214,-151,l),
(234,-151,l),
(472,59,l),
(472,59,l),
(502,88,o),
(523,125,o),
(536,164,c),
(552,161,o),
(568,159,o),
(585,159,cs),
(684,159,o),
(743,218,o),
(765,285,c)
);
},
{
closed = 1;
nodes = (
(483,175,o),
(400,244,o),
(400,366,cs),
(400,481,o),
(486,549,o),
(585,549,cs),
(714,549,o),
(765,448,o),
(765,362,cs),
(765,361,ls),
(765,280,o),
(714,175,o),
(585,175,cs)
);
},
{
closed = 1;
nodes = (
(196,16,o),
(117,94,o),
(117,214,cs),
(117,378,l),
(124,378,o),
(131,378,o),
(138,378,cs),
(226,378,o),
(310,410,o),
(310,563,cs),
(310,724,l),
(765,724,l),
(765,441,l),
(743,507,o),
(686,565,o),
(585,565,cs),
(474,565,o),
(383,490,o),
(383,366,cs),
(383,260,o),
(440,191,o),
(521,168,c),
(494,87,o),
(426,16,o),
(321,16,cs)
);
}
);
width = 909;
}
);
note = dvKH_RA;
},
{
glyphname = dvG_RA;
layers = (
{
layerId = m01;
shapes = (
{
closed = 1;
nodes = (
(539,0,l),
(556,0,l),
(556,724,l),
(718,724,l),
(718,740,l),
(-35,740,l),
(-35,724,l),
(297,724,l),
(297,454,ls),
(297,393,o),
(273,329,o),
(186,329,cs),
(103,329,o),
(76,394,o),
(76,451,cs),
(76,482,l),
(59,482,l),
(59,452,ls),
(59,383,o),
(95,313,o),
(186,313,cs),
(280,313,o),
(314,380,o),
(314,454,cs),
(314,724,l),
(539,724,l),
(539,332,l),
(188,-20,l),
(210,-20,l),
(539,310,l)
);
}
);
width = 683;
}
);
note = dvG_RA;
},
{
glyphname = dvGH_RA;
layers = (
{
layerId = m01;
shapes = (
{
closed = 1;
nodes = (
(208,132,o),
(115,185,o),
(115,299,cs),
(115,382,o),
(172,451,o),
(314,451,cs),
(368,451,l),
(368,467,l),
(314,467,ls),
(188,467,o),
(136,521,o),
(136,622,cs),
(136,724,l),
(577,724,l),
(577,364,ls),
(577,227,o),
(466,132,o),
(329,132,cs)
);
},
{
closed = 1;
nodes = (
(-35,724,l),
(119,724,l),
(119,622,ls),
(119,513,o),
(181,468,o),
(254,460,c),
(254,458,l),
(171,451,o),
(98,395,o),
(98,299,cs),
(98,178,o),
(192,116,o),
(329,116,cs),
(369,116,o),
(407,123,o),
(440,136,c),
(218,-58,l),
(241,-58,l),
(507,177,ls),
(539,203,o),
(563,237,o),
(577,276,c),
(577,0,l),
(594,0,l),
(594,724,l),
(756,724,l),
(756,740,l),
(-35,740,l)
);
}
);
width = 721;
}
);
note = dvGH_RA;
},
{
glyphname = dvNG_RA;
layers = (
{
layerId = m01;
shapes = (
{
closed = 1;
nodes = (
(583,391,o),
(593,401,o),
(593,415,cs),
(593,429,o),
(583,439,o),
(569,439,cs),
(554,439,o),
(544,429,o),
(544,415,cs),
(544,401,o),
(554,391,o),
(569,391,cs)
);
},
{
closed = 1;
nodes = (
(-35,724,l),
(444,724,l),
(444,562,l),
(284,562,ls),
(201,562,o),
(105,535,o),
(105,429,cs),
(105,338,o),
(178,298,o),
(270,298,cs),
(315,298,ls),
(404,298,o),
(503,268,o),
(503,150,cs),
(503,72,o),
(446,7,o),
(322,7,cs),
(172,7,o),
(105,88,o),
(105,184,c),
(88,184,l),
(88,81,o),
(159,0,o),
(298,-8,c),
(122,-179,l),
(145,-179,l),
(318,-10,l),
(492,-179,l),
(515,-179,l),
(339,-9,l),
(461,-3,o),
(520,66,o),
(520,150,cs),
(520,276,o),
(416,314,o),
(316,314,cs),
(271,314,ls),
(194,314,o),
(122,343,o),
(122,429,cs),
(122,528,o),
(216,546,o),
(292,546,cs),
(461,546,l),
(461,724,l),
(657,724,l),
(657,740,l),
(-35,740,l)
);
}
);
width = 622;
}
);
note = dvNG_RA;
},
{
glyphname = dvC_RA;
layers = (
{
layerId = m01;
shapes = (
{
closed = 1;
nodes = (
(-35,724,l),
(574,724,l),
(574,333,ls),
(574,227,o),
(485,131,o),
(365,131,cs),
(258,131,o),
(164,200,o),
(164,324,cs),
(164,436,o),
(244,525,o),
(377,525,cs),
(406,525,l),
(406,541,l),
(49,541,l),
(49,525,l),
(290,525,l),
(200,496,o),
(147,421,o),
(147,324,cs),
(147,190,o),
(248,115,o),
(366,115,cs),
(394,115,o),
(421,120,o),
(446,129,c),
(247,-46,l),
(270,-46,l),
(512,167,ls),
(539,190,o),
(561,220,o),
(574,253,c),
(574,0,l),
(591,0,l),
(591,724,l),
(753,724,l),
(753,740,l),
(-35,740,l)
);
}
);
width = 718;
}
);
note = dvC_RA;
},
{
glyphname = dvCH_RA;
layers = (
{
layerId = m01;
shapes = (
{
closed = 1;
nodes = (
(-35,724,l),
(114,724,l),
(114,589,ls),
(114,480,o),
(176,435,o),
(249,427,c),
(249,425,l),
(161,417,o),
(84,359,o),
(84,251,cs),
(84,110,o),
(210,33,o),
(394,33,cs),
(400,33,o),
(405,33,o),
(411,33,c),
(236,-136,l),
(259,-136,l),
(432,33,l),
(606,-136,l),
(629,-136,l),
(451,36,l),
(630,56,o),
(761,171,o),
(761,356,cs),
(761,494,o),
(682,557,o),
(600,561,c),
(600,724,l),
(846,724,l),
(846,740,l),
(-35,740,l)
);
},
{
closed = 1;
nodes = (
(227,49,o),
(101,116,o),
(101,251,cs),
(101,342,o),
(161,418,o),
(309,418,cs),
(333,418,l),
(333,434,l),
(309,434,ls),
(183,434,o),
(131,488,o),
(131,589,cs),
(131,724,l),
(583,724,l),
(583,561,l),
(511,558,o),
(431,516,o),
(431,397,cs),
(431,365,o),
(437,329,o),
(451,290,c),
(468,290,l),
(455,329,o),
(448,365,o),
(448,397,cs),
(448,510,o),
(529,545,o),
(591,545,cs),
(664,545,o),
(744,488,o),
(744,355,cs),
(744,167,o),
(589,49,o),
(394,49,cs)
);
}
);
width = 811;
}
);
note = dvCH_RA;
},
{
glyphname = dvJ_RA;
layers = (
{
layerId = m01;
shapes = (
{
closed = 1;
nodes = (
(-35,724,l),
(679,724,l),
(679,509,l),
(405,509,l),
(405,409,ls),
(405,313,o),
(348,245,o),
(256,245,cs),
(168,245,o),
(113,313,o),
(113,409,cs),
(113,509,l),
(96,509,l),
(96,410,ls),
(96,304,o),
(156,229,o),
(255,229,cs),
(359,229,o),
(422,304,o),
(422,410,cs),
(422,493,l),
(679,493,l),
(679,332,l),
(328,-20,l),
(350,-20,l),
(679,310,l),
(679,0,l),
(696,0,l),
(696,724,l),
(858,724,l),
(858,740,l),
(-35,740,l)
);
}
);
width = 823;
}
);
note = dvJ_RA;
},
{
glyphname = dvJH_RA;
layers = (
{
layerId = m01;
shapes = (
{
closed = 1;
nodes = (
(727,724,l),
(727,314,l),
(271,314,ls),
(192,314,o),
(119,343,o),
(119,429,cs),
(119,528,o),
(215,546,o),
(292,546,cs),
(461,546,l),
(461,724,l)
);
},
{
closed = 1;
nodes = (
(727,0,l),
(744,0,l),
(744,724,l),
(906,724,l),
(906,740,l),
(-35,740,l),
(-35,724,l),
(444,724,l),
(444,562,l),
(284,562,ls),
(200,562,o),
(102,535,o),
(102,429,cs),
(102,338,o),
(178,298,o),
(270,298,cs),
(315,298,ls),
(436,298,o),
(503,242,o),
(503,150,cs),
(503,80,o),
(456,16,o),
(342,16,cs),
(210,16,o),
(145,92,o),
(131,173,c),
(116,173,l),
(116,-71,l),
(133,-71,l),
(133,117,l),
(143,88,o),
(196,0,o),
(341,0,cs),
(466,0,o),
(520,70,o),
(520,150,cs),
(520,239,o),
(467,284,o),
(403,300,c),
(727,299,l),
(727,250,l),
(489,-100,l),
(510,-100,l),
(727,221,l)
);
}
);
width = 871;
}
);
note = dvJH_RA;
},
{
glyphname = dvNY_RA;
layers = (
{
layerId = m01;
shapes = (
{
closed = 1;
nodes = (
(-35,724,l),
(693,724,l),
(693,383,l),
(513,383,l),
(507,484,o),
(440,583,o),
(294,583,cs),
(157,583,o),
(101,497,o),
(85,428,c),
(102,428,l),
(116,489,o),
(170,567,o),
(294,567,cs),
(430,567,o),
(496,473,o),
(496,370,cs),
(496,262,o),
(430,168,o),
(294,168,cs),
(174,168,o),
(111,244,o),
(102,306,c),
(85,306,l),
(95,239,o),
(160,151,o),
(294,151,cs),
(444,151,o),
(512,259,o),
(513,367,c),
(693,367,l),
(693,278,l),
(346,-70,l),
(368,-70,l),
(693,256,l),
(693,0,l),
(710,0,l),
(710,724,l),
(872,724,l),
(872,740,l),
(-35,740,l)
);
}
);
width = 787;
}
);
note = dvNY_RA;
},
{
glyphname = dvTT_RA;
layers = (
{
layerId = m01;
shapes = (
{
closed = 1;
nodes = (
(-35,724,l),
(424,724,l),
(424,573,l),
(373,573,ls),
(212,573,o),
(85,492,o),
(85,311,cs),
(85,174,o),
(182,75,o),
(315,64,c),
(138,-107,l),
(161,-107,l),
(334,62,l),
(508,-107,l),
(531,-107,l),
(355,63,l),
(498,70,o),
(594,174,o),
(594,320,c),
(577,320,l),
(577,179,o),
(479,79,o),
(340,79,cs),
(204,79,o),
(102,176,o),
(102,312,cs),
(102,479,o),
(220,557,o),
(373,557,cs),
(441,557,l),
(441,724,l),
(689,724,l),
(689,740,l),
(-35,740,l)
);
}
);
width = 654;
}
);
note = dvTT_RA;
},
{
glyphname = dvTTH_RA;
layers = (
{
layerId = m01;
shapes = (
{
closed = 1;
nodes = (
(204,79,o),
(102,176,o),
(102,311,cs),
(102,447,o),
(204,543,o),
(340,543,cs),
(476,543,o),
(578,447,o),
(578,311,cs),
(578,176,o),
(476,79,o),
(340,79,cs)
);
},
{
closed = 1;
nodes = (
(514,-107,l),
(537,-107,l),
(361,64,l),
(496,73,o),
(595,173,o),
(595,311,cs),
(595,453,o),
(490,555,o),
(348,559,c),
(348,724,l),
(715,724,l),
(715,740,l),
(-35,740,l),
(-35,724,l),
(331,724,l),
(331,559,l),
(190,555,o),
(85,453,o),
(85,311,cs),
(85,173,o),
(184,72,o),
(320,64,c),
(144,-107,l),
(167,-107,l),
(340,62,l)
);
}
);
width = 680;
}
);
note = dvTTH_RA;
},
{
glyphname = dvDD_RA;
layers = (
{
layerId = m01;
shapes = (
{
closed = 1;
nodes = (
(-35,724,l),
(436,724,l),
(436,562,l),
(284,562,ls),
(201,562,o),
(105,535,o),
(105,429,cs),
(105,338,o),
(178,298,o),
(270,298,cs),
(315,298,ls),
(404,298,o),
(503,268,o),
(503,150,cs),
(503,72,o),
(446,7,o),
(322,7,cs),
(172,7,o),
(105,88,o),
(105,184,c),
(88,184,l),
(88,83,o),
(156,3,o),
(291,-8,c),
(114,-179,l),
(137,-179,l),
(310,-10,l),
(484,-179,l),
(507,-179,l),
(331,-9,l),
(458,-6,o),
(520,64,o),
(520,150,cs),
(520,276,o),
(416,314,o),
(316,314,cs),
(271,314,ls),
(194,314,o),
(122,343,o),
(122,429,cs),
(122,528,o),
(216,546,o),
(292,546,cs),
(453,546,l),
(453,724,l),
(617,724,l),
(617,740,l),
(-35,740,l)
);
}
);
width = 582;
}
);
note = dvDD_RA;
},
{
glyphname = dvDDH_RA;
layers = (
{
layerId = m01;
shapes = (
{
closed = 1;
nodes = (
(-35,724,l),
(442,724,l),
(442,573,l),
(383,573,ls),
(216,573,o),
(85,487,o),
(85,294,cs),
(85,145,o),
(189,39,o),
(332,25,c),
(155,-147,l),
(178,-147,l),
(351,22,l),
(525,-147,l),
(548,-147,l),
(372,23,l),
(497,23,o),
(586,102,o),
(586,211,cs),
(586,304,o),
(523,371,o),
(429,371,cs),
(351,371,o),
(285,319,o),
(285,233,cs),
(285,226,o),
(286,216,o),
(287,210,c),
(304,210,l),
(303,216,o),
(302,225,o),
(302,232,cs),
(302,308,o),
(362,355,o),
(429,355,cs),
(511,355,o),
(569,294,o),
(569,211,cs),
(569,112,o),
(485,39,o),
(367,39,cs),
(216,39,o),
(102,143,o),
(102,295,cs),
(102,474,o),
(224,557,o),
(383,557,cs),
(459,557,l),
(459,724,l),
(663,724,l),
(663,740,l),
(-35,740,l)
);
}
);
width = 628;
}
);
note = dvDDH_RA;
},
{
glyphname = dvNN_RA;
layers = (
{
layerId = m01;
shapes = (
{
closed = 1;
nodes = (
(173,301,o),
(117,369,o),
(117,465,cs),
(117,724,l),
(409,724,l),
(409,465,ls),
(409,369,o),
(355,301,o),
(263,301,cs)
);
},
{
closed = 1;
nodes = (
(-35,724,l),
(100,724,l),
(100,466,ls),
(100,360,o),
(161,285,o),
(262,285,cs),
(366,285,o),
(426,360,o),
(426,466,cs),
(426,724,l),
(676,724,l),
(676,331,l),
(326,-20,l),
(348,-20,l),
(676,309,l),
(676,0,l),
(693,0,l),
(693,724,l),
(855,724,l),
(855,740,l),
(-35,740,l)
);
}
);
width = 820;
}
);
note = dvNN_RA;
},
{
glyphname = dvT_RA;
layers = (
{
layerId = m01;
shapes = (
{
closed = 1;
nodes = (
(-35,724,l),
(537,724,l),
(537,412,l),
(505,474,o),
(435,543,o),
(314,543,cs),
(187,543,o),
(85,462,o),
(85,313,c),
(102,313,l),
(102,450,o),
(197,527,o),
(314,527,cs),
(429,527,o),
(510,459,o),
(537,370,c),
(170,2,l),
(170,0,l),
(190,0,l),
(537,348,l),
(537,0,l),
(554,0,l),
(554,724,l),
(716,724,l),
(716,740,l),
(-35,740,l)
);
}
);
width = 681;
}
);
note = dvT_RA;
},
{
glyphname = dvTH_RA;
layers = (
{
layerId = m01;
shapes = (
{
closed = 1;
nodes = (
(597,0,l),
(614,0,l),
(614,724,l),
(776,724,l),
(776,740,l),
(597,740,l),
(597,343,ls),
(597,215,o),
(488,130,o),
(362,130,cs),
(198,130,o),
(110,231,o),
(117,395,c),
(210,395,ls),
(330,395,o),
(452,434,o),
(452,581,cs),
(452,674,o),
(389,749,o),
(285,749,cs),
(178,749,o),
(112,678,o),
(112,577,cs),
(112,560,o),
(114,540,o),
(117,525,c),
(134,525,l),
(131,542,o),
(129,559,o),
(129,575,cs),
(129,668,o),
(186,733,o),
(285,733,cs),
(380,733,o),
(435,665,o),
(435,581,cs),
(435,439,o),
(310,411,o),
(210,411,cs),
(102,411,l),
(101,399,o),
(100,387,o),
(100,376,cs),
(100,217,o),
(194,114,o),
(361,114,cs),
(395,114,o),
(425,119,o),
(452,128,c),
(191,-76,l),
(191,-78,l),
(213,-78,l),
(523,164,ls),
(561,192,o),
(586,229,o),
(597,264,c)
);
}
);
width = 741;
}
);
note = dvTH_RA;
},
{
glyphname = dvD_RA;
layers = (
{
layerId = m01;
shapes = (
{
closed = 1;
nodes = (
(-35,724,l),
(454,724,l),
(454,588,l),
(350,588,ls),
(209,588,o),
(85,515,o),
(85,355,cs),
(85,221,o),
(170,129,o),
(311,129,cs),
(340,129,o),
(368,134,o),
(392,143,c),
(181,-43,l),
(204,-43,l),
(456,179,ls),
(457,180,o),
(458,181,o),
(459,182,cs),
(460,183,l),
(460,183,l),
(478,199,o),
(491,219,o),
(499,240,c),
(499,0,l),
(516,0,l),
(516,321,l),
(501,321,l),
(501,193,o),
(393,145,o),
(313,145,cs),
(184,145,o),
(102,228,o),
(102,355,cs),
(102,502,o),
(217,572,o),
(350,572,cs),
(471,572,l),
(471,724,l),
(642,724,l),
(642,740,l),
(-35,740,l)
);
}
);
width = 607;
}
);
note = dvD_RA;
},
{
glyphname = dvDH_RA;
layers = (
{
layerId = m01;
shapes = (
{
closed = 1;
nodes = (
(348,116,o),
(381,122,o),
(412,134,c),
(193,-58,l),
(217,-58,l),
(479,173,ls),
(511,200,o),
(536,234,o),
(550,275,c),
(550,0,l),
(567,0,l),
(567,724,l),
(729,724,l),
(729,740,l),
(550,740,l),
(550,364,ls),
(550,227,o),
(443,132,o),
(312,132,cs),
(209,132,o),
(120,180,o),
(120,284,cs),
(120,361,o),
(172,424,o),
(291,424,cs),
(345,424,l),
(345,440,l),
(291,440,ls),
(173,440,o),
(115,504,o),
(115,593,cs),
(115,671,o),
(166,733,o),
(254,733,cs),
(343,733,o),
(390,671,o),
(390,601,cs),
(390,596,o),
(390,587,o),
(389,573,c),
(406,573,l),
(407,585,o),
(407,595,o),
(407,600,cs),
(407,687,o),
(349,749,o),
(254,749,cs),
(158,749,o),
(98,681,o),
(98,594,cs),
(98,495,o),
(163,444,o),
(231,432,c),
(231,430,l),
(166,424,o),
(103,372,o),
(103,284,cs),
(103,173,o),
(194,116,o),
(312,116,cs)
);
}
);
width = 694;
}
);
note = dvDH_RA;
},
{
glyphname = dvN_RA;
layers = (
{
layerId = m01;
shapes = (
{
closed = 1;
nodes = (
(159,176,o),
(92,241,o),
(92,334,cs),
(92,430,o),
(161,495,o),
(259,495,cs),
(354,495,o),
(422,429,o),
(422,336,cs),
(422,242,o),
(354,176,o),
(259,176,cs)
);
},
{
closed = 1;
nodes = (
(-35,724,l),
(636,724,l),
(636,511,l),
(261,511,ls),
(150,511,o),
(75,440,o),
(75,334,cs),
(75,233,o),
(147,160,o),
(259,160,cs),
(365,160,o),
(439,233,o),
(439,336,cs),
(439,418,o),
(389,477,o),
(329,496,c),
(636,496,l),
(636,289,l),
(288,-60,l),
(310,-60,l),
(636,267,l),
(636,0,l),
(653,0,l),
(653,724,l),
(815,724,l),
(815,740,l),
(-35,740,l)
);
}
);
width = 780;
}
);
note = dvN_RA;
},
{
glyphname = dvP_RA;
layers = (
{
layerId = m01;
shapes = (
{
closed = 1;
nodes = (
(176,247,o),
(117,330,o),
(117,469,cs),
(117,724,l),
(491,724,l),
(491,435,ls),
(491,333,o),
(425,247,o),
(307,247,cs)
);
},
{
closed = 1;
nodes = (
(-35,724,l),
(100,724,l),
(100,469,ls),
(100,320,o),
(168,231,o),
(306,231,cs),
(334,231,o),
(359,235,o),
(382,243,c),
(121,1,l),
(144,1,l),
(438,275,l),
(462,295,o),
(480,322,o),
(491,352,c),
(491,0,l),
(508,0,l),
(508,724,l),
(670,724,l),
(670,740,l),
(-35,740,l)
);
}
);
width = 635;
}
);
note = dvP_RA;
},
{
glyphname = dvPH_RA;
layers = (
{
layerId = m01;
shapes = (
{
closed = 1;
nodes = (
(173,247,o),
(117,330,o),
(117,469,cs),
(117,724,l),
(471,724,l),
(471,435,ls),
(471,333,o),
(409,247,o),
(297,247,cs)
);
},
{
closed = 1;
nodes = (
(-35,724,l),
(100,724,l),
(100,469,ls),
(100,320,o),
(165,231,o),
(296,231,cs),
(321,231,o),
(343,235,o),
(363,242,c),
(103,0,l),
(126,0,l),
(422,276,ls),
(444,296,o),
(461,322,o),
(471,352,c),
(471,0,l),
(488,0,l),
(488,351,ls),
(488,449,o),
(543,568,o),
(687,568,cs),
(793,568,o),
(884,490,o),
(884,359,cs),
(884,221,o),
(799,143,o),
(690,143,cs),
(671,143,o),
(650,145,o),
(633,149,c),
(633,133,l),
(646,130,o),
(669,127,o),
(690,127,cs),
(809,127,o),
(901,212,o),
(901,359,cs),
(901,499,o),
(803,584,o),
(687,584,cs),
(573,584,o),
(511,515,o),
(488,438,c),
(488,724,l),
(1021,724,l),
(1021,740,l),
(-35,740,l)
);
}
);
width = 986;
}
);
note = dvPH_RA;
},
{
glyphname = dvB_RA;
layers = (
{
layerId = m01;
shapes = (
{
closed = 1;
nodes = (
(490,180,ls),
(517,205,o),
(535,234,o),
(546,264,c),
(546,0,l),
(563,0,l),
(563,724,l),
(725,724,l),
(725,740,l),
(-35,740,l),
(-35,724,l),
(546,724,l),
(546,444,l),
(518,523,o),
(444,593,o),
(324,593,cs),
(192,593,o),
(85,502,o),
(85,353,cs),
(85,207,o),
(196,120,o),
(327,120,cs),
(362,120,o),
(393,126,o),
(419,137,c),
(211,-46,l),
(234,-46,l)
);
},
{
closed = 1;
nodes = (
(477,577,o),
(546,458,o),
(546,355,cs),
(546,307,o),
(529,251,o),
(492,207,c),
(169,519,l),
(209,557,o),
(264,577,o),
(324,577,cs)
);
},
{
closed = 1;
nodes = (
(205,136,o),
(102,215,o),
(102,353,cs),
(102,418,o),
(123,470,o),
(158,508,c),
(482,196,l),
(446,160,o),
(396,136,o),
(327,136,cs)
);
}
);
width = 690;
}
);
note = dvB_RA;
},
{
glyphname = dvBH_RA;
layers = (
{
layerId = m01;
shapes = (
{
closed = 1;
nodes = (
(170,172,o),
(112,223,o),
(112,300,cs),
(112,379,o),
(173,429,o),
(260,429,cs),
(382,429,l),
(382,344,ls),
(382,234,o),
(331,172,o),
(249,172,cs)
);
},
{
closed = 1;
nodes = (
(338,156,o),
(399,221,o),
(399,345,cs),
(399,429,l),
(619,429,l),
(619,290,l),
(269,-60,l),
(293,-60,l),
(619,267,l),
(619,0,l),
(636,0,l),
(636,724,l),
(798,724,l),
(798,740,l),
(619,740,l),
(619,445,l),
(399,445,l),
(399,557,ls),
(399,676,o),
(353,749,o),
(256,749,cs),
(174,749,o),
(115,690,o),
(115,592,cs),
(115,578,o),
(117,563,o),
(119,548,c),
(136,548,l),
(133,564,o),
(132,578,o),
(132,592,cs),
(132,681,o),
(184,732,o),
(256,732,cs),
(344,732,o),
(382,664,o),
(382,556,cs),
(382,445,l),
(260,445,ls),
(162,445,o),
(95,388,o),
(95,300,cs),
(95,215,o),
(156,156,o),
(249,156,cs)
);
}
);
width = 743;
}
);
note = dvBH_RA;
},
{
glyphname = dvM_RA;
layers = (
{
layerId = m01;
shapes = (
{
closed = 1;
nodes = (
(130,182,o),
(72,237,o),
(72,320,cs),
(72,405,o),
(133,459,o),
(220,459,cs),
(342,459,l),
(342,354,ls),
(342,244,o),
(291,182,o),
(209,182,cs)
);
},
{
closed = 1;
nodes = (
(591,475,l),
(359,475,l),
(359,724,l),
(591,724,l)
);
},
{
closed = 1;
nodes = (
(-35,724,l),
(342,724,l),
(342,475,l),
(220,475,ls),
(122,475,o),
(55,414,o),
(55,320,cs),
(55,229,o),
(116,166,o),
(209,166,cs),
(301,166,o),
(359,228,o),
(359,355,cs),
(359,459,l),
(591,459,l),
(591,292,l),
(239,-60,l),
(263,-60,l),
(591,269,l),
(591,0,l),
(608,0,l),
(608,724,l),
(770,724,l),
(770,740,l),
(-35,740,l)
);
}
);
width = 735;
}
);
note = dvM_RA;
},
{
glyphname = dvY_RA;
layers = (
{
layerId = m01;
shapes = (
{
closed = 1;
nodes = (
(188,154,o),
(97,253,o),
(97,420,cs),
(97,424,o),
(97,431,o),
(98,439,c),
(101,439,ls),
(229,439,o),
(325,480,o),
(325,635,cs),
(325,724,l),
(576,724,l),
(576,368,ls),
(576,238,o),
(466,154,o),
(341,154,cs)
);
},
{
closed = 1;
nodes = (
(-35,724,l),
(308,724,l),
(308,635,ls),
(308,486,o),
(213,455,o),
(101,455,cs),
(83,455,l),
(82,445,o),
(81,431,o),
(81,420,cs),
(81,249,o),
(174,138,o),
(340,138,cs),
(374,138,o),
(404,143,o),
(431,152,c),
(165,-56,l),
(165,-58,l),
(187,-58,l),
(501,187,ls),
(539,215,o),
(564,251,o),
(576,285,c),
(576,0,l),
(593,0,l),
(593,724,l),
(755,724,l),
(755,740,l),
(-35,740,l)
);
}
);
width = 720;
}
);
note = dvY_RA;
},
{
glyphname = dvL_RA;
layers = (
{
layerId = m01;
shapes = (
{
closed = 1;
nodes = (
(737,104,o),
(810,208,o),
(810,341,cs),
(810,461,o),
(751,556,o),
(636,560,c),
(636,724,l),
(930,724,l),
(930,740,l),
(-35,740,l),
(-35,724,l),
(619,724,l),
(619,560,l),
(504,555,o),
(460,463,o),
(449,387,c),
(447,387,l),
(437,464,o),
(390,560,o),
(276,560,cs),
(151,560,o),
(85,467,o),
(85,341,cs),
(85,208,o),
(158,104,o),
(305,104,cs),
(316,104,o),
(327,105,o),
(338,106,c),
(338,123,l),
(327,122,o),
(317,121,o),
(307,121,cs),
(169,121,o),
(102,217,o),
(102,341,cs),
(102,456,o),
(160,544,o),
(276,544,cs),
(383,544,o),
(439,448,o),
(439,303,cs),
(439,295,l),
(456,295,l),
(456,303,ls),
(456,451,o),
(515,544,o),
(628,544,cs),
(739,544,o),
(793,452,o),
(793,341,cs),
(793,217,o),
(726,121,o),
(588,121,cs),
(578,121,o),
(568,122,o),
(557,123,c),
(557,106,l),
(568,105,o),
(579,104,o),
(590,104,cs)
);
},
{
closed = 1;
nodes = (
(371,-135,l),
(394,-135,l),
(567,34,l),
(741,-135,l),
(764,-135,l),
(579,44,l),
(556,44,l)
);
}
);
width = 895;
}
);
note = dvL_RA;
},
{
glyphname = dvV_RA;
layers = (
{
layerId = m01;
shapes = (
{
closed = 1;
nodes = (
(197,141,o),
(102,220,o),
(102,359,cs),
(102,493,o),
(201,572,o),
(318,572,cs),
(475,572,o),
(537,455,o),
(537,355,cs),
(537,354,ls),
(537,262,o),
(475,141,o),
(318,141,cs)
);
},
{
closed = 1;
nodes = (
(716,724,l),
(716,740,l),
(-35,740,l),
(-35,724,l),
(537,724,l),
(537,441,l),
(511,519,o),
(442,588,o),
(318,588,cs),
(191,588,o),
(85,501,o),
(85,359,cs),
(85,211,o),
(187,125,o),
(318,125,cs),
(352,125,o),
(383,130,o),
(409,140,c),
(201,-43,l),
(224,-43,l),
(477,180,l),
(477,180,l),
(506,205,o),
(526,237,o),
(537,271,c),
(537,0,l),
(554,0,l),
(554,724,l)
);
}
);
width = 681;
}
);
note = dvV_RA;
},
{
glyphname = dvSH_RA;
layers = (
{
layerId = m01;
shapes = (
{
closed = 1;
nodes = (
(260,399,ls),
(170,450,o),
(128,507,o),
(132,595,cs),
(135,667,o),
(195,733,o),
(283,733,cs),
(380,733,o),
(437,662,o),
(437,587,cs),
(437,504,o),
(394,452,o),
(326,400,cs),
(297,378,l)
);
},
{
closed = 1;
nodes = (
(612,0,l),
(629,0,l),
(629,724,l),
(791,724,l),
(791,740,l),
(612,740,l),
(612,199,l),
(312,369,l),
(336,387,ls),
(408,442,o),
(454,500,o),
(454,586,cs),
(454,670,o),
(390,749,o),
(283,749,cs),
(178,749,o),
(115,669,o),
(115,583,cs),
(115,498,o),
(163,436,o),
(253,385,cs),
(284,368,l),
(68,203,l),
(68,200,l),
(89,200,l),
(299,359,l),
(502,244,l),
(238,2,l),
(238,0,l),
(259,0,l),
(516,236,l),
(612,182,l)
);
}
);
width = 756;
}
);
note = dvSH_RA;
},
{
glyphname = dvSS_RA;
layers = (
{
layerId = m01;
shapes = (
{
closed = 1;
nodes = (
(176,247,o),
(117,330,o),
(117,469,cs),
(117,703,l),
(482,371,l),
(460,299,o),
(399,247,o),
(307,247,cs)
);
},
{
closed = 1;
nodes = (
(491,435,ls),
(491,419,o),
(489,403,o),
(486,388,c),
(117,724,l),
(491,724,l)
);
},
{
closed = 1;
nodes = (
(-35,724,l),
(100,724,l),
(100,469,ls),
(100,320,o),
(168,231,o),
(306,231,cs),
(334,231,o),
(359,235,o),
(382,243,c),
(121,1,l),
(144,1,l),
(438,275,l),
(462,295,o),
(480,322,o),
(491,352,c),
(491,0,l),
(508,0,l),
(508,724,l),
(670,724,l),
(670,740,l),
(-35,740,l)
);
}
);
width = 635;
}
);
note = dvSS_RA;
},
{
glyphname = dvS_RA;
layers = (
{
layerId = m01;
shapes = (
{
closed = 1;
nodes = (
(423,724,l),
(697,724,l),
(697,409,l),
(290,409,l),
(365,430,o),
(423,497,o),
(423,611,cs)
);
},
{
closed = 1;
nodes = (
(-35,724,l),
(407,724,l),
(407,611,ls),
(407,487,o),
(330,410,o),
(210,410,cs),
(100,410,l),
(100,175,ls),
(100,66,o),
(152,-9,o),
(259,-9,cs),
(351,-9,o),
(408,64,o),
(408,178,cs),
(408,189,l),
(391,189,l),
(391,178,ls),
(391,75,o),
(340,7,o),
(259,7,cs),
(163,7,o),
(117,77,o),
(117,174,cs),
(117,394,l),
(697,394,l),
(697,318,l),
(428,-50,l),
(449,-50,l),
(697,290,l),
(697,0,l),
(714,0,l),
(714,724,l),
(876,724,l),
(876,740,l),
(-35,740,l)
);
}
);
width = 841;
}
);
note = dvS_RA;
},
{
glyphname = dvH_RA;
layers = (
{
layerId = m01;
shapes = (
{
closed = 1;
nodes = (
(499,26,l),
(482,-32,o),
(421,-102,o),
(308,-102,cs),
(172,-102,o),
(106,-5,o),
(106,105,cs),
(106,213,o),
(177,311,o),
(303,311,cs),
(388,311,o),
(443,268,o),
(469,225,c),
(326,89,l),
(349,89,l),
(489,222,l),
(462,274,o),
(402,327,o),
(303,327,cs),
(283,327,o),
(264,325,o),
(246,320,c),
(182,335,o),
(130,373,o),
(130,440,cs),
(130,522,o),
(200,549,o),
(277,549,cs),
(469,549,l),
(469,724,l),
(622,724,l),
(622,740,l),
(-35,740,l),
(-35,724,l),
(452,724,l),
(452,565,l),
(277,565,ls),
(188,565,o),
(113,531,o),
(113,440,cs),
(113,361,o),
(175,324,o),
(220,312,c),
(135,279,o),
(89,194,o),
(89,105,cs),
(89,-11,o),
(159,-119,o),
(308,-119,cs),
(435,-119,o),
(498,-38,o),
(516,26,c)
);
}
);
width = 587;
}
);
note = dvH_RA;
},
{
glyphname = dvLL_RA;
layers = (
{
layerId = m01;
shapes = (
{
closed = 1;
nodes = (
(189,149,o),
(102,231,o),
(102,351,cs),
(102,478,o),
(188,560,o),
(304,560,cs),
(426,560,o),
(505,474,o),
(505,351,cs),
(505,234,o),
(425,149,o),
(305,149,cs)
);
},
{
closed = 1;
nodes = (
(605,149,o),
(525,234,o),
(525,351,cs),
(525,474,o),
(604,560,o),
(726,560,cs),
(842,560,o),
(928,478,o),
(928,351,cs),
(928,231,o),
(841,149,o),
(725,149,cs)
);
},
{
closed = 1;
nodes = (
(900,-37,l),
(923,-37,l),
(746,134,l),
(863,144,o),
(945,232,o),
(945,351,cs),
(945,482,o),
(857,570,o),
(739,576,c),
(739,724,l),
(1065,724,l),
(1065,740,l),
(-35,740,l),
(-35,724,l),
(722,724,l),
(722,576,l),
(599,576,o),
(535,494,o),
(516,417,c),
(514,417,l),
(495,494,o),
(431,576,o),
(304,576,cs),
(179,576,o),
(85,487,o),
(85,351,cs),
(85,225,o),
(177,133,o),
(305,133,cs),
(422,133,o),
(498,210,o),
(514,294,c),
(516,294,l),
(531,215,o),
(600,141,o),
(706,134,c),
(530,-37,l),
(553,-37,l),
(726,132,l)
);
}
);
width = 1030;
}
);
note = dvLL_RA;
},
{
glyphname = dvKx_RA;
layers = (
{
layerId = m01;
shapes = (
{
closed = 1;
nodes = (
(527,0,l),
(543,0,l),
(543,351,ls),
(543,449,o),
(598,568,o),
(742,568,cs),
(848,568,o),
(939,490,o),
(939,359,cs),
(939,221,o),
(854,143,o),
(745,143,cs),
(726,143,o),
(705,145,o),
(688,149,c),
(688,133,l),
(701,130,o),
(724,127,o),
(745,127,cs),
(864,127,o),
(956,212,o),
(956,359,cs),
(956,499,o),
(858,584,o),
(742,584,cs),
(629,584,o),
(567,517,o),
(543,440,c),
(543,724,l),
(1076,724,l),
(1076,740,l),
(-35,740,l),
(-35,724,l),
(527,724,l),
(527,443,l),
(502,518,o),
(438,584,o),
(324,584,cs),
(204,584,o),
(105,499,o),
(105,359,cs),
(105,212,o),
(201,127,o),
(324,127,cs),
(353,127,o),
(379,131,o),
(402,139,c),
(191,-46,l),
(214,-46,l),
(461,172,ls),
(493,198,o),
(515,232,o),
(527,268,c)
);
},
{
closed = 1;
nodes = (
(211,143,o),
(122,221,o),
(122,359,cs),
(122,490,o),
(214,568,o),
(324,568,cs),
(470,568,o),
(527,453,o),
(527,355,cs),
(527,354,ls),
(527,263,o),
(470,143,o),
(324,143,cs)
);
},
{
closed = 1;
nodes = (
(98,47,o),
(108,57,o),
(108,71,cs),
(108,85,o),
(98,95,o),
(84,95,cs),
(69,95,o),
(59,85,o),
(59,71,cs),
(59,57,o),
(69,47,o),
(84,47,cs)
);
}
);
width = 1041;
}
);
note = dvKx_RA;
},
{
glyphname = dvKHx_RA;
layers = (
{
layerId = m01;
shapes = (
{
closed = 1;
nodes = (
(765,0,l),
(782,0,l),
(782,724,l),
(944,724,l),
(944,740,l),
(-35,740,l),
(-35,724,l),
(293,724,l),
(293,563,ls),
(293,419,o),
(213,394,o),
(144,394,cs),
(100,394,l),
(100,214,ls),
(100,82,o),
(188,0,o),
(320,0,cs),
(349,0,o),
(375,5,o),
(399,13,c),
(214,-149,l),
(214,-151,l),
(234,-151,l),
(472,59,l),
(472,59,l),
(502,88,o),
(523,125,o),
(536,164,c),
(552,161,o),
(568,159,o),
(585,159,cs),
(684,159,o),
(743,218,o),
(765,285,c)
);
},
{
closed = 1;
nodes = (
(483,175,o),
(400,244,o),
(400,366,cs),
(400,481,o),
(486,549,o),
(585,549,cs),
(714,549,o),
(765,448,o),
(765,362,cs),
(765,361,ls),
(765,280,o),
(714,175,o),
(585,175,cs)
);
},
{
closed = 1;
nodes = (
(118,-83,o),
(128,-73,o),
(128,-59,cs),
(128,-45,o),
(118,-35,o),
(104,-35,cs),
(89,-35,o),
(79,-45,o),
(79,-59,cs),
(79,-73,o),
(89,-83,o),
(104,-83,cs)
);
},
{
closed = 1;
nodes = (
(196,16,o),
(117,94,o),
(117,214,cs),
(117,378,l),
(124,378,o),
(131,378,o),
(138,378,cs),
(226,378,o),
(310,410,o),
(310,563,cs),
(310,724,l),
(765,724,l),
(765,441,l),
(743,507,o),
(686,565,o),
(585,565,cs),
(474,565,o),
(383,490,o),
(383,366,cs),
(383,260,o),
(440,191,o),
(521,168,c),
(494,87,o),
(426,16,o),
(321,16,cs)
);
}
);
width = 909;
}
);
note = dvKHx_RA;
},
{
glyphname = dvGx_RA;
layers = (
{
layerId = m01;
shapes = (
{
closed = 1;
nodes = (
(539,0,l),
(556,0,l),
(556,724,l),
(718,724,l),
(718,740,l),
(-35,740,l),
(-35,724,l),
(297,724,l),
(297,454,ls),
(297,393,o),
(273,329,o),
(186,329,cs),
(103,329,o),
(76,394,o),
(76,451,cs),
(76,482,l),
(59,482,l),
(59,452,ls),
(59,383,o),
(95,313,o),
(186,313,cs),
(280,313,o),
(314,380,o),
(314,454,cs),
(314,724,l),
(539,724,l),
(539,332,l),
(188,-20,l),
(210,-20,l),
(539,310,l)
);
},
{
closed = 1;
nodes = (
(98,107,o),
(108,117,o),
(108,131,cs),
(108,145,o),
(98,155,o),
(84,155,cs),
(69,155,o),
(59,145,o),
(59,131,cs),
(59,117,o),
(69,107,o),
(84,107,cs)
);
}
);
width = 683;
}
);
note = dvGx_RA;
},
{
glyphname = dvJx_RA;
layers = (
{
layerId = m01;
shapes = (
{
closed = 1;
nodes = (
(-35,724,l),
(679,724,l),
(679,509,l),
(405,509,l),
(405,409,ls),
(405,313,o),
(348,245,o),
(256,245,cs),
(168,245,o),
(113,313,o),
(113,409,cs),
(113,509,l),
(96,509,l),
(96,410,ls),
(96,304,o),
(156,229,o),
(255,229,cs),
(359,229,o),
(422,304,o),
(422,410,cs),
(422,493,l),
(679,493,l),
(679,332,l),
(328,-20,l),
(350,-20,l),
(679,310,l),
(679,0,l),
(696,0,l),
(696,724,l),
(858,724,l),
(858,740,l),
(-35,740,l)
);
},
{
closed = 1;
nodes = (
(148,37,o),
(158,47,o),
(158,61,cs),
(158,75,o),
(148,85,o),
(134,85,cs),
(119,85,o),
(109,75,o),
(109,61,cs),
(109,47,o),
(119,37,o),
(134,37,cs)
);
}
);
width = 823;
}
);
note = dvJx_RA;
},
{
glyphname = dvPHx_RA;
layers = (
{
layerId = m01;
shapes = (
{
closed = 1;
nodes = (
(213,247,o),
(157,330,o),
(157,469,cs),
(157,724,l),
(511,724,l),
(511,435,ls),
(511,333,o),
(449,247,o),
(337,247,cs)
);
},
{
closed = 1;
nodes = (
(-35,724,l),
(140,724,l),
(140,469,ls),
(140,320,o),
(205,231,o),
(336,231,cs),
(361,231,o),
(383,235,o),
(403,242,c),
(143,0,l),
(166,0,l),
(462,276,ls),
(484,296,o),
(501,322,o),
(511,352,c),
(511,0,l),
(528,0,l),
(528,351,ls),
(528,449,o),
(583,568,o),
(727,568,cs),
(833,568,o),
(924,490,o),
(924,359,cs),
(924,221,o),
(839,143,o),
(730,143,cs),
(711,143,o),
(690,145,o),
(673,149,c),
(673,133,l),
(686,130,o),
(709,127,o),
(730,127,cs),
(849,127,o),
(941,212,o),
(941,359,cs),
(941,499,o),
(843,584,o),
(727,584,cs),
(613,584,o),
(551,515,o),
(528,438,c),
(528,724,l),
(1061,724,l),
(1061,740,l),
(-35,740,l)
);
},
{
closed = 1;
nodes = (
(78,137,o),
(88,147,o),
(88,161,cs),
(88,175,o),
(78,185,o),
(64,185,cs),
(49,185,o),
(39,175,o),
(39,161,cs),
(39,147,o),
(49,137,o),
(64,137,cs)
);
}
);
width = 1026;
}
);
note = dvPHx_RA;
},
{
glyphname = dvK_R;
layers = (
{
layerId = m01;
shapes = (
{
closed = 1;
nodes = (
(507,0,l),
(523,0,l),
(523,351,ls),
(523,449,o),
(578,568,o),
(722,568,cs),
(828,568,o),
(919,490,o),
(919,359,c),
(936,359,l),
(936,499,o),
(838,584,o),
(722,584,cs),
(609,584,o),
(547,517,o),
(523,440,c),
(523,724,l),
(936,724,l),
(936,740,l),
(-35,740,l),
(-35,724,l),
(507,724,l),
(507,443,l),
(482,518,o),
(418,584,o),
(304,584,cs),
(184,584,o),
(85,499,o),
(85,359,cs),
(85,212,o),
(181,127,o),
(304,127,cs),
(333,127,o),
(359,131,o),
(382,139,c),
(171,-46,l),
(194,-46,l),
(441,172,ls),
(473,198,o),
(495,232,o),
(507,268,c)
);
},
{
closed = 1;
nodes = (
(191,143,o),
(102,221,o),
(102,359,cs),
(102,490,o),
(194,568,o),
(304,568,cs),
(450,568,o),
(507,453,o),
(507,355,cs),
(507,354,ls),
(507,263,o),
(450,143,o),
(304,143,cs)
);
}
);
width = 771;
}
);
note = dvK_R;
},
{
glyphname = dvKH_R;
layers = (
{
layerId = m01;
shapes = (
{
closed = 1;
nodes = (
(-35,724,l),
(293,724,l),
(293,563,ls),
(293,419,o),
(213,394,o),
(144,394,cs),
(100,394,l),
(100,214,ls),
(100,82,o),
(188,0,o),
(320,0,cs),
(349,0,o),
(375,5,o),
(399,13,c),
(214,-149,l),
(214,-151,l),
(234,-151,l),
(472,59,l),
(472,59,l),
(502,88,o),
(524,126,o),
(536,165,c),
(553,162,o),
(570,160,o),
(588,160,cs),
(710,160,o),
(794,237,o),
(794,362,cs),
(794,487,o),
(712,565,o),
(588,565,cs),
(465,565,o),
(383,487,o),
(383,362,cs),
(383,264,o),
(436,192,o),
(522,169,c),
(497,90,o),
(428,16,o),
(321,16,cs),
(196,16,o),
(117,94,o),
(117,214,cs),
(117,378,l),
(124,378,o),
(131,378,o),
(138,378,cs),
(226,378,o),
(310,410,o),
(310,563,cs),
(310,724,l),
(794,724,l),
(794,740,l),
(-35,740,l)
);
},
{
closed = 1;
nodes = (
(475,176,o),
(400,250,o),
(400,362,cs),
(400,476,o),
(475,549,o),
(588,549,cs),
(702,549,o),
(777,476,o),
(777,362,cs),
(777,250,o),
(702,176,o),
(588,176,cs)
);
}
);
width = 679;
}
);
note = dvKH_R;
},
{
glyphname = dvG_R;
layers = (
{
layerId = m01;
shapes = (
{
closed = 1;
nodes = (
(541,312,l),
(541,334,l),
(188,-20,l),
(210,-20,l)
);
},
{
closed = 1;
nodes = (
(-35,724,l),
(297,724,l),
(297,454,ls),
(297,393,o),
(273,329,o),
(186,329,cs),
(103,329,o),
(76,394,o),
(76,451,cs),
(76,482,l),
(59,482,l),
(59,452,ls),
(59,383,o),
(95,313,o),
(186,313,cs),
(280,313,o),
(314,380,o),
(314,454,cs),
(314,724,l),
(541,724,l),
(541,740,l),
(-35,740,l)
);
}
);
width = 420;
}
);
note = dvG_R;
},
{
glyphname = dvGH_R;
layers = (
{
layerId = m01;
shapes = (
{
closed = 1;
nodes = (
(-35,724,l),
(119,724,l),
(119,622,ls),
(119,513,o),
(181,468,o),
(254,460,c),
(254,458,l),
(171,451,o),
(98,395,o),
(98,299,cs),
(98,178,o),
(192,116,o),
(329,116,cs),
(369,116,o),
(407,123,o),
(440,136,c),
(218,-58,l),
(241,-58,l),
(507,177,ls),
(560,221,o),
(592,287,o),
(592,364,c),
(577,364,l),
(577,227,o),
(466,132,o),
(329,132,cs),
(208,132,o),
(115,185,o),
(115,299,cs),
(115,382,o),
(172,451,o),
(314,451,cs),
(368,451,l),
(368,467,l),
(314,467,ls),
(188,467,o),
(136,521,o),
(136,622,cs),
(136,724,l),
(592,724,l),
(592,740,l),
(-35,740,l)
);
}
);
width = 456;
}
);
note = dvGH_R;
},
{
glyphname = dvNG_R;
layers = (
{
layerId = m01;
shapes = (
{
closed = 1;
nodes = (
(583,391,o),
(593,401,o),
(593,415,cs),
(593,429,o),
(583,439,o),
(569,439,cs),
(554,439,o),
(544,429,o),
(544,415,cs),
(544,401,o),
(554,391,o),
(569,391,cs)
);
},
{
closed = 1;
nodes = (
(429,-357,l),
(448,-357,l),
(332,-179,l),
(314,-179,l)
);
},
{
closed = 1;
nodes = (
(-35,724,l),
(444,724,l),
(444,562,l),
(284,562,ls),
(201,562,o),
(105,535,o),
(105,429,cs),
(105,338,o),
(178,298,o),
(270,298,cs),
(315,298,ls),
(404,298,o),
(503,268,o),
(503,150,cs),
(503,72,o),
(446,7,o),
(322,7,cs),
(172,7,o),
(105,88,o),
(105,184,c),
(88,184,l),
(88,81,o),
(159,0,o),
(298,-8,c),
(122,-179,l),
(145,-179,l),
(318,-10,l),
(492,-179,l),
(515,-179,l),
(339,-9,l),
(461,-3,o),
(520,66,o),
(520,150,cs),
(520,276,o),
(416,314,o),
(316,314,cs),
(271,314,ls),
(194,314,o),
(122,343,o),
(122,429,cs),
(122,528,o),
(216,546,o),
(292,546,cs),
(461,546,l),
(461,724,l),
(657,724,l),
(657,740,l),
(-35,740,l)
);
}
);
width = 622;
}
);
note = dvNG_R;
},
{
glyphname = dvC_R;
layers = (
{
layerId = m01;
shapes = (
{
closed = 1;
nodes = (
(-35,724,l),
(588,724,l),
(588,740,l),
(-35,740,l)
);
},
{
closed = 1;
nodes = (
(49,525,l),
(290,525,l),
(200,496,o),
(147,421,o),
(147,324,cs),
(147,190,o),
(248,115,o),
(366,115,cs),
(394,115,o),
(421,120,o),
(446,129,c),
(247,-46,l),
(270,-46,l),
(512,167,ls),
(561,208,o),
(590,269,o),
(588,333,c),
(574,333,l),
(574,227,o),
(485,131,o),
(365,131,cs),
(258,131,o),
(164,200,o),
(164,324,cs),
(164,436,o),
(244,525,o),
(377,525,cs),
(406,525,l),
(406,541,l),
(49,541,l)
);
}
);
width = 467;
}
);
note = dvC_R;
},
{
glyphname = dvCH_R;
layers = (
{
layerId = m01;
shapes = (
{
closed = 1;
nodes = (
(-35,724,l),
(114,724,l),
(114,589,ls),
(114,480,o),
(176,435,o),
(249,427,c),
(249,425,l),
(161,417,o),
(84,359,o),
(84,251,cs),
(84,110,o),
(210,33,o),
(394,33,cs),
(400,33,o),
(405,33,o),
(411,33,c),
(236,-136,l),
(259,-136,l),
(432,33,l),
(606,-136,l),
(629,-136,l),
(451,36,l),
(630,56,o),
(761,171,o),
(761,356,cs),
(761,499,o),
(676,561,o),
(591,561,cs),
(517,561,o),
(431,520,o),
(431,397,cs),
(431,365,o),
(437,329,o),
(451,290,c),
(468,290,l),
(455,329,o),
(448,365,o),
(448,397,cs),
(448,510,o),
(529,545,o),
(591,545,cs),
(664,545,o),
(744,488,o),
(744,355,cs),
(744,167,o),
(589,49,o),
(394,49,cs),
(227,49,o),
(101,116,o),
(101,251,cs),
(101,342,o),
(161,418,o),
(309,418,cs),
(333,418,l),
(333,434,l),
(309,434,ls),
(183,434,o),
(131,488,o),
(131,589,cs),
(131,724,l),
(846,724,l),
(846,740,l),
(-35,740,l)
);
}
);
width = 811;
}
);
note = dvCH_R;
},
{
glyphname = dvJ_R;
layers = (
{
layerId = m01;
shapes = (
{
closed = 1;
nodes = (
(328,-20,l),
(350,-20,l),
(684,315,l),
(684,337,l)
);
},
{
closed = 1;
nodes = (
(-35,724,l),
(684,724,l),
(684,740,l),
(-35,740,l)
);
},
{
closed = 1;
nodes = (
(359,229,o),
(422,304,o),
(422,410,cs),
(422,493,l),
(684,493,l),
(684,509,l),
(405,509,l),
(405,409,ls),
(405,313,o),
(348,245,o),
(256,245,cs),
(168,245,o),
(113,313,o),
(113,409,cs),
(113,509,l),
(96,509,l),
(96,410,ls),
(96,304,o),
(156,229,o),
(255,229,cs)
);
}
);
width = 541;
}
);
note = dvJ_R;
},
{
glyphname = dvJH_R;
layers = (
{
layerId = m01;
shapes = (
{
closed = 1;
nodes = (
(133,117,l),
(143,88,o),
(196,0,o),
(341,0,cs),
(466,0,o),
(520,70,o),
(520,150,cs),
(520,239,o),
(467,284,o),
(403,300,c),
(676,299,l),
(676,314,l),
(271,314,ls),
(192,314,o),
(119,343,o),
(119,429,cs),
(119,528,o),
(215,546,o),
(292,546,cs),
(461,546,l),
(461,724,l),
(676,724,l),
(676,740,l),
(-35,740,l),
(-35,724,l),
(444,724,l),
(444,562,l),
(284,562,ls),
(200,562,o),
(102,535,o),
(102,429,cs),
(102,338,o),
(178,298,o),
(270,298,cs),
(315,298,ls),
(436,298,o),
(503,242,o),
(503,150,cs),
(503,80,o),
(456,16,o),
(342,16,cs),
(210,16,o),
(145,92,o),
(131,173,c),
(116,173,l),
(116,-71,l),
(133,-71,l)
);
},
{
closed = 1;
nodes = (
(676,146,l),
(676,175,l),
(489,-100,l),
(510,-100,l)
);
}
);
width = 577;
}
);
note = dvJH_R;
},
{
glyphname = dvNY_R;
layers = (
{
layerId = m01;
shapes = (
{
closed = 1;
nodes = (
(444,151,o),
(512,259,o),
(513,367,c),
(650,367,l),
(650,383,l),
(513,383,l),
(507,484,o),
(440,583,o),
(294,583,cs),
(157,583,o),
(101,497,o),
(85,428,c),
(102,428,l),
(116,489,o),
(170,567,o),
(294,567,cs),
(430,567,o),
(496,473,o),
(496,370,cs),
(496,262,o),
(430,168,o),
(294,168,cs),
(174,168,o),
(111,244,o),
(102,306,c),
(85,306,l),
(95,239,o),
(160,151,o),
(294,151,cs)
);
},
{
closed = 1;
nodes = (
(346,-70,l),
(368,-70,l),
(650,213,l),
(650,235,l)
);
},
{
closed = 1;
nodes = (
(-35,724,l),
(650,724,l),
(650,740,l),
(-35,740,l)
);
}
);
width = 552;
}
);
note = dvNY_R;
},
{
glyphname = dvTT_R;
layers = (
{
layerId = m01;
shapes = (
{
closed = 1;
nodes = (
(444,-285,l),
(463,-285,l),
(347,-107,l),
(329,-107,l)
);
},
{
closed = 1;
nodes = (
(-35,724,l),
(424,724,l),
(424,573,l),
(373,573,ls),
(212,573,o),
(85,492,o),
(85,311,cs),
(85,174,o),
(182,75,o),
(315,64,c),
(138,-107,l),
(161,-107,l),
(334,62,l),
(508,-107,l),
(531,-107,l),
(355,63,l),
(498,70,o),
(594,174,o),
(594,320,c),
(577,320,l),
(577,179,o),
(479,79,o),
(340,79,cs),
(204,79,o),
(102,176,o),
(102,312,cs),
(102,479,o),
(220,557,o),
(373,557,cs),
(441,557,l),
(441,724,l),
(689,724,l),
(689,740,l),
(-35,740,l)
);
}
);
width = 654;
}
);
note = dvTT_R;
},
{
glyphname = dvTTH_R;
layers = (
{
layerId = m01;
shapes = (
{
closed = 1;
nodes = (
(204,79,o),
(102,176,o),
(102,311,cs),
(102,447,o),
(204,543,o),
(340,543,cs),
(476,543,o),
(578,447,o),
(578,311,cs),
(578,176,o),
(476,79,o),
(340,79,cs)
);
},
{
closed = 1;
nodes = (
(514,-107,l),
(537,-107,l),
(361,64,l),
(496,73,o),
(595,173,o),
(595,311,cs),
(595,453,o),
(490,555,o),
(348,559,c),
(348,724,l),
(715,724,l),
(715,740,l),
(-35,740,l),
(-35,724,l),
(331,724,l),
(331,559,l),
(190,555,o),
(85,453,o),
(85,311,cs),
(85,173,o),
(184,72,o),
(320,64,c),
(144,-107,l),
(167,-107,l),
(340,62,l)
);
},
{
closed = 1;
nodes = (
(445,-285,l),
(464,-285,l),
(348,-107,l),
(330,-107,l)
);
}
);
width = 680;
}
);
note = dvTTH_R;
},
{
glyphname = dvDD_R;
layers = (
{
layerId = m01;
shapes = (
{
closed = 1;
nodes = (
(417,-357,l),
(436,-357,l),
(320,-179,l),
(302,-179,l)
);
},
{
closed = 1;
nodes = (
(-35,724,l),
(436,724,l),
(436,562,l),
(284,562,ls),
(201,562,o),
(105,535,o),
(105,429,cs),
(105,338,o),
(178,298,o),
(270,298,cs),
(315,298,ls),
(404,298,o),
(503,268,o),
(503,150,cs),
(503,72,o),
(446,7,o),
(322,7,cs),
(172,7,o),
(105,88,o),
(105,184,c),
(88,184,l),
(88,83,o),
(156,3,o),
(291,-8,c),
(114,-179,l),
(137,-179,l),
(310,-10,l),
(484,-179,l),
(507,-179,l),
(331,-9,l),
(458,-6,o),
(520,64,o),
(520,150,cs),
(520,276,o),
(416,314,o),
(316,314,cs),
(271,314,ls),
(194,314,o),
(122,343,o),
(122,429,cs),
(122,528,o),
(216,546,o),
(292,546,cs),
(453,546,l),
(453,724,l),
(617,724,l),
(617,740,l),
(-35,740,l)
);
}
);
width = 582;
}
);
note = dvDD_R;
},
{
glyphname = dvDDH_R;
layers = (
{
layerId = m01;
shapes = (
{
closed = 1;
nodes = (
(465,-325,l),
(484,-325,l),
(368,-147,l),
(350,-147,l)
);
},
{
closed = 1;
nodes = (
(-35,724,l),
(442,724,l),
(442,573,l),
(383,573,ls),
(216,573,o),
(85,487,o),
(85,294,cs),
(85,145,o),
(189,39,o),
(332,25,c),
(155,-147,l),
(178,-147,l),
(351,22,l),
(525,-147,l),
(548,-147,l),
(372,23,l),
(497,23,o),
(586,102,o),
(586,211,cs),
(586,304,o),
(523,371,o),
(429,371,cs),
(351,371,o),
(285,319,o),
(285,233,cs),
(285,226,o),
(286,216,o),
(287,210,c),
(304,210,l),
(303,216,o),
(302,225,o),
(302,232,cs),
(302,308,o),
(362,355,o),
(429,355,cs),
(511,355,o),
(569,294,o),
(569,211,cs),
(569,112,o),
(485,39,o),
(367,39,cs),
(216,39,o),
(102,143,o),
(102,295,cs),
(102,474,o),
(224,557,o),
(383,557,cs),
(459,557,l),
(459,724,l),
(663,724,l),
(663,740,l),
(-35,740,l)
);
}
);
width = 628;
}
);
note = dvDDH_R;
},
{
glyphname = dvNN_R;
layers = (
{
layerId = m01;
shapes = (
{
closed = 1;
nodes = (
(326,-20,l),
(348,-20,l),
(648,281,l),
(648,303,l)
);
},
{
closed = 1;
nodes = (
(-35,724,l),
(100,724,l),
(100,466,ls),
(100,360,o),
(161,285,o),
(262,285,cs),
(366,285,o),
(426,360,o),
(426,466,cs),
(426,724,l),
(648,724,l),
(648,740,l),
(-35,740,l)
);
},
{
closed = 1;
nodes = (
(173,301,o),
(117,369,o),
(117,465,cs),
(117,724,l),
(409,724,l),
(409,465,ls),
(409,369,o),
(355,301,o),
(263,301,cs)
);
}
);
width = 546;
}
);
note = dvNN_R;
},
{
glyphname = dvT_R;
layers = (
{
layerId = m01;
shapes = (
{
closed = 1;
nodes = (
(102,313,l),
(102,450,o),
(199,527,o),
(319,527,cs),
(434,527,o),
(511,459,o),
(537,370,c),
(170,2,l),
(170,0,l),
(190,0,l),
(555,366,l),
(531,459,o),
(451,543,o),
(319,543,cs),
(189,543,o),
(85,462,o),
(85,313,c)
);
},
{
closed = 1;
nodes = (
(-35,724,l),
(555,724,l),
(555,740,l),
(-35,740,l)
);
}
);
width = 439;
}
);
note = dvT_R;
},
{
glyphname = dvTH_R;
layers = (
{
layerId = m01;
shapes = (
{
closed = 1;
nodes = (
(597,343,l),
(597,215,o),
(499,130,o),
(362,130,cs),
(198,130,o),
(110,231,o),
(117,395,c),
(210,395,ls),
(330,395,o),
(452,434,o),
(452,581,cs),
(452,674,o),
(389,749,o),
(285,749,cs),
(178,749,o),
(112,678,o),
(112,577,cs),
(112,560,o),
(114,540,o),
(117,525,c),
(134,525,l),
(131,542,o),
(129,559,o),
(129,575,cs),
(129,668,o),
(186,733,o),
(285,733,cs),
(380,733,o),
(435,665,o),
(435,581,cs),
(435,439,o),
(310,411,o),
(210,411,cs),
(102,411,l),
(101,399,o),
(100,387,o),
(100,376,cs),
(100,217,o),
(194,114,o),
(361,114,cs),
(396,114,o),
(428,119,o),
(457,128,c),
(195,-76,l),
(195,-78,l),
(217,-78,l),
(527,164,ls),
(582,205,o),
(614,268,o),
(614,343,c)
);
}
);
width = 469;
}
);
note = dvTH_R;
},
{
glyphname = dvD_R;
layers = (
{
layerId = m01;
shapes = (
{
closed = 1;
nodes = (
(613,-278,l),
(632,-278,l),
(516,-100,l),
(498,-100,l)
);
},
{
closed = 1;
nodes = (
(-35,724,l),
(454,724,l),
(454,588,l),
(350,588,ls),
(209,588,o),
(85,515,o),
(85,355,cs),
(85,221,o),
(170,129,o),
(311,129,cs),
(340,129,o),
(368,134,o),
(392,143,c),
(181,-43,l),
(204,-43,l),
(456,179,ls),
(457,180,o),
(458,181,o),
(459,182,cs),
(460,183,l),
(460,183,l),
(478,199,o),
(491,219,o),
(499,240,c),
(499,0,l),
(516,0,l),
(516,321,l),
(501,321,l),
(501,193,o),
(393,145,o),
(313,145,cs),
(184,145,o),
(102,228,o),
(102,355,cs),
(102,502,o),
(217,572,o),
(350,572,cs),
(471,572,l),
(471,724,l),
(642,724,l),
(642,740,l),
(-35,740,l)
);
}
);
width = 607;
}
);
note = dvD_R;
},
{
glyphname = dvDH_R;
layers = (
{
layerId = m01;
shapes = (
{
closed = 1;
nodes = (
(355,116,o),
(393,123,o),
(426,135,c),
(206,-58,l),
(230,-58,l),
(491,172,l),
(539,211,o),
(565,268,o),
(565,334,c),
(550,334,l),
(550,215,o),
(453,132,o),
(312,132,cs),
(209,132,o),
(120,180,o),
(120,284,cs),
(120,361,o),
(172,424,o),
(291,424,cs),
(345,424,l),
(345,440,l),
(291,440,ls),
(173,440,o),
(115,504,o),
(115,593,cs),
(115,671,o),
(166,733,o),
(254,733,cs),
(343,733,o),
(390,671,o),
(390,601,cs),
(390,596,o),
(390,587,o),
(389,573,c),
(406,573,l),
(407,585,o),
(407,595,o),
(407,600,cs),
(407,687,o),
(349,749,o),
(254,749,cs),
(158,749,o),
(98,681,o),
(98,594,cs),
(98,495,o),
(163,444,o),
(231,432,c),
(231,430,l),
(166,424,o),
(103,372,o),
(103,284,cs),
(103,173,o),
(194,116,o),
(312,116,cs)
);
}
);
width = 429;
}
);
note = dvDH_R;
},
{
glyphname = dvN_R;
layers = (
{
layerId = m01;
shapes = (
{
closed = 1;
nodes = (
(365,160,o),
(439,233,o),
(439,336,cs),
(439,418,o),
(389,477,o),
(329,496,c),
(643,496,l),
(643,511,l),
(261,511,ls),
(150,511,o),
(75,440,o),
(75,334,cs),
(75,233,o),
(147,160,o),
(259,160,cs)
);
},
{
closed = 1;
nodes = (
(159,176,o),
(92,241,o),
(92,334,cs),
(92,430,o),
(161,495,o),
(259,495,cs),
(354,495,o),
(422,429,o),
(422,336,cs),
(422,242,o),
(354,176,o),
(259,176,cs)
);
},
{
closed = 1;
nodes = (
(288,-60,l),
(310,-60,l),
(643,274,l),
(643,296,l)
);
},
{
closed = 1;
nodes = (
(-35,724,l),
(643,724,l),
(643,740,l),
(-35,740,l)
);
}
);
width = 505;
}
);
note = dvN_R;
},
{
glyphname = dvP_R;
layers = (
{
layerId = m01;
shapes = (
{
closed = 1;
nodes = (
(-35,724,l),
(100,724,l),
(100,469,ls),
(100,320,o),
(168,231,o),
(306,231,cs),
(334,231,o),
(360,235,o),
(383,244,c),
(122,1,l),
(145,1,l),
(437,274,l),
(482,310,o),
(507,367,o),
(507,435,c),
(491,435,l),
(491,333,o),
(425,247,o),
(307,247,cs),
(176,247,o),
(117,330,o),
(117,469,cs),
(117,724,l),
(507,724,l),
(507,740,l),
(-35,740,l)
);
}
);
width = 378;
}
);
note = dvP_R;
},
{
glyphname = dvPH_R;
layers = (
{
layerId = m01;
shapes = (
{
closed = 1;
nodes = (
(173,247,o),
(117,330,o),
(117,469,cs),
(117,724,l),
(471,724,l),
(471,435,ls),
(471,333,o),
(409,247,o),
(297,247,cs)
);
},
{
closed = 1;
nodes = (
(-35,724,l),
(100,724,l),
(100,469,ls),
(100,320,o),
(165,231,o),
(296,231,cs),
(321,231,o),
(343,235,o),
(363,242,c),
(103,0,l),
(126,0,l),
(422,276,ls),
(444,296,o),
(461,322,o),
(471,352,c),
(471,0,l),
(488,0,l),
(488,351,ls),
(488,449,o),
(543,568,o),
(687,568,cs),
(813,568,o),
(884,490,o),
(884,359,c),
(901,359,l),
(901,499,o),
(823,584,o),
(687,584,cs),
(573,584,o),
(511,515,o),
(488,438,c),
(488,724,l),
(901,724,l),
(901,740,l),
(-35,740,l)
);
}
);
width = 771;
}
);
note = dvPH_R;
},
{
glyphname = dvB_R;
layers = (
{
layerId = m01;
shapes = (
{
closed = 1;
nodes = (
(-35,724,l),
(562,724,l),
(562,740,l),
(-35,740,l)
);
},
{
closed = 1;
nodes = (
(359,120,o),
(389,125,o),
(415,135,c),
(209,-46,l),
(232,-46,l),
(478,171,l),
(532,215,o),
(562,283,o),
(562,355,cs),
(562,461,o),
(490,593,o),
(324,593,cs),
(192,593,o),
(85,502,o),
(85,353,cs),
(85,207,o),
(196,120,o),
(327,120,cs)
);
},
{
closed = 1;
nodes = (
(477,577,o),
(546,458,o),
(546,355,cs),
(546,307,o),
(529,251,o),
(492,207,c),
(169,519,l),
(209,557,o),
(264,577,o),
(324,577,cs)
);
},
{
closed = 1;
nodes = (
(207,136,o),
(102,215,o),
(102,353,cs),
(102,418,o),
(123,470,o),
(158,508,c),
(482,196,l),
(446,160,o),
(396,136,o),
(327,136,cs)
);
}
);
width = 439;
}
);
note = dvB_R;
},
{
glyphname = dvBH_R;
layers = (
{
layerId = m01;
shapes = (
{
closed = 1;
nodes = (
(170,172,o),
(112,223,o),
(112,300,cs),
(112,379,o),
(173,429,o),
(260,429,cs),
(382,429,l),
(382,344,ls),
(382,234,o),
(331,172,o),
(249,172,cs)
);
},
{
closed = 1;
nodes = (
(338,156,o),
(399,221,o),
(399,345,cs),
(399,429,l),
(592,429,l),
(592,445,l),
(399,445,l),
(399,557,ls),
(399,676,o),
(353,749,o),
(256,749,cs),
(174,749,o),
(115,690,o),
(115,592,cs),
(115,578,o),
(117,563,o),
(119,548,c),
(136,548,l),
(133,564,o),
(132,578,o),
(132,592,cs),
(132,681,o),
(184,732,o),
(256,732,cs),
(344,732,o),
(382,664,o),
(382,556,cs),
(382,445,l),
(260,445,ls),
(162,445,o),
(95,388,o),
(95,300,cs),
(95,215,o),
(156,156,o),
(249,156,cs)
);
},
{
closed = 1;
nodes = (
(269,-60,l),
(293,-60,l),
(592,240,l),
(592,263,l)
);
}
);
width = 483;
}
);
note = dvBH_R;
},
{
glyphname = dvM_R;
layers = (
{
layerId = m01;
shapes = (
{
closed = 1;
nodes = (
(130,182,o),
(72,237,o),
(72,320,cs),
(72,405,o),
(133,459,o),
(220,459,cs),
(342,459,l),
(342,354,ls),
(342,244,o),
(291,182,o),
(209,182,cs)
);
},
{
closed = 1;
nodes = (
(239,-60,l),
(263,-60,l),
(587,265,l),
(587,288,l)
);
},
{
closed = 1;
nodes = (
(-35,724,l),
(342,724,l),
(342,475,l),
(220,475,ls),
(122,475,o),
(55,414,o),
(55,320,cs),
(55,229,o),
(116,166,o),
(209,166,cs),
(301,166,o),
(359,228,o),
(359,355,cs),
(359,459,l),
(588,459,l),
(588,475,l),
(359,475,l),
(359,724,l),
(589,724,l),
(589,740,l),
(-35,740,l)
);
}
);
width = 480;
}
);
note = dvM_R;
},
{
glyphname = dvY_R;
layers = (
{
layerId = m01;
shapes = (
{
closed = 1;
nodes = (
(-35,724,l),
(308,724,l),
(308,635,ls),
(308,486,o),
(213,455,o),
(101,455,cs),
(83,455,l),
(82,445,o),
(81,431,o),
(81,420,cs),
(81,249,o),
(174,138,o),
(340,138,cs),
(373,138,o),
(404,143,o),
(432,152,c),
(165,-56,l),
(165,-58,l),
(187,-58,l),
(501,187,l),
(501,187,l),
(557,228,o),
(592,292,o),
(592,368,c),
(576,368,l),
(576,238,o),
(466,154,o),
(341,154,cs),
(188,154,o),
(97,253,o),
(97,420,cs),
(97,424,o),
(97,431,o),
(98,439,c),
(101,439,ls),
(229,439,o),
(325,480,o),
(325,635,cs),
(325,724,l),
(592,724,l),
(592,740,l),
(-35,740,l)
);
}
);
width = 458;
}
);
note = dvY_R;
},
{
glyphname = dvL_R;
layers = (
{
layerId = m01;
shapes = (
{
closed = 1;
nodes = (
(737,104,o),
(810,208,o),
(810,341,cs),
(810,461,o),
(751,556,o),
(636,560,c),
(636,724,l),
(930,724,l),
(930,740,l),
(-35,740,l),
(-35,724,l),
(619,724,l),
(619,560,l),
(504,555,o),
(460,463,o),
(449,387,c),
(447,387,l),
(437,464,o),
(390,560,o),
(276,560,cs),
(151,560,o),
(85,467,o),
(85,341,cs),
(85,208,o),
(158,104,o),
(305,104,cs),
(316,104,o),
(327,105,o),
(338,106,c),
(338,123,l),
(327,122,o),
(317,121,o),
(307,121,cs),
(169,121,o),
(102,217,o),
(102,341,cs),
(102,456,o),
(160,544,o),
(276,544,cs),
(383,544,o),
(439,448,o),
(439,303,cs),
(439,295,l),
(456,295,l),
(456,303,ls),
(456,451,o),
(515,544,o),
(628,544,cs),
(739,544,o),
(793,452,o),
(793,341,cs),
(793,217,o),
(726,121,o),
(588,121,cs),
(578,121,o),
(568,122,o),
(557,123,c),
(557,106,l),
(568,105,o),
(579,104,o),
(590,104,cs)
);
},
{
closed = 1;
nodes = (
(371,-135,l),
(394,-135,l),
(567,34,l),
(741,-135,l),
(764,-135,l),
(579,44,l),
(556,44,l)
);
},
{
closed = 1;
nodes = (
(675,-313,l),
(694,-313,l),
(578,-135,l),
(560,-135,l)
);
}
);
width = 895;
}
);
note = dvL_R;
},
{
glyphname = dvV_R;
layers = (
{
layerId = m01;
shapes = (
{
closed = 1;
nodes = (
(198,141,o),
(102,220,o),
(102,359,cs),
(102,493,o),
(202,572,o),
(321,572,cs),
(476,572,o),
(537,455,o),
(537,355,cs),
(537,262,o),
(476,141,o),
(321,141,cs)
);
},
{
closed = 1;
nodes = (
(354,125,o),
(384,130,o),
(410,140,c),
(202,-43,l),
(225,-43,l),
(472,175,l),
(472,175,l),
(529,222,o),
(554,293,o),
(554,355,cs),
(554,458,o),
(488,588,o),
(321,588,cs),
(192,588,o),
(85,501,o),
(85,359,cs),
(85,211,o),
(188,125,o),
(321,125,cs)
);
},
{
closed = 1;
nodes = (
(-35,724,l),
(554,724,l),
(554,740,l),
(-35,740,l)
);
}
);
width = 426;
}
);
note = dvV_R;
},
{
glyphname = dvSH_R;
layers = (
{
layerId = m01;
shapes = (
{
closed = 1;
nodes = (
(260,399,ls),
(170,450,o),
(128,507,o),
(132,595,cs),
(135,667,o),
(195,733,o),
(283,733,cs),
(380,733,o),
(437,662,o),
(437,587,cs),
(437,504,o),
(394,452,o),
(326,400,cs),
(297,378,l)
);
},
{
closed = 1;
nodes = (
(68,200,l),
(89,200,l),
(299,359,l),
(503,244,l),
(238,2,l),
(238,0,l),
(259,0,l),
(517,236,l),
(517,253,l),
(312,369,l),
(336,387,ls),
(408,442,o),
(454,500,o),
(454,586,cs),
(454,670,o),
(390,749,o),
(283,749,cs),
(178,749,o),
(115,669,o),
(115,583,cs),
(115,498,o),
(163,436,o),
(253,385,cs),
(284,368,l),
(68,203,l)
);
}
);
width = 477;
}
);
note = dvSH_R;
},
{
glyphname = dvSS_R;
layers = (
{
layerId = m01;
shapes = (
{
closed = 1;
nodes = (
(176,247,o),
(117,330,o),
(117,469,cs),
(117,703,l),
(484,369,l),
(478,318,o),
(416,247,o),
(307,247,cs)
);
},
{
closed = 1;
nodes = (
(-35,724,l),
(100,724,l),
(100,469,ls),
(100,320,o),
(168,231,o),
(306,231,cs),
(338,231,o),
(366,236,o),
(390,245,c),
(127,1,l),
(150,1,l),
(445,276,l),
(481,305,o),
(500,343,o),
(500,376,c),
(117,724,l),
(500,724,l),
(500,740,l),
(-35,740,l)
);
}
);
width = 390;
}
);
note = dvSS_R;
},
{
glyphname = dvS_R;
layers = (
{
layerId = m01;
shapes = (
{
closed = 1;
nodes = (
(408,189,l),
(391,189,l),
(391,178,ls),
(391,75,o),
(340,7,o),
(259,7,cs),
(163,7,o),
(117,77,o),
(117,174,cs),
(117,394,l),
(635,394,l),
(635,409,l),
(290,409,l),
(365,430,o),
(423,497,o),
(423,611,cs),
(423,724,l),
(635,724,l),
(635,740,l),
(-35,740,l),
(-35,724,l),
(407,724,l),
(407,611,ls),
(407,487,o),
(330,410,o),
(210,410,cs),
(100,410,l),
(100,175,ls),
(100,66,o),
(152,-9,o),
(259,-9,cs),
(351,-9,o),
(408,64,o),
(408,178,cs)
);
},
{
closed = 1;
nodes = (
(428,-50,l),
(449,-50,l),
(635,205,l),
(635,233,l)
);
}
);
width = 536;
}
);
note = dvS_R;
},
{
glyphname = dvH_R;
layers = (
{
layerId = m01;
shapes = (
{
closed = 1;
nodes = (
(499,26,l),
(482,-32,o),
(421,-102,o),
(308,-102,cs),
(172,-102,o),
(106,-5,o),
(106,105,cs),
(106,213,o),
(177,311,o),
(303,311,cs),
(388,311,o),
(443,268,o),
(469,225,c),
(326,89,l),
(349,89,l),
(489,222,l),
(462,274,o),
(402,327,o),
(303,327,cs),
(283,327,o),
(264,325,o),
(246,320,c),
(182,335,o),
(130,373,o),
(130,440,cs),
(130,522,o),
(200,549,o),
(277,549,cs),
(469,549,l),
(469,724,l),
(622,724,l),
(622,740,l),
(-35,740,l),
(-35,724,l),
(452,724,l),
(452,565,l),
(277,565,ls),
(188,565,o),
(113,531,o),
(113,440,cs),
(113,361,o),
(175,324,o),
(220,312,c),
(135,279,o),
(89,194,o),
(89,105,cs),
(89,-11,o),
(159,-119,o),
(308,-119,cs),
(435,-119,o),
(498,-38,o),
(516,26,c)
);
},
{
closed = 1;
nodes = (
(412,-397,l),
(431,-397,l),
(315,-219,l),
(297,-219,l)
);
}
);
width = 587;
}
);
note = dvH_R;
},
{
glyphname = dvLL_R;
layers = (
{
layerId = m01;
shapes = (
{
closed = 1;
nodes = (
(422,133,o),
(498,210,o),
(514,294,c),
(516,294,l),
(531,215,o),
(600,141,o),
(706,134,c),
(530,-37,l),
(553,-37,l),
(726,132,l),
(900,-37,l),
(923,-37,l),
(746,134,l),
(863,144,o),
(945,232,o),
(945,351,cs),
(945,487,o),
(851,576,o),
(726,576,cs),
(599,576,o),
(535,494,o),
(516,417,c),
(514,417,l),
(495,494,o),
(431,576,o),
(304,576,cs),
(179,576,o),
(85,487,o),
(85,351,cs),
(85,225,o),
(177,133,o),
(305,133,cs)
);
},
{
closed = 1;
nodes = (
(189,149,o),
(102,231,o),
(102,351,cs),
(102,478,o),
(188,560,o),
(304,560,cs),
(426,560,o),
(505,474,o),
(505,351,cs),
(505,234,o),
(425,149,o),
(305,149,cs)
);
},
{
closed = 1;
nodes = (
(605,149,o),
(525,234,o),
(525,351,cs),
(525,474,o),
(604,560,o),
(726,560,cs),
(842,560,o),
(928,478,o),
(928,351,cs),
(928,231,o),
(841,149,o),
(725,149,cs)
);
},
{
closed = 1;
nodes = (
(-35,724,l),
(1065,724,l),
(1065,740,l),
(-35,740,l)
);
}
);
width = 1030;
}
);
note = dvLL_R;
},
{
glyphname = dvKx_R;
layers = (
{
layerId = m01;
shapes = (
{
closed = 1;
nodes = (
(527,0,l),
(543,0,l),
(543,351,ls),
(543,449,o),
(598,568,o),
(742,568,cs),
(848,568,o),
(939,490,o),
(939,359,c),
(956,359,l),
(956,499,o),
(858,584,o),
(742,584,cs),
(629,584,o),
(567,517,o),
(543,440,c),
(543,724,l),
(956,724,l),
(956,740,l),
(-35,740,l),
(-35,724,l),
(527,724,l),
(527,443,l),
(502,518,o),
(438,584,o),
(324,584,cs),
(204,584,o),
(105,499,o),
(105,359,cs),
(105,212,o),
(201,127,o),
(324,127,cs),
(353,127,o),
(379,131,o),
(402,139,c),
(191,-46,l),
(214,-46,l),
(461,172,ls),
(493,198,o),
(515,232,o),
(527,268,c)
);
},
{
closed = 1;
nodes = (
(211,143,o),
(122,221,o),
(122,359,cs),
(122,490,o),
(214,568,o),
(324,568,cs),
(470,568,o),
(527,453,o),
(527,355,cs),
(527,354,ls),
(527,263,o),
(470,143,o),
(324,143,cs)
);
},
{
closed = 1;
nodes = (
(98,47,o),
(108,57,o),
(108,71,cs),
(108,85,o),
(98,95,o),
(84,95,cs),
(69,95,o),
(59,85,o),
(59,71,cs),
(59,57,o),
(69,47,o),
(84,47,cs)
);
}
);
width = 791;
}
);
note = dvKx_R;
},
{
glyphname = dvKHx_R;
layers = (
{
layerId = m01;
shapes = (
{
closed = 1;
nodes = (
(-35,724,l),
(293,724,l),
(293,563,ls),
(293,419,o),
(213,394,o),
(144,394,cs),
(100,394,l),
(100,214,ls),
(100,82,o),
(188,0,o),
(320,0,cs),
(349,0,o),
(375,5,o),
(399,13,c),
(214,-149,l),
(214,-151,l),
(234,-151,l),
(472,59,l),
(472,59,l),
(502,88,o),
(524,126,o),
(536,165,c),
(553,162,o),
(570,160,o),
(588,160,cs),
(710,160,o),
(794,237,o),
(794,362,cs),
(794,487,o),
(712,565,o),
(588,565,cs),
(465,565,o),
(383,487,o),
(383,362,cs),
(383,264,o),
(436,192,o),
(522,169,c),
(497,90,o),
(428,16,o),
(321,16,cs),
(196,16,o),
(117,94,o),
(117,214,cs),
(117,378,l),
(124,378,o),
(131,378,o),
(138,378,cs),
(226,378,o),
(310,410,o),
(310,563,cs),
(310,724,l),
(794,724,l),
(794,740,l),
(-35,740,l)
);
},
{
closed = 1;
nodes = (
(118,-83,o),
(128,-73,o),
(128,-59,cs),
(128,-45,o),
(118,-35,o),
(104,-35,cs),
(89,-35,o),
(79,-45,o),
(79,-59,cs),
(79,-73,o),
(89,-83,o),
(104,-83,cs)
);
},
{
closed = 1;
nodes = (
(475,176,o),
(400,250,o),
(400,362,cs),
(400,476,o),
(475,549,o),
(588,549,cs),
(702,549,o),
(777,476,o),
(777,362,cs),
(777,250,o),
(702,176,o),
(588,176,cs)
);
}
);
width = 679;
}
);
note = dvKHx_R;
},
{
glyphname = dvGx_R;
layers = (
{
layerId = m01;
shapes = (
{
closed = 1;
nodes = (
(541,312,l),
(541,334,l),
(188,-20,l),
(210,-20,l)
);
},
{
closed = 1;
nodes = (
(-35,724,l),
(297,724,l),
(297,454,ls),
(297,393,o),
(273,329,o),
(186,329,cs),
(103,329,o),
(76,394,o),
(76,451,cs),
(76,482,l),
(59,482,l),
(59,452,ls),
(59,383,o),
(95,313,o),
(186,313,cs),
(280,313,o),
(314,380,o),
(314,454,cs),
(314,724,l),
(541,724,l),
(541,740,l),
(-35,740,l)
);
},
{
closed = 1;
nodes = (
(98,107,o),
(108,117,o),
(108,131,cs),
(108,145,o),
(98,155,o),
(84,155,cs),
(69,155,o),
(59,145,o),
(59,131,cs),
(59,117,o),
(69,107,o),
(84,107,cs)
);
}
);
width = 420;
}
);
note = dvGx_R;
},
{
glyphname = dvJx_R;
layers = (
{
layerId = m01;
shapes = (
{
closed = 1;
nodes = (
(328,-20,l),
(350,-20,l),
(684,315,l),
(684,337,l)
);
},
{
closed = 1;
nodes = (
(-35,724,l),
(684,724,l),
(684,740,l),
(-35,740,l)
);
},
{
closed = 1;
nodes = (
(359,229,o),
(422,304,o),
(422,410,cs),
(422,493,l),
(684,493,l),
(684,509,l),
(405,509,l),
(405,409,ls),
(405,313,o),
(348,245,o),
(256,245,cs),
(168,245,o),
(113,313,o),
(113,409,cs),
(113,509,l),
(96,509,l),
(96,410,ls),
(96,304,o),
(156,229,o),
(255,229,cs)
);
},
{
closed = 1;
nodes = (
(148,37,o),
(158,47,o),
(158,61,cs),
(158,75,o),
(148,85,o),
(134,85,cs),
(119,85,o),
(109,75,o),
(109,61,cs),
(109,47,o),
(119,37,o),
(134,37,cs)
);
}
);
width = 541;
}
);
note = dvJx_R;
},
{
glyphname = dvPHx_R;
layers = (
{
layerId = m01;
shapes = (
{
closed = 1;
nodes = (
(213,247,o),
(157,330,o),
(157,469,cs),
(157,724,l),
(511,724,l),
(511,435,ls),
(511,333,o),
(449,247,o),
(337,247,cs)
);
},
{
closed = 1;
nodes = (
(-35,724,l),
(140,724,l),
(140,469,ls),
(140,320,o),
(205,231,o),
(336,231,cs),
(361,231,o),
(383,235,o),
(403,242,c),
(143,0,l),
(166,0,l),
(462,276,ls),
(484,296,o),
(501,322,o),
(511,352,c),
(511,0,l),
(528,0,l),
(528,351,ls),
(528,449,o),
(583,568,o),
(727,568,cs),
(853,568,o),
(924,490,o),
(924,359,c),
(941,359,l),
(941,499,o),
(863,584,o),
(727,584,cs),
(613,584,o),
(551,515,o),
(528,438,c),
(528,724,l),
(941,724,l),
(941,740,l),
(-35,740,l)
);
},
{
closed = 1;
nodes = (
(78,137,o),
(88,147,o),
(88,161,cs),
(88,175,o),
(78,185,o),
(64,185,cs),
(49,185,o),
(39,175,o),
(39,161,cs),
(39,147,o),
(49,137,o),
(64,137,cs)
);
}
);
width = 811;
}
);
note = dvPHx_R;
},
{
glyphname = dvK_KA;
layers = (
{
layerId = m01;
shapes = (
{
closed = 1;
nodes = (
(601,584,o),
(545,519,o),
(523,444,c),
(523,724,l),
(1321,724,l),
(1321,443,l),
(1296,518,o),
(1232,584,o),
(1118,584,cs),
(1019,584,o),
(935,527,o),
(908,428,c),
(884,527,o),
(807,584,o),
(712,584,cs)
);
},
{
closed = 1;
nodes = (
(191,143,o),
(102,221,o),
(102,359,cs),
(102,490,o),
(194,568,o),
(304,568,cs),
(450,568,o),
(507,453,o),
(507,355,cs),
(507,354,ls),
(507,263,o),
(450,143,o),
(304,143,cs)
);
},
{
closed = 1;
nodes = (
(1321,0,l),
(1337,0,l),
(1337,351,ls),
(1337,449,o),
(1392,568,o),
(1536,568,cs),
(1642,568,o),
(1733,490,o),
(1733,359,cs),
(1733,221,o),
(1648,143,o),
(1539,143,cs),
(1520,143,o),
(1499,145,o),
(1482,149,c),
(1482,133,l),
(1495,130,o),
(1518,127,o),
(1539,127,cs),
(1658,127,o),
(1750,212,o),
(1750,359,cs),
(1750,499,o),
(1652,584,o),
(1536,584,cs),
(1423,584,o),
(1361,517,o),
(1337,440,c),
(1337,724,l),
(1870,724,l),
(1870,740,l),
(-35,740,l),
(-35,724,l),
(507,724,l),
(507,443,l),
(482,518,o),
(418,584,o),
(304,584,cs),
(184,584,o),
(85,499,o),
(85,359,cs),
(85,212,o),
(181,127,o),
(304,127,cs),
(416,127,o),
(482,193,o),
(507,268,c),
(507,0,l),
(523,0,l),
(523,351,ls),
(523,449,o),
(568,568,o),
(712,568,cs),
(818,568,o),
(899,490,o),
(899,359,cs),
(899,212,o),
(995,127,o),
(1118,127,cs),
(1230,127,o),
(1296,193,o),
(1321,268,c)
);
},
{
closed = 1;
nodes = (
(1005,143,o),
(916,221,o),
(916,359,cs),
(916,490,o),
(1008,568,o),
(1118,568,cs),
(1264,568,o),
(1321,453,o),
(1321,355,cs),
(1321,354,ls),
(1321,263,o),
(1264,143,o),
(1118,143,cs)
);
}
);
width = 1835;
}
);
note = dvK_KA;
},
{
glyphname = dvKx_KxA;
layers = (
{
layerId = m01;
shapes = (
{
closed = 1;
nodes = (
(601,584,o),
(545,519,o),
(523,444,c),
(523,724,l),
(1321,724,l),
(1321,443,l),
(1296,518,o),
(1232,584,o),
(1118,584,cs),
(1019,584,o),
(935,527,o),
(908,428,c),
(884,527,o),
(807,584,o),
(712,584,cs)
);
},
{
closed = 1;
nodes = (
(191,143,o),
(102,221,o),
(102,359,cs),
(102,490,o),
(194,568,o),
(304,568,cs),
(450,568,o),
(507,453,o),
(507,355,cs),
(507,354,ls),
(507,263,o),
(450,143,o),
(304,143,cs)
);
},
{
closed = 1;
nodes = (
(312,-21,o),
(322,-11,o),
(322,3,cs),
(322,17,o),
(312,27,o),
(298,27,cs),
(283,27,o),
(273,17,o),
(273,3,cs),
(273,-11,o),
(283,-21,o),
(298,-21,cs)
);
},
{
closed = 1;
nodes = (
(1126,-21,o),
(1136,-11,o),
(1136,3,cs),
(1136,17,o),
(1126,27,o),
(1112,27,cs),
(1097,27,o),
(1087,17,o),
(1087,3,cs),
(1087,-11,o),
(1097,-21,o),
(1112,-21,cs)
);
},
{
closed = 1;
nodes = (
(1321,0,l),
(1337,0,l),
(1337,351,ls),
(1337,449,o),
(1392,568,o),
(1536,568,cs),
(1642,568,o),
(1733,490,o),
(1733,359,cs),
(1733,221,o),
(1648,143,o),
(1539,143,cs),
(1520,143,o),
(1499,145,o),
(1482,149,c),
(1482,133,l),
(1495,130,o),
(1518,127,o),
(1539,127,cs),
(1658,127,o),
(1750,212,o),
(1750,359,cs),
(1750,499,o),
(1652,584,o),
(1536,584,cs),
(1423,584,o),
(1361,517,o),
(1337,440,c),
(1337,724,l),
(1870,724,l),
(1870,740,l),
(-35,740,l),
(-35,724,l),
(507,724,l),
(507,443,l),
(482,518,o),
(418,584,o),
(304,584,cs),
(184,584,o),
(85,499,o),
(85,359,cs),
(85,212,o),
(181,127,o),
(304,127,cs),
(416,127,o),
(482,193,o),
(507,268,c),
(507,0,l),
(523,0,l),
(523,351,ls),
(523,449,o),
(568,568,o),
(712,568,cs),
(818,568,o),
(899,490,o),
(899,359,cs),
(899,212,o),
(995,127,o),
(1118,127,cs),
(1230,127,o),
(1296,193,o),
(1321,268,c)
);
},
{
closed = 1;
nodes = (
(1005,143,o),
(916,221,o),
(916,359,cs),
(916,490,o),
(1008,568,o),
(1118,568,cs),
(1264,568,o),
(1321,453,o),
(1321,355,cs),
(1321,354,ls),
(1321,263,o),
(1264,143,o),
(1118,143,cs)
);
}
);
width = 1835;
}
);
note = dvKx_KxA;
},
{
glyphname = dvK_KHA;
layers = (
{
layerId = m01;
shapes = (
{
closed = 1;
nodes = (
(914,394,l),
(901,513,o),
(818,584,o),
(712,584,cs),
(601,584,o),
(545,519,o),
(523,444,c),
(523,724,l),
(1092,724,l),
(1092,563,ls),
(1092,419,o),
(1012,394,o),
(943,394,cs)
);
},
{
closed = 1;
nodes = (
(191,143,o),
(102,221,o),
(102,359,cs),
(102,490,o),
(194,568,o),
(304,568,cs),
(450,568,o),
(507,453,o),
(507,355,cs),
(507,354,ls),
(507,263,o),
(450,143,o),
(304,143,cs)
);
},
{
closed = 1;
nodes = (
(1564,0,l),
(1581,0,l),
(1581,724,l),
(1743,724,l),
(1743,740,l),
(-35,740,l),
(-35,724,l),
(507,724,l),
(507,443,l),
(482,518,o),
(418,584,o),
(304,584,cs),
(184,584,o),
(85,499,o),
(85,359,cs),
(85,212,o),
(181,127,o),
(304,127,cs),
(416,127,o),
(482,193,o),
(507,268,c),
(507,0,l),
(523,0,l),
(523,351,ls),
(523,449,o),
(568,568,o),
(712,568,cs),
(818,568,o),
(899,490,o),
(899,359,cs),
(899,214,ls),
(899,82,o),
(987,0,o),
(1119,0,cs),
(1235,0,o),
(1307,77,o),
(1337,164,c),
(1352,161,o),
(1368,159,o),
(1384,159,cs),
(1483,159,o),
(1542,218,o),
(1564,285,c)
);
},
{
closed = 1;
nodes = (
(1282,175,o),
(1199,244,o),
(1199,366,cs),
(1199,481,o),
(1285,549,o),
(1384,549,cs),
(1513,549,o),
(1564,448,o),
(1564,362,cs),
(1564,361,ls),
(1564,280,o),
(1513,175,o),
(1384,175,cs)
);
},
{
closed = 1;
nodes = (
(995,16,o),
(916,94,o),
(916,214,cs),
(916,378,l),
(923,378,o),
(930,378,o),
(937,378,cs),
(1025,378,o),
(1109,410,o),
(1109,563,cs),
(1109,724,l),
(1564,724,l),
(1564,441,l),
(1542,507,o),
(1485,565,o),
(1384,565,cs),
(1273,565,o),
(1182,490,o),
(1182,366,cs),
(1182,260,o),
(1239,191,o),
(1320,168,c),
(1293,87,o),
(1225,16,o),
(1120,16,cs)
);
}
);
width = 1708;
}
);
note = dvK_KHA;
},
{
glyphname = dvK_CA;
layers = (
{
layerId = m01;
shapes = (
{
closed = 1;
nodes = (
(948,131,o),
(854,201,o),
(854,330,cs),
(854,447,o),
(934,539,o),
(1067,539,cs),
(1096,539,l),
(1096,555,l),
(735,555,ls),
(612,555,o),
(548,494,o),
(523,421,c),
(523,724,l),
(1264,724,l),
(1264,333,ls),
(1264,227,o),
(1175,131,o),
(1055,131,cs)
);
},
{
closed = 1;
nodes = (
(191,143,o),
(102,221,o),
(102,359,cs),
(102,490,o),
(194,568,o),
(304,568,cs),
(450,568,o),
(507,453,o),
(507,355,cs),
(507,354,ls),
(507,263,o),
(450,143,o),
(304,143,cs)
);
},
{
closed = 1;
nodes = (
(523,335,ls),
(523,433,o),
(578,539,o),
(735,539,cs),
(981,539,l),
(891,509,o),
(837,431,o),
(837,330,cs),
(837,191,o),
(938,115,o),
(1056,115,cs),
(1154,115,o),
(1233,174,o),
(1264,253,c),
(1264,0,l),
(1281,0,l),
(1281,724,l),
(1443,724,l),
(1443,740,l),
(-35,740,l),
(-35,724,l),
(507,724,l),
(507,443,l),
(482,518,o),
(418,584,o),
(304,584,cs),
(184,584,o),
(85,499,o),
(85,359,cs),
(85,212,o),
(181,127,o),
(304,127,cs),
(416,127,o),
(482,193,o),
(507,268,c),
(507,0,l),
(523,0,l)
);
}
);
width = 1408;
}
);
note = dvK_CA;
},
{
glyphname = dvK_JA;
layers = (
{
layerId = m01;
shapes = (
{
closed = 1;
nodes = (
(191,143,o),
(102,221,o),
(102,359,cs),
(102,490,o),
(194,568,o),
(304,568,cs),
(450,568,o),
(507,453,o),
(507,355,cs),
(507,354,ls),
(507,263,o),
(450,143,o),
(304,143,cs)
);
},
{
closed = 1;
nodes = (
(916,359,ls),
(916,499,o),
(828,584,o),
(712,584,cs),
(601,584,o),
(545,519,o),
(523,444,c),
(523,724,l),
(1482,724,l),
(1482,509,l),
(1208,509,l),
(1208,339,ls),
(1208,243,o),
(1151,175,o),
(1059,175,cs),
(971,175,o),
(916,243,o),
(916,339,cs)
);
},
{
closed = 1;
nodes = (
(899,340,ls),
(899,234,o),
(959,159,o),
(1058,159,cs),
(1162,159,o),
(1225,234,o),
(1225,340,cs),
(1225,493,l),
(1482,493,l),
(1482,0,l),
(1499,0,l),
(1499,724,l),
(1661,724,l),
(1661,740,l),
(-35,740,l),
(-35,724,l),
(507,724,l),
(507,443,l),
(482,518,o),
(418,584,o),
(304,584,cs),
(184,584,o),
(85,499,o),
(85,359,cs),
(85,212,o),
(181,127,o),
(304,127,cs),
(416,127,o),
(482,193,o),
(507,268,c),
(507,0,l),
(523,0,l),
(523,351,ls),
(523,449,o),
(568,568,o),
(712,568,cs),
(818,568,o),
(899,490,o),
(899,359,cs)
);
}
);
width = 1626;
}
);
note = dvK_JA;
},
{
glyphname = dvK_TTA;
layers = (
{
layerId = m01;
shapes = (
{
closed = 1;
nodes = (
(601,584,o),
(545,519,o),
(523,444,c),
(523,724,l),
(1235,724,l),
(1235,573,l),
(1184,573,ls),
(1056,573,o),
(950,522,o),
(912,411,c),
(892,520,o),
(813,584,o),
(712,584,cs)
);
},
{
closed = 1;
nodes = (
(191,143,o),
(102,221,o),
(102,359,cs),
(102,490,o),
(194,568,o),
(304,568,cs),
(450,568,o),
(507,453,o),
(507,355,cs),
(507,354,ls),
(507,263,o),
(450,143,o),
(304,143,cs)
);
},
{
closed = 1;
nodes = (
(523,351,ls),
(523,449,o),
(568,568,o),
(712,568,cs),
(818,568,o),
(899,490,o),
(899,359,c),
(899,359,l),
(897,344,o),
(896,328,o),
(896,311,cs),
(896,166,o),
(1005,63,o),
(1151,63,cs),
(1302,63,o),
(1405,169,o),
(1405,320,c),
(1388,320,l),
(1388,179,o),
(1290,79,o),
(1151,79,cs),
(1015,79,o),
(913,176,o),
(913,312,cs),
(913,479,o),
(1031,557,o),
(1184,557,cs),
(1252,557,l),
(1252,724,l),
(1500,724,l),
(1500,740,l),
(-35,740,l),
(-35,724,l),
(507,724,l),
(507,443,l),
(482,518,o),
(418,584,o),
(304,584,cs),
(184,584,o),
(85,499,o),
(85,359,cs),
(85,212,o),
(181,127,o),
(304,127,cs),
(416,127,o),
(482,193,o),
(507,268,c),
(507,0,l),
(523,0,l)
);
}
);
width = 1465;
}
);
note = dvK_TTA;
},
{
glyphname = dvK_NNA;
layers = (
{
layerId = m01;
shapes = (
{
closed = 1;
nodes = (
(523,724,l),
(897,724,l),
(897,462,l),
(866,538,o),
(797,584,o),
(712,584,cs),
(601,584,o),
(545,519,o),
(523,444,c)
);
},
{
closed = 1;
nodes = (
(191,143,o),
(102,221,o),
(102,359,cs),
(102,490,o),
(194,568,o),
(304,568,cs),
(450,568,o),
(507,453,o),
(507,355,cs),
(507,354,ls),
(507,263,o),
(450,143,o),
(304,143,cs)
);
},
{
closed = 1;
nodes = (
(970,234,o),
(914,302,o),
(914,398,cs),
(914,724,l),
(1206,724,l),
(1206,398,ls),
(1206,302,o),
(1152,234,o),
(1060,234,cs)
);
},
{
closed = 1;
nodes = (
(523,351,ls),
(523,449,o),
(568,568,o),
(712,568,cs),
(808,568,o),
(884,504,o),
(897,401,cs),
(897,399,ls),
(897,293,o),
(958,218,o),
(1059,218,cs),
(1163,218,o),
(1223,293,o),
(1223,399,cs),
(1223,724,l),
(1473,724,l),
(1473,0,l),
(1490,0,l),
(1490,724,l),
(1652,724,l),
(1652,740,l),
(-35,740,l),
(-35,724,l),
(507,724,l),
(507,443,l),
(482,518,o),
(418,584,o),
(304,584,cs),
(184,584,o),
(85,499,o),
(85,359,cs),
(85,212,o),
(181,127,o),
(304,127,cs),
(416,127,o),
(482,193,o),
(507,268,c),
(507,0,l),
(523,0,l)
);
}
);
width = 1617;
}
);
note = dvK_NNA;
},
{
glyphname = dvK_TA;
layers = (
{
layerId = m01;
shapes = (
{
closed = 1;
nodes = (
(-35,724,l),
(550,724,l),
(550,483,l),
(36,483,l),
(36,468,l),
(287,468,l),
(189,448,o),
(108,377,o),
(108,243,cs),
(108,90,o),
(204,2,o),
(368,2,cs),
(392,2,l),
(392,18,l),
(368,18,ls),
(213,18,o),
(125,99,o),
(125,243,cs),
(125,397,o),
(231,467,o),
(394,467,cs),
(550,467,l),
(550,0,l),
(566,0,l),
(566,259,ls),
(566,350,o),
(628,470,o),
(790,470,cs),
(901,470,o),
(997,388,o),
(997,252,cs),
(997,109,o),
(909,24,o),
(782,24,cs),
(761,24,o),
(732,27,o),
(716,30,c),
(716,14,l),
(731,11,o),
(759,8,o),
(782,8,cs),
(919,8,o),
(1014,100,o),
(1014,252,cs),
(1014,398,o),
(909,486,o),
(788,486,cs),
(662,486,o),
(592,417,o),
(566,341,c),
(566,724,l),
(1134,724,l),
(1134,740,l),
(-35,740,l)
);
}
);
width = 1099;
}
);
note = dvK_TA;
},
{
glyphname = dvKx_TA;
layers = (
{
layerId = m01;
shapes = (
{
closed = 1;
nodes = (
(598,579,o),
(544,516,o),
(523,444,c),
(523,724,l),
(1315,724,l),
(1315,503,l),
(1149,503,ls),
(1023,503,o),
(928,462,o),
(887,372,c),
(882,517,o),
(800,579,o),
(702,579,cs)
);
},
{
closed = 1;
nodes = (
(191,143,o),
(102,221,o),
(102,359,cs),
(102,490,o),
(194,568,o),
(304,568,cs),
(450,568,o),
(507,453,o),
(507,355,cs),
(507,354,ls),
(507,263,o),
(450,143,o),
(304,143,cs)
);
},
{
closed = 1;
nodes = (
(312,-21,o),
(322,-11,o),
(322,3,cs),
(322,17,o),
(312,27,o),
(298,27,cs),
(283,27,o),
(273,17,o),
(273,3,cs),
(273,-11,o),
(283,-21,o),
(298,-21,cs)
);
},
{
closed = 1;
nodes = (
(523,351,ls),
(523,447,o),
(566,563,o),
(702,563,cs),
(803,563,o),
(885,491,o),
(869,317,c),
(865,298,o),
(863,276,o),
(863,253,cs),
(863,94,o),
(959,2,o),
(1123,2,cs),
(1147,2,l),
(1147,18,l),
(1123,18,ls),
(968,18,o),
(880,103,o),
(880,253,cs),
(880,414,o),
(986,487,o),
(1149,487,cs),
(1315,487,l),
(1315,0,l),
(1332,0,l),
(1332,724,l),
(1494,724,l),
(1494,740,l),
(-35,740,l),
(-35,724,l),
(507,724,l),
(507,443,l),
(482,518,o),
(418,584,o),
(304,584,cs),
(184,584,o),
(85,499,o),
(85,359,cs),
(85,212,o),
(181,127,o),
(304,127,cs),
(416,127,o),
(482,193,o),
(507,268,c),
(507,0,l),
(523,0,l)
);
}
);
width = 1459;
}
);
note = dvKx_TA;
},
{
glyphname = dvK_T_YA;
layers = (
{
layerId = m01;
shapes = (
{
closed = 1;
nodes = (
(598,579,o),
(544,516,o),
(523,444,c),
(523,724,l),
(1496,724,l),
(1496,635,ls),
(1496,486,o),
(1401,455,o),
(1289,455,cs),
(1277,455,l),
(1262,488,o),
(1220,533,o),
(1101,533,cs),
(988,533,o),
(913,487,o),
(882,393,c),
(869,524,o),
(796,579,o),
(702,579,cs)
);
},
{
closed = 1;
nodes = (
(191,143,o),
(102,221,o),
(102,359,cs),
(102,490,o),
(194,568,o),
(304,568,cs),
(450,568,o),
(507,453,o),
(507,355,cs),
(507,354,ls),
(507,263,o),
(450,143,o),
(304,143,cs)
);
},
{
closed = 1;
nodes = (
(1376,154,o),
(1285,246,o),
(1285,400,cs),
(1285,439,l),
(1289,439,ls),
(1417,439,o),
(1513,480,o),
(1513,635,cs),
(1513,724,l),
(1764,724,l),
(1764,368,ls),
(1764,238,o),
(1654,154,o),
(1529,154,cs)
);
},
{
closed = 1;
nodes = (
(523,351,ls),
(523,447,o),
(566,563,o),
(702,563,cs),
(803,563,o),
(878,495,o),
(869,323,cs),
(868,310,o),
(867,297,o),
(867,283,cs),
(867,124,o),
(963,32,o),
(1127,32,cs),
(1151,32,l),
(1151,48,l),
(1127,48,ls),
(972,48,o),
(884,133,o),
(884,283,cs),
(884,441,o),
(961,517,o),
(1103,517,cs),
(1269,517,o),
(1269,425,o),
(1269,421,cs),
(1269,400,ls),
(1269,241,o),
(1362,138,o),
(1528,138,cs),
(1661,138,o),
(1740,216,o),
(1764,285,c),
(1764,0,l),
(1781,0,l),
(1781,724,l),
(1943,724,l),
(1943,740,l),
(-35,740,l),
(-35,724,l),
(507,724,l),
(507,443,l),
(482,518,o),
(418,584,o),
(304,584,cs),
(184,584,o),
(85,499,o),
(85,359,cs),
(85,212,o),
(181,127,o),
(304,127,cs),
(416,127,o),
(482,193,o),
(507,268,c),
(507,0,l),
(523,0,l)
);
}
);
width = 1908;
}
);
note = dvK_T_YA;
},
{
glyphname = dvK_T_RA;
layers = (
{
layerId = m01;
shapes = (
{
closed = 1;
nodes = (
(607,584,o),
(547,518,o),
(523,442,c),
(523,724,l),
(1361,724,l),
(1361,412,l),
(1329,474,o),
(1259,543,o),
(1138,543,cs),
(1034,543,o),
(947,489,o),
(919,387,c),
(897,519,o),
(811,584,o),
(715,584,cs)
);
},
{
closed = 1;
nodes = (
(191,143,o),
(102,221,o),
(102,359,cs),
(102,490,o),
(194,568,o),
(304,568,cs),
(450,568,o),
(507,453,o),
(507,355,cs),
(507,354,ls),
(507,263,o),
(450,143,o),
(304,143,cs)
);
},
{
closed = 1;
nodes = (
(523,351,ls),
(523,449,o),
(576,568,o),
(715,568,cs),
(816,568,o),
(909,488,o),
(909,318,c),
(909,318,l),
(909,313,l),
(926,313,l),
(926,450,o),
(1021,527,o),
(1138,527,cs),
(1253,527,o),
(1334,459,o),
(1361,370,c),
(994,2,l),
(994,0,l),
(1014,0,l),
(1361,348,l),
(1361,0,l),
(1378,0,l),
(1378,724,l),
(1540,724,l),
(1540,740,l),
(-35,740,l),
(-35,724,l),
(507,724,l),
(507,443,l),
(482,518,o),
(418,584,o),
(304,584,cs),
(184,584,o),
(85,499,o),
(85,359,cs),
(85,212,o),
(181,127,o),
(304,127,cs),
(416,127,o),
(482,193,o),
(507,268,c),
(507,0,l),
(523,0,l)
);
}
);
width = 1505;
}
);
note = dvK_T_RA;
},
{
glyphname = dvK_T_VA;
layers = (
{
layerId = m01;
shapes = (
{
closed = 1;
nodes = (
(598,579,o),
(544,516,o),
(523,444,c),
(523,724,l),
(1717,724,l),
(1717,441,l),
(1691,519,o),
(1622,588,o),
(1498,588,cs),
(1423,588,o),
(1355,557,o),
(1312,503,c),
(1153,503,ls),
(1019,503,o),
(921,457,o),
(883,355,c),
(875,514,o),
(800,579,o),
(702,579,cs)
);
},
{
closed = 1;
nodes = (
(191,143,o),
(102,221,o),
(102,359,cs),
(102,490,o),
(194,568,o),
(304,568,cs),
(450,568,o),
(507,453,o),
(507,355,cs),
(507,354,ls),
(507,263,o),
(450,143,o),
(304,143,cs)
);
},
{
closed = 1;
nodes = (
(1377,141,o),
(1282,220,o),
(1282,359,cs),
(1282,493,o),
(1381,572,o),
(1498,572,cs),
(1655,572,o),
(1717,455,o),
(1717,355,cs),
(1717,354,ls),
(1717,262,o),
(1655,141,o),
(1498,141,cs)
);
},
{
closed = 1;
nodes = (
(1896,724,l),
(1896,740,l),
(-35,740,l),
(-35,724,l),
(507,724,l),
(507,443,l),
(482,518,o),
(418,584,o),
(304,584,cs),
(184,584,o),
(85,499,o),
(85,359,cs),
(85,212,o),
(181,127,o),
(304,127,cs),
(416,127,o),
(482,193,o),
(507,268,c),
(507,0,l),
(523,0,l),
(523,351,ls),
(523,447,o),
(566,563,o),
(702,563,cs),
(805,563,o),
(880,484,o),
(868,282,cs),
(867,273,o),
(867,263,o),
(867,253,cs),
(867,94,o),
(963,2,o),
(1127,2,cs),
(1151,2,l),
(1151,18,l),
(1127,18,ls),
(972,18,o),
(884,103,o),
(884,253,cs),
(884,414,o),
(990,487,o),
(1153,487,cs),
(1301,487,l),
(1278,452,o),
(1265,409,o),
(1265,359,cs),
(1265,211,o),
(1367,125,o),
(1498,125,cs),
(1620,125,o),
(1691,194,o),
(1717,271,c),
(1717,0,l),
(1734,0,l),
(1734,724,l)
);
}
);
width = 1861;
}
);
note = dvK_T_VA;
},
{
glyphname = dvK_THA;
layers = (
{
layerId = m01;
shapes = (
{
closed = 1;
nodes = (
(191,143,o),
(102,221,o),
(102,359,cs),
(102,490,o),
(194,568,o),
(304,568,cs),
(450,568,o),
(507,453,o),
(507,355,cs),
(507,354,ls),
(507,263,o),
(450,143,o),
(304,143,cs)
);
},
{
closed = 1;
nodes = (
(601,584,o),
(545,519,o),
(523,444,c),
(523,724,l),
(1029,724,l),
(1029,725,l),
(1043,730,o),
(1062,733,o),
(1084,733,cs),
(1179,733,o),
(1234,665,o),
(1234,581,cs),
(1234,439,o),
(1109,411,o),
(1009,411,cs),
(913,411,l),
(898,515,o),
(817,584,o),
(712,584,cs)
);
},
{
closed = 1;
nodes = (
(1396,0,l),
(1413,0,l),
(1413,724,l),
(1575,724,l),
(1575,740,l),
(1396,740,l),
(1396,343,ls),
(1396,215,o),
(1287,130,o),
(1161,130,cs),
(997,130,o),
(909,231,o),
(916,395,c),
(1009,395,ls),
(1129,395,o),
(1251,434,o),
(1251,581,cs),
(1251,674,o),
(1188,749,o),
(1084,749,cs),
(1062,749,o),
(1041,746,o),
(1023,740,c),
(-35,740,l),
(-35,724,l),
(507,724,l),
(507,443,l),
(482,518,o),
(418,584,o),
(304,584,cs),
(184,584,o),
(85,499,o),
(85,359,cs),
(85,212,o),
(181,127,o),
(304,127,cs),
(416,127,o),
(482,193,o),
(507,268,c),
(507,0,l),
(523,0,l),
(523,351,ls),
(523,449,o),
(568,568,o),
(712,568,cs),
(818,568,o),
(899,490,o),
(899,377,c),
(899,377,l),
(899,376,ls),
(899,217,o),
(993,114,o),
(1160,114,cs),
(1295,114,o),
(1373,193,o),
(1396,264,c)
);
}
);
width = 1540;
}
);
note = dvK_THA;
},
{
glyphname = dvK_DA;
layers = (
{
layerId = m01;
shapes = (
{
closed = 1;
nodes = (
(601,584,o),
(545,519,o),
(523,444,c),
(523,724,l),
(1268,724,l),
(1268,588,l),
(1164,588,ls),
(1046,588,o),
(940,537,o),
(908,426,c),
(885,526,o),
(808,584,o),
(712,584,cs)
);
},
{
closed = 1;
nodes = (
(191,143,o),
(102,221,o),
(102,359,cs),
(102,490,o),
(194,568,o),
(304,568,cs),
(450,568,o),
(507,453,o),
(507,355,cs),
(507,354,ls),
(507,263,o),
(450,143,o),
(304,143,cs)
);
},
{
closed = 1;
nodes = (
(523,351,ls),
(523,449,o),
(568,568,o),
(712,568,cs),
(818,568,o),
(899,490,o),
(899,359,c),
(899,359,l),
(899,358,o),
(899,357,o),
(899,355,cs),
(899,221,o),
(984,129,o),
(1125,129,cs),
(1215,129,o),
(1290,177,o),
(1313,240,c),
(1313,0,l),
(1330,0,l),
(1330,321,l),
(1315,321,l),
(1315,193,o),
(1207,145,o),
(1127,145,cs),
(998,145,o),
(916,228,o),
(916,355,cs),
(916,502,o),
(1031,572,o),
(1164,572,cs),
(1285,572,l),
(1285,724,l),
(1456,724,l),
(1456,740,l),
(-35,740,l),
(-35,724,l),
(507,724,l),
(507,443,l),
(482,518,o),
(418,584,o),
(304,584,cs),
(184,584,o),
(85,499,o),
(85,359,cs),
(85,212,o),
(181,127,o),
(304,127,cs),
(416,127,o),
(482,193,o),
(507,268,c),
(507,0,l),
(523,0,l)
);
}
);
width = 1421;
}
);
note = dvK_DA;
},
{
glyphname = dvK_NA;
layers = (
{
layerId = m01;
shapes = (
{
closed = 1;
nodes = (
(601,584,o),
(545,519,o),
(523,444,c),
(523,724,l),
(1438,724,l),
(1438,511,l),
(1083,511,ls),
(1000,511,o),
(938,472,o),
(911,408,c),
(893,519,o),
(814,584,o),
(712,584,cs)
);
},
{
closed = 1;
nodes = (
(191,143,o),
(102,221,o),
(102,359,cs),
(102,490,o),
(194,568,o),
(304,568,cs),
(450,568,o),
(507,453,o),
(507,355,cs),
(507,354,ls),
(507,263,o),
(450,143,o),
(304,143,cs)
);
},
{
closed = 1;
nodes = (
(981,176,o),
(914,241,o),
(914,334,cs),
(914,430,o),
(983,495,o),
(1081,495,cs),
(1176,495,o),
(1244,429,o),
(1244,336,cs),
(1244,242,o),
(1176,176,o),
(1081,176,cs)
);
},
{
closed = 1;
nodes = (
(523,351,ls),
(523,449,o),
(568,568,o),
(712,568,cs),
(817,568,o),
(897,492,o),
(899,363,c),
(898,354,o),
(897,344,o),
(897,334,cs),
(897,233,o),
(969,160,o),
(1081,160,cs),
(1187,160,o),
(1261,233,o),
(1261,336,cs),
(1261,418,o),
(1211,477,o),
(1151,496,c),
(1438,496,l),
(1438,0,l),
(1455,0,l),
(1455,724,l),
(1617,724,l),
(1617,740,l),
(-35,740,l),
(-35,724,l),
(507,724,l),
(507,443,l),
(482,518,o),
(418,584,o),
(304,584,cs),
(184,584,o),
(85,499,o),
(85,359,cs),
(85,212,o),
(181,127,o),
(304,127,cs),
(416,127,o),
(482,193,o),
(507,268,c),
(507,0,l),
(523,0,l)
);
}
);
width = 1582;
}
);
note = dvK_NA;
},
{
glyphname = dvK_PA;
layers = (
{
layerId = m01;
shapes = (
{
closed = 1;
nodes = (
(523,724,l),
(860,724,l),
(860,479,l),
(829,546,o),
(772,584,o),
(702,584,cs),
(598,584,o),
(544,520,o),
(523,446,c)
);
},
{
closed = 1;
nodes = (
(191,143,o),
(102,221,o),
(102,359,cs),
(102,490,o),
(194,568,o),
(304,568,cs),
(450,568,o),
(507,453,o),
(507,355,cs),
(507,354,ls),
(507,263,o),
(450,143,o),
(304,143,cs)
);
},
{
closed = 1;
nodes = (
(936,247,o),
(877,330,o),
(877,469,cs),
(877,724,l),
(1251,724,l),
(1251,435,ls),
(1251,333,o),
(1185,247,o),
(1067,247,cs)
);
},
{
closed = 1;
nodes = (
(523,351,ls),
(523,449,o),
(566,568,o),
(702,568,cs),
(782,568,o),
(845,512,o),
(863,419,c),
(877,300,o),
(944,231,o),
(1066,231,cs),
(1159,231,o),
(1224,279,o),
(1251,352,c),
(1251,0,l),
(1268,0,l),
(1268,724,l),
(1430,724,l),
(1430,740,l),
(-35,740,l),
(-35,724,l),
(507,724,l),
(507,443,l),
(482,518,o),
(418,584,o),
(304,584,cs),
(184,584,o),
(85,499,o),
(85,359,cs),
(85,212,o),
(181,127,o),
(304,127,cs),
(416,127,o),
(482,193,o),
(507,268,c),
(507,0,l),
(523,0,l)
);
}
);
width = 1395;
}
);
note = dvK_PA;
},
{
glyphname = dvK_P_RA;
layers = (
{
layerId = m01;
shapes = (
{
closed = 1;
nodes = (
(523,724,l),
(860,724,l),
(860,479,l),
(829,546,o),
(772,584,o),
(702,584,cs),
(598,584,o),
(544,520,o),
(523,446,c)
);
},
{
closed = 1;
nodes = (
(191,143,o),
(102,221,o),
(102,359,cs),
(102,490,o),
(194,568,o),
(304,568,cs),
(450,568,o),
(507,453,o),
(507,355,cs),
(507,354,ls),
(507,263,o),
(450,143,o),
(304,143,cs)
);
},
{
closed = 1;
nodes = (
(936,247,o),
(877,330,o),
(877,469,cs),
(877,724,l),
(1251,724,l),
(1251,435,ls),
(1251,333,o),
(1185,247,o),
(1067,247,cs)
);
},
{
closed = 1;
nodes = (
(523,351,ls),
(523,449,o),
(566,568,o),
(702,568,cs),
(782,568,o),
(845,512,o),
(863,419,c),
(877,300,o),
(944,231,o),
(1066,231,cs),
(1094,231,o),
(1119,235,o),
(1142,243,c),
(881,1,l),
(904,1,l),
(1198,275,l),
(1222,295,o),
(1240,322,o),
(1251,352,c),
(1251,0,l),
(1268,0,l),
(1268,724,l),
(1430,724,l),
(1430,740,l),
(-35,740,l),
(-35,724,l),
(507,724,l),
(507,443,l),
(482,518,o),
(418,584,o),
(304,584,cs),
(184,584,o),
(85,499,o),
(85,359,cs),
(85,212,o),
(181,127,o),
(304,127,cs),
(416,127,o),
(482,193,o),
(507,268,c),
(507,0,l),
(523,0,l)
);
}
);
width = 1395;
}
);
note = dvK_P_RA;
},
{
glyphname = dvK_PHA;
layers = (
{
layerId = m01;
shapes = (
{
closed = 1;
nodes = (
(523,724,l),
(889,724,l),
(889,477,l),
(855,545,o),
(790,584,o),
(712,584,cs),
(601,584,o),
(545,519,o),
(523,444,c)
);
},
{
closed = 1;
nodes = (
(191,143,o),
(102,221,o),
(102,359,cs),
(102,490,o),
(194,568,o),
(304,568,cs),
(450,568,o),
(507,453,o),
(507,355,cs),
(507,354,ls),
(507,263,o),
(450,143,o),
(304,143,cs)
);
},
{
closed = 1;
nodes = (
(978,247,o),
(922,310,o),
(909,418,c),
(909,418,l),
(909,420,ls),
(907,435,o),
(906,452,o),
(906,469,cs),
(906,724,l),
(1260,724,l),
(1260,435,ls),
(1260,333,o),
(1198,247,o),
(1086,247,cs)
);
},
{
closed = 1;
nodes = (
(523,351,ls),
(523,449,o),
(568,568,o),
(712,568,cs),
(799,568,o),
(868,516,o),
(891,427,c),
(902,303,o),
(967,231,o),
(1085,231,cs),
(1174,231,o),
(1235,279,o),
(1260,352,c),
(1260,0,l),
(1277,0,l),
(1277,351,ls),
(1277,449,o),
(1332,568,o),
(1476,568,cs),
(1582,568,o),
(1673,490,o),
(1673,359,cs),
(1673,221,o),
(1588,143,o),
(1479,143,cs),
(1460,143,o),
(1439,145,o),
(1422,149,c),
(1422,133,l),
(1435,130,o),
(1458,127,o),
(1479,127,cs),
(1598,127,o),
(1690,212,o),
(1690,359,cs),
(1690,499,o),
(1592,584,o),
(1476,584,cs),
(1362,584,o),
(1300,515,o),
(1277,438,c),
(1277,724,l),
(1810,724,l),
(1810,740,l),
(-35,740,l),
(-35,724,l),
(507,724,l),
(507,443,l),
(482,518,o),
(418,584,o),
(304,584,cs),
(184,584,o),
(85,499,o),
(85,359,cs),
(85,212,o),
(181,127,o),
(304,127,cs),
(416,127,o),
(482,193,o),
(507,268,c),
(507,0,l),
(523,0,l)
);
}
);
width = 1775;
}
);
note = dvK_PHA;
},
{
glyphname = dvKx_PHA;
layers = (
{
layerId = m01;
shapes = (
{
closed = 1;
nodes = (
(523,724,l),
(889,724,l),
(889,477,l),
(855,545,o),
(790,584,o),
(712,584,cs),
(601,584,o),
(545,519,o),
(523,444,c)
);
},
{
closed = 1;
nodes = (
(191,143,o),
(102,221,o),
(102,359,cs),
(102,490,o),
(194,568,o),
(304,568,cs),
(450,568,o),
(507,453,o),
(507,355,cs),
(507,354,ls),
(507,263,o),
(450,143,o),
(304,143,cs)
);
},
{
closed = 1;
nodes = (
(978,247,o),
(922,310,o),
(909,418,c),
(909,418,l),
(909,420,ls),
(907,435,o),
(906,452,o),
(906,469,cs),
(906,724,l),
(1260,724,l),
(1260,435,ls),
(1260,333,o),
(1198,247,o),
(1086,247,cs)
);
},
{
closed = 1;
nodes = (
(523,351,ls),
(523,449,o),
(568,568,o),
(712,568,cs),
(799,568,o),
(868,516,o),
(891,427,c),
(902,303,o),
(967,231,o),
(1085,231,cs),
(1174,231,o),
(1235,279,o),
(1260,352,c),
(1260,0,l),
(1277,0,l),
(1277,351,ls),
(1277,449,o),
(1332,568,o),
(1476,568,cs),
(1582,568,o),
(1673,490,o),
(1673,359,cs),
(1673,221,o),
(1588,143,o),
(1479,143,cs),
(1460,143,o),
(1439,145,o),
(1422,149,c),
(1422,133,l),
(1435,130,o),
(1458,127,o),
(1479,127,cs),
(1598,127,o),
(1690,212,o),
(1690,359,cs),
(1690,499,o),
(1592,584,o),
(1476,584,cs),
(1362,584,o),
(1300,515,o),
(1277,438,c),
(1277,724,l),
(1810,724,l),
(1810,740,l),
(-35,740,l),
(-35,724,l),
(507,724,l),
(507,443,l),
(482,518,o),
(418,584,o),
(304,584,cs),
(184,584,o),
(85,499,o),
(85,359,cs),
(85,212,o),
(181,127,o),
(304,127,cs),
(416,127,o),
(482,193,o),
(507,268,c),
(507,0,l),
(523,0,l)
);
},
{
closed = 1;
nodes = (
(312,-21,o),
(322,-11,o),
(322,3,cs),
(322,17,o),
(312,27,o),
(298,27,cs),
(283,27,o),
(273,17,o),
(273,3,cs),
(273,-11,o),
(283,-21,o),
(298,-21,cs)
);
}
);
width = 1775;
}
);
note = dvKx_PHA;
},
{
glyphname = dvKx_PHxA;
layers = (
{
layerId = m01;
shapes = (
{
closed = 1;
nodes = (
(523,724,l),
(890,724,l),
(890,475,l),
(856,544,o),
(791,584,o),
(712,584,cs),
(601,584,o),
(545,519,o),
(523,444,c)
);
},
{
closed = 1;
nodes = (
(191,143,o),
(102,221,o),
(102,359,cs),
(102,490,o),
(194,568,o),
(304,568,cs),
(450,568,o),
(507,453,o),
(507,355,cs),
(507,354,ls),
(507,263,o),
(450,143,o),
(304,143,cs)
);
},
{
closed = 1;
nodes = (
(312,-21,o),
(322,-11,o),
(322,3,cs),
(322,17,o),
(312,27,o),
(298,27,cs),
(283,27,o),
(273,17,o),
(273,3,cs),
(273,-11,o),
(283,-21,o),
(298,-21,cs)
);
},
{
closed = 1;
nodes = (
(1093,83,o),
(1103,93,o),
(1103,107,cs),
(1103,121,o),
(1093,131,o),
(1079,131,cs),
(1064,131,o),
(1054,121,o),
(1054,107,cs),
(1054,93,o),
(1064,83,o),
(1079,83,cs)
);
},
{
closed = 1;
nodes = (
(963,247,o),
(907,330,o),
(907,469,cs),
(907,724,l),
(1261,724,l),
(1261,435,ls),
(1261,333,o),
(1199,247,o),
(1087,247,cs)
);
},
{
closed = 1;
nodes = (
(523,351,ls),
(523,449,o),
(568,568,o),
(712,568,cs),
(801,568,o),
(872,513,o),
(893,420,c),
(906,301,o),
(970,231,o),
(1086,231,cs),
(1175,231,o),
(1236,279,o),
(1261,352,c),
(1261,0,l),
(1278,0,l),
(1278,351,ls),
(1278,449,o),
(1333,568,o),
(1477,568,cs),
(1583,568,o),
(1674,490,o),
(1674,359,cs),
(1674,221,o),
(1589,143,o),
(1480,143,cs),
(1461,143,o),
(1440,145,o),
(1423,149,c),
(1423,133,l),
(1436,130,o),
(1459,127,o),
(1480,127,cs),
(1599,127,o),
(1691,212,o),
(1691,359,cs),
(1691,499,o),
(1593,584,o),
(1477,584,cs),
(1363,584,o),
(1301,515,o),
(1278,438,c),
(1278,724,l),
(1811,724,l),
(1811,740,l),
(-35,740,l),
(-35,724,l),
(507,724,l),
(507,443,l),
(482,518,o),
(418,584,o),
(304,584,cs),
(184,584,o),
(85,499,o),
(85,359,cs),
(85,212,o),
(181,127,o),
(304,127,cs),
(416,127,o),
(482,193,o),
(507,268,c),
(507,0,l),
(523,0,l)
);
}
);
width = 1776;
}
);
note = dvKx_PHxA;
},
{
glyphname = dvKx_BA;
layers = (
{
layerId = m01;
shapes = (
{
closed = 1;
nodes = (
(601,584,o),
(545,519,o),
(523,444,c),
(523,724,l),
(1360,724,l),
(1360,444,l),
(1332,523,o),
(1258,593,o),
(1138,593,cs),
(1029,593,o),
(937,531,o),
(909,426,c),
(885,526,o),
(808,584,o),
(712,584,cs)
);
},
{
closed = 1;
nodes = (
(191,143,o),
(102,221,o),
(102,359,cs),
(102,490,o),
(194,568,o),
(304,568,cs),
(450,568,o),
(507,453,o),
(507,355,cs),
(507,354,ls),
(507,263,o),
(450,143,o),
(304,143,cs)
);
},
{
closed = 1;
nodes = (
(1360,0,l),
(1377,0,l),
(1377,724,l),
(1539,724,l),
(1539,740,l),
(-35,740,l),
(-35,724,l),
(507,724,l),
(507,443,l),
(482,518,o),
(418,584,o),
(304,584,cs),
(184,584,o),
(85,499,o),
(85,359,cs),
(85,212,o),
(181,127,o),
(304,127,cs),
(416,127,o),
(482,193,o),
(507,268,c),
(507,0,l),
(523,0,l),
(523,351,ls),
(523,449,o),
(568,568,o),
(712,568,cs),
(818,568,o),
(899,490,o),
(899,359,c),
(899,359,l),
(899,357,o),
(899,355,o),
(899,353,cs),
(899,207,o),
(1010,120,o),
(1141,120,cs),
(1259,120,o),
(1332,188,o),
(1360,265,c)
);
},
{
closed = 1;
nodes = (
(312,-21,o),
(322,-11,o),
(322,3,cs),
(322,17,o),
(312,27,o),
(298,27,cs),
(283,27,o),
(273,17,o),
(273,3,cs),
(273,-11,o),
(283,-21,o),
(298,-21,cs)
);
},
{
closed = 1;
nodes = (
(1291,577,o),
(1360,458,o),
(1360,355,cs),
(1360,307,o),
(1343,251,o),
(1306,207,c),
(983,519,l),
(1023,557,o),
(1078,577,o),
(1138,577,cs)
);
},
{
closed = 1;
nodes = (
(1019,136,o),
(916,215,o),
(916,353,cs),
(916,418,o),
(937,470,o),
(972,508,c),
(1296,196,l),
(1260,160,o),
(1210,136,o),
(1141,136,cs)
);
}
);
width = 1504;
}
);
note = dvKx_BA;
},
{
glyphname = dvK_MA;
layers = (
{
layerId = m01;
shapes = (
{
closed = 1;
nodes = (
(601,584,o),
(545,519,o),
(523,444,c),
(523,724,l),
(1170,724,l),
(1170,445,l),
(1048,445,ls),
(990,445,o),
(944,424,o),
(915,388,c),
(903,511,o),
(820,584,o),
(712,584,cs)
);
},
{
closed = 1;
nodes = (
(191,143,o),
(102,221,o),
(102,359,cs),
(102,490,o),
(194,568,o),
(304,568,cs),
(450,568,o),
(507,453,o),
(507,355,cs),
(507,354,ls),
(507,263,o),
(450,143,o),
(304,143,cs)
);
},
{
closed = 1;
nodes = (
(958,152,o),
(900,207,o),
(900,290,cs),
(900,375,o),
(961,429,o),
(1048,429,cs),
(1170,429,l),
(1170,324,ls),
(1170,214,o),
(1119,152,o),
(1037,152,cs)
);
},
{
closed = 1;
nodes = (
(1419,445,l),
(1187,445,l),
(1187,724,l),
(1419,724,l)
);
},
{
closed = 1;
nodes = (
(523,351,ls),
(523,449,o),
(568,568,o),
(712,568,cs),
(817,568,o),
(897,492,o),
(899,363,c),
(889,342,o),
(883,317,o),
(883,290,cs),
(883,199,o),
(944,136,o),
(1037,136,cs),
(1129,136,o),
(1187,198,o),
(1187,325,cs),
(1187,429,l),
(1419,429,l),
(1419,0,l),
(1436,0,l),
(1436,724,l),
(1598,724,l),
(1598,740,l),
(-35,740,l),
(-35,724,l),
(507,724,l),
(507,443,l),
(482,518,o),
(418,584,o),
(304,584,cs),
(184,584,o),
(85,499,o),
(85,359,cs),
(85,212,o),
(181,127,o),
(304,127,cs),
(416,127,o),
(482,193,o),
(507,268,c),
(507,0,l),
(523,0,l)
);
}
);
width = 1563;
}
);
note = dvK_MA;
},
{
glyphname = dvKx_MA;
layers = (
{
layerId = m01;
shapes = (
{
closed = 1;
nodes = (
(601,584,o),
(545,519,o),
(523,444,c),
(523,724,l),
(1170,724,l),
(1170,445,l),
(1048,445,ls),
(990,445,o),
(944,424,o),
(915,388,c),
(903,511,o),
(820,584,o),
(712,584,cs)
);
},
{
closed = 1;
nodes = (
(191,143,o),
(102,221,o),
(102,359,cs),
(102,490,o),
(194,568,o),
(304,568,cs),
(450,568,o),
(507,453,o),
(507,355,cs),
(507,354,ls),
(507,263,o),
(450,143,o),
(304,143,cs)
);
},
{
closed = 1;
nodes = (
(312,-21,o),
(322,-11,o),
(322,3,cs),
(322,17,o),
(312,27,o),
(298,27,cs),
(283,27,o),
(273,17,o),
(273,3,cs),
(273,-11,o),
(283,-21,o),
(298,-21,cs)
);
},
{
closed = 1;
nodes = (
(958,152,o),
(900,207,o),
(900,290,cs),
(900,375,o),
(961,429,o),
(1048,429,cs),
(1170,429,l),
(1170,324,ls),
(1170,214,o),
(1119,152,o),
(1037,152,cs)
);
},
{
closed = 1;
nodes = (
(1419,445,l),
(1187,445,l),
(1187,724,l),
(1419,724,l)
);
},
{
closed = 1;
nodes = (
(523,351,ls),
(523,449,o),
(568,568,o),
(712,568,cs),
(817,568,o),
(897,492,o),
(899,363,c),
(889,342,o),
(883,317,o),
(883,290,cs),
(883,199,o),
(944,136,o),
(1037,136,cs),
(1129,136,o),
(1187,198,o),
(1187,325,cs),
(1187,429,l),
(1419,429,l),
(1419,0,l),
(1436,0,l),
(1436,724,l),
(1598,724,l),
(1598,740,l),
(-35,740,l),
(-35,724,l),
(507,724,l),
(507,443,l),
(482,518,o),
(418,584,o),
(304,584,cs),
(184,584,o),
(85,499,o),
(85,359,cs),
(85,212,o),
(181,127,o),
(304,127,cs),
(416,127,o),
(482,193,o),
(507,268,c),
(507,0,l),
(523,0,l)
);
}
);
width = 1563;
}
);
note = dvKx_MA;
},
{
glyphname = dvK_YA;
layers = (
{
layerId = m01;
shapes = (
{
closed = 1;
nodes = (
(902,435,l),
(888,514,o),
(827,587,o),
(712,584,cs),
(604,582,o),
(546,515,o),
(523,439,c),
(523,724,l),
(1116,724,l),
(1116,615,ls),
(1116,466,o),
(1021,435,o),
(909,435,cs)
);
},
{
closed = 1;
nodes = (
(191,143,o),
(102,221,o),
(102,359,cs),
(102,490,o),
(194,568,o),
(304,568,cs),
(450,568,o),
(507,453,o),
(507,355,cs),
(507,354,ls),
(507,263,o),
(450,143,o),
(304,143,cs)
);
},
{
closed = 1;
nodes = (
(996,154,o),
(905,256,o),
(905,400,cs),
(905,404,o),
(905,411,o),
(906,419,c),
(909,419,ls),
(1037,419,o),
(1133,460,o),
(1133,615,cs),
(1133,724,l),
(1384,724,l),
(1384,368,ls),
(1384,238,o),
(1274,154,o),
(1149,154,cs)
);
},
{
closed = 1;
nodes = (
(523,351,ls),
(523,449,o),
(575,565,o),
(712,568,cs),
(833,571,o),
(889,481,o),
(889,399,c),
(889,399,l),
(889,251,o),
(982,138,o),
(1148,138,cs),
(1281,138,o),
(1360,216,o),
(1384,285,c),
(1384,0,l),
(1401,0,l),
(1401,724,l),
(1563,724,l),
(1563,740,l),
(-35,740,l),
(-35,724,l),
(507,724,l),
(507,443,l),
(482,518,o),
(418,584,o),
(304,584,cs),
(184,584,o),
(85,499,o),
(85,359,cs),
(85,212,o),
(181,127,o),
(304,127,cs),
(416,127,o),
(482,193,o),
(507,268,c),
(507,0,l),
(523,0,l)
);
}
);
width = 1528;
}
);
note = dvK_YA;
},
{
glyphname = dvK_LA;
layers = (
{
layerId = m01;
shapes = (
{
closed = 1;
nodes = (
(1260,387,l),
(1250,464,o),
(1203,560,o),
(1089,560,cs),
(993,560,o),
(932,505,o),
(908,422,c),
(886,524,o),
(809,584,o),
(712,584,cs),
(601,584,o),
(545,519,o),
(523,444,c),
(523,724,l),
(1432,724,l),
(1432,560,l),
(1317,555,o),
(1273,463,o),
(1262,387,c)
);
},
{
closed = 1;
nodes = (
(191,143,o),
(102,221,o),
(102,359,cs),
(102,490,o),
(194,568,o),
(304,568,cs),
(450,568,o),
(507,453,o),
(507,355,cs),
(507,354,ls),
(507,263,o),
(450,143,o),
(304,143,cs)
);
},
{
closed = 1;
nodes = (
(523,351,ls),
(523,449,o),
(568,568,o),
(712,568,cs),
(816,568,o),
(896,493,o),
(899,366,c),
(898,358,o),
(898,350,o),
(898,341,cs),
(898,208,o),
(971,104,o),
(1118,104,cs),
(1129,104,o),
(1140,105,o),
(1151,106,c),
(1151,123,l),
(1140,122,o),
(1130,121,o),
(1120,121,cs),
(982,121,o),
(915,217,o),
(915,341,cs),
(915,456,o),
(973,544,o),
(1089,544,cs),
(1196,544,o),
(1252,448,o),
(1252,303,cs),
(1252,295,l),
(1269,295,l),
(1269,303,ls),
(1269,451,o),
(1328,544,o),
(1441,544,cs),
(1552,544,o),
(1606,452,o),
(1606,341,cs),
(1606,217,o),
(1539,121,o),
(1401,121,cs),
(1391,121,o),
(1381,122,o),
(1370,123,c),
(1370,106,l),
(1381,105,o),
(1392,104,o),
(1403,104,cs),
(1550,104,o),
(1623,208,o),
(1623,341,cs),
(1623,461,o),
(1564,556,o),
(1449,560,c),
(1449,724,l),
(1743,724,l),
(1743,740,l),
(-35,740,l),
(-35,724,l),
(507,724,l),
(507,443,l),
(482,518,o),
(418,584,o),
(304,584,cs),
(184,584,o),
(85,499,o),
(85,359,cs),
(85,212,o),
(181,127,o),
(304,127,cs),
(416,127,o),
(482,193,o),
(507,268,c),
(507,0,l),
(523,0,l)
);
}
);
width = 1708;
}
);
note = dvK_LA;
},
{
glyphname = dvK_VA;
layers = (
{
layerId = m01;
shapes = (
{
closed = 1;
nodes = (
(601,584,o),
(545,519,o),
(523,444,c),
(523,724,l),
(1351,724,l),
(1351,441,l),
(1325,519,o),
(1256,588,o),
(1132,588,cs),
(1027,588,o),
(936,529,o),
(908,428,c),
(884,526,o),
(808,584,o),
(712,584,cs)
);
},
{
closed = 1;
nodes = (
(191,143,o),
(102,221,o),
(102,359,cs),
(102,490,o),
(194,568,o),
(304,568,cs),
(450,568,o),
(507,453,o),
(507,355,cs),
(507,354,ls),
(507,263,o),
(450,143,o),
(304,143,cs)
);
},
{
closed = 1;
nodes = (
(1011,141,o),
(916,220,o),
(916,359,cs),
(916,493,o),
(1015,572,o),
(1132,572,cs),
(1289,572,o),
(1351,455,o),
(1351,355,cs),
(1351,354,ls),
(1351,262,o),
(1289,141,o),
(1132,141,cs)
);
},
{
closed = 1;
nodes = (
(1530,724,l),
(1530,740,l),
(-35,740,l),
(-35,724,l),
(507,724,l),
(507,443,l),
(482,518,o),
(418,584,o),
(304,584,cs),
(184,584,o),
(85,499,o),
(85,359,cs),
(85,212,o),
(181,127,o),
(304,127,cs),
(416,127,o),
(482,193,o),
(507,268,c),
(507,0,l),
(523,0,l),
(523,351,ls),
(523,449,o),
(568,568,o),
(712,568,cs),
(818,568,o),
(899,490,o),
(899,359,cs),
(899,211,o),
(1001,125,o),
(1132,125,cs),
(1254,125,o),
(1325,194,o),
(1351,271,c),
(1351,0,l),
(1368,0,l),
(1368,724,l)
);
}
);
width = 1495;
}
);
note = dvK_VA;
},
{
glyphname = dvK_V_YA;
layers = (
{
layerId = m01;
shapes = (
{
closed = 1;
nodes = (
(601,584,o),
(545,519,o),
(523,444,c),
(523,724,l),
(1575,724,l),
(1575,605,ls),
(1575,456,o),
(1480,425,o),
(1368,425,cs),
(1358,425,l),
(1340,508,o),
(1267,588,o),
(1135,588,cs),
(1027,588,o),
(934,527,o),
(907,424,c),
(885,525,o),
(809,584,o),
(712,584,cs)
);
},
{
closed = 1;
nodes = (
(191,143,o),
(102,221,o),
(102,359,cs),
(102,490,o),
(194,568,o),
(304,568,cs),
(450,568,o),
(507,453,o),
(507,355,cs),
(507,354,ls),
(507,263,o),
(450,143,o),
(304,143,cs)
);
},
{
closed = 1;
nodes = (
(1012,141,o),
(916,220,o),
(916,359,cs),
(916,493,o),
(1016,572,o),
(1135,572,cs),
(1278,572,o),
(1348,474,o),
(1348,383,c),
(1348,383,l),
(1348,381,l),
(1348,381,l),
(1348,355,ls),
(1348,262,o),
(1290,141,o),
(1135,141,cs)
);
},
{
closed = 1;
nodes = (
(1457,154,o),
(1363,238,o),
(1363,381,cs),
(1363,383,l),
(1363,383,l),
(1363,389,o),
(1363,396,o),
(1362,402,cs),
(1362,405,o),
(1362,407,o),
(1361,409,c),
(1368,409,ls),
(1496,409,o),
(1592,450,o),
(1592,605,cs),
(1592,724,l),
(1843,724,l),
(1843,368,ls),
(1843,238,o),
(1733,154,o),
(1608,154,cs)
);
},
{
closed = 1;
nodes = (
(523,351,ls),
(523,449,o),
(568,568,o),
(712,568,cs),
(818,568,o),
(899,490,o),
(899,359,cs),
(899,211,o),
(1002,125,o),
(1135,125,cs),
(1273,125,o),
(1340,216,o),
(1358,306,c),
(1386,202,o),
(1473,138,o),
(1607,138,cs),
(1740,138,o),
(1819,216,o),
(1843,285,c),
(1843,0,l),
(1860,0,l),
(1860,724,l),
(2022,724,l),
(2022,740,l),
(-35,740,l),
(-35,724,l),
(507,724,l),
(507,443,l),
(482,518,o),
(418,584,o),
(304,584,cs),
(184,584,o),
(85,499,o),
(85,359,cs),
(85,212,o),
(181,127,o),
(304,127,cs),
(416,127,o),
(482,193,o),
(507,268,c),
(507,0,l),
(523,0,l)
);
}
);
width = 1987;
}
);
note = dvK_V_YA;
},
